STARTFONT 2.1
FONT -Baekmuk-Dotum-Medium-R-Normal--10-100-75-75-M-100-ISO10646-1
SIZE 10 75 75
FONTBOUNDINGBOX 12 11 -1 -3
COMMENT "Generated by fontforge, http://fontforge.sourceforge.net"
STARTPROPERTIES 22
FOUNDRY "Baekmuk"
FAMILY_NAME "Dotum"
WEIGHT_NAME "Medium"
SLANT "R"
SETWIDTH_NAME "Normal"
ADD_STYLE_NAME ""
PIXEL_SIZE 10
POINT_SIZE 100
RESOLUTION_X 75
RESOLUTION_Y 75
SPACING "M"
AVERAGE_WIDTH 100
CHARSET_REGISTRY "ISO10646"
CHARSET_ENCODING "1"
COPYRIGHT "Copyright (c) Mizi Research, Inc. and Hwan Design, Inc."
WEIGHT 10
RESOLUTION 103
X_HEIGHT -1
QUAD_WIDTH 10
FONT_ASCENT 8
FONT_DESCENT 3
_GBDFED_INFO "Edited with gbdfed 1.6."
ENDPROPERTIES
CHARS 8321
STARTCHAR space
ENCODING 32
SWIDTH 1152 0
DWIDTH 12 0
BBX 0 0 0 0
BITMAP
ENDCHAR
STARTCHAR exclam
ENCODING 33
SWIDTH 1152 0
DWIDTH 12 0
BBX 1 7 2 0
BITMAP
80
80
80
80
80
00
80
ENDCHAR
STARTCHAR quotedbl
ENCODING 34
SWIDTH 1152 0
DWIDTH 12 0
BBX 3 3 1 5
BITMAP
A0
A0
A0
ENDCHAR
STARTCHAR numbersign
ENCODING 35
SWIDTH 1152 0
DWIDTH 12 0
BBX 5 6 0 0
BITMAP
50
F8
50
50
F8
50
ENDCHAR
STARTCHAR dollar
ENCODING 36
SWIDTH 1152 0
DWIDTH 12 0
BBX 5 9 0 -1
BITMAP
20
70
A8
A0
70
28
A8
70
20
ENDCHAR
STARTCHAR percent
ENCODING 37
SWIDTH 1152 0
DWIDTH 12 0
BBX 5 7 0 0
BITMAP
C8
C8
10
20
40
98
98
ENDCHAR
STARTCHAR ampersand
ENCODING 38
SWIDTH 1152 0
DWIDTH 12 0
BBX 5 7 0 0
BITMAP
40
A0
A0
40
A8
90
68
ENDCHAR
STARTCHAR quotesingle
ENCODING 39
SWIDTH 1152 0
DWIDTH 12 0
BBX 1 3 2 5
BITMAP
80
80
80
ENDCHAR
STARTCHAR parenleft
ENCODING 40
SWIDTH 1152 0
DWIDTH 12 0
BBX 3 9 1 -1
BITMAP
20
40
40
80
80
80
40
40
20
ENDCHAR
STARTCHAR parenright
ENCODING 41
SWIDTH 1152 0
DWIDTH 12 0
BBX 3 9 1 -1
BITMAP
80
40
40
20
20
20
40
40
80
ENDCHAR
STARTCHAR asterisk
ENCODING 42
SWIDTH 1152 0
DWIDTH 12 0
BBX 5 7 0 0
BITMAP
20
A8
70
20
70
A8
20
ENDCHAR
STARTCHAR plus
ENCODING 43
SWIDTH 1152 0
DWIDTH 12 0
BBX 5 5 0 1
BITMAP
20
20
F8
20
20
ENDCHAR
STARTCHAR comma
ENCODING 44
SWIDTH 1152 0
DWIDTH 12 0
BBX 3 3 0 -1
BITMAP
60
60
C0
ENDCHAR
STARTCHAR hyphen
ENCODING 45
SWIDTH 1152 0
DWIDTH 12 0
BBX 5 1 0 3
BITMAP
F8
ENDCHAR
STARTCHAR period
ENCODING 46
SWIDTH 1152 0
DWIDTH 12 0
BBX 2 2 1 0
BITMAP
C0
C0
ENDCHAR
STARTCHAR slash
ENCODING 47
SWIDTH 1152 0
DWIDTH 12 0
BBX 5 7 0 0
BITMAP
08
10
10
20
40
40
80
ENDCHAR
STARTCHAR zero
ENCODING 48
SWIDTH 1152 0
DWIDTH 12 0
BBX 4 7 1 0
BITMAP
60
90
90
90
90
90
60
ENDCHAR
STARTCHAR one
ENCODING 49
SWIDTH 1152 0
DWIDTH 12 0
BBX 3 7 1 0
BITMAP
40
C0
40
40
40
40
E0
ENDCHAR
STARTCHAR two
ENCODING 50
SWIDTH 1152 0
DWIDTH 12 0
BBX 5 7 0 0
BITMAP
70
88
08
10
20
40
F8
ENDCHAR
STARTCHAR three
ENCODING 51
SWIDTH 1152 0
DWIDTH 12 0
BBX 5 7 0 0
BITMAP
F8
08
10
30
08
88
70
ENDCHAR
STARTCHAR four
ENCODING 52
SWIDTH 1152 0
DWIDTH 12 0
BBX 5 7 0 0
BITMAP
10
30
50
90
F8
10
10
ENDCHAR
STARTCHAR five
ENCODING 53
SWIDTH 1152 0
DWIDTH 12 0
BBX 5 7 0 0
BITMAP
F8
80
F0
08
08
88
70
ENDCHAR
STARTCHAR six
ENCODING 54
SWIDTH 1152 0
DWIDTH 12 0
BBX 5 7 0 0
BITMAP
30
40
80
F0
88
88
70
ENDCHAR
STARTCHAR seven
ENCODING 55
SWIDTH 1152 0
DWIDTH 12 0
BBX 5 7 0 0
BITMAP
F8
08
10
10
20
20
20
ENDCHAR
STARTCHAR eight
ENCODING 56
SWIDTH 1152 0
DWIDTH 12 0
BBX 5 7 0 0
BITMAP
70
88
88
70
88
88
70
ENDCHAR
STARTCHAR nine
ENCODING 57
SWIDTH 1152 0
DWIDTH 12 0
BBX 5 7 0 0
BITMAP
70
88
88
78
08
10
60
ENDCHAR
STARTCHAR colon
ENCODING 58
SWIDTH 1152 0
DWIDTH 12 0
BBX 2 5 1 0
BITMAP
C0
C0
00
C0
C0
ENDCHAR
STARTCHAR semicolon
ENCODING 59
SWIDTH 1152 0
DWIDTH 12 0
BBX 3 6 0 -1
BITMAP
60
60
00
60
60
C0
ENDCHAR
STARTCHAR less
ENCODING 60
SWIDTH 1152 0
DWIDTH 12 0
BBX 3 5 1 1
BITMAP
20
40
80
40
20
ENDCHAR
STARTCHAR equal
ENCODING 61
SWIDTH 1152 0
DWIDTH 12 0
BBX 5 3 0 2
BITMAP
F8
00
F8
ENDCHAR
STARTCHAR greater
ENCODING 62
SWIDTH 1152 0
DWIDTH 12 0
BBX 3 5 1 1
BITMAP
80
40
20
40
80
ENDCHAR
STARTCHAR question
ENCODING 63
SWIDTH 1152 0
DWIDTH 12 0
BBX 5 7 0 0
BITMAP
70
88
10
20
20
00
20
ENDCHAR
STARTCHAR at
ENCODING 64
SWIDTH 1152 0
DWIDTH 12 0
BBX 5 7 0 0
BITMAP
70
88
B8
A8
B8
80
70
ENDCHAR
STARTCHAR A
ENCODING 65
SWIDTH 1152 0
DWIDTH 12 0
BBX 5 7 0 0
BITMAP
70
88
88
F8
88
88
88
ENDCHAR
STARTCHAR B
ENCODING 66
SWIDTH 1152 0
DWIDTH 12 0
BBX 5 7 0 0
BITMAP
F0
48
48
70
48
48
F0
ENDCHAR
STARTCHAR C
ENCODING 67
SWIDTH 1152 0
DWIDTH 12 0
BBX 5 7 0 0
BITMAP
70
88
80
80
80
88
70
ENDCHAR
STARTCHAR D
ENCODING 68
SWIDTH 1152 0
DWIDTH 12 0
BBX 5 7 0 0
BITMAP
F0
48
48
48
48
48
F0
ENDCHAR
STARTCHAR E
ENCODING 69
SWIDTH 1152 0
DWIDTH 12 0
BBX 5 7 0 0
BITMAP
F8
80
80
F0
80
80
F8
ENDCHAR
STARTCHAR F
ENCODING 70
SWIDTH 1152 0
DWIDTH 12 0
BBX 5 7 0 0
BITMAP
F8
80
80
F0
80
80
80
ENDCHAR
STARTCHAR G
ENCODING 71
SWIDTH 1152 0
DWIDTH 12 0
BBX 5 7 0 0
BITMAP
70
88
80
80
98
88
70
ENDCHAR
STARTCHAR H
ENCODING 72
SWIDTH 1152 0
DWIDTH 12 0
BBX 5 7 0 0
BITMAP
88
88
88
F8
88
88
88
ENDCHAR
STARTCHAR I
ENCODING 73
SWIDTH 1152 0
DWIDTH 12 0
BBX 3 7 1 0
BITMAP
E0
40
40
40
40
40
E0
ENDCHAR
STARTCHAR J
ENCODING 74
SWIDTH 1152 0
DWIDTH 12 0
BBX 5 7 0 0
BITMAP
38
10
10
10
10
90
60
ENDCHAR
STARTCHAR K
ENCODING 75
SWIDTH 1152 0
DWIDTH 12 0
BBX 5 7 0 0
BITMAP
88
90
A0
C0
A0
90
88
ENDCHAR
STARTCHAR L
ENCODING 76
SWIDTH 1152 0
DWIDTH 12 0
BBX 5 7 0 0
BITMAP
80
80
80
80
80
80
F8
ENDCHAR
STARTCHAR M
ENCODING 77
SWIDTH 1152 0
DWIDTH 12 0
BBX 5 7 0 0
BITMAP
88
D8
A8
88
88
88
88
ENDCHAR
STARTCHAR N
ENCODING 78
SWIDTH 1152 0
DWIDTH 12 0
BBX 5 7 0 0
BITMAP
88
88
C8
A8
98
88
88
ENDCHAR
STARTCHAR O
ENCODING 79
SWIDTH 1152 0
DWIDTH 12 0
BBX 5 7 0 0
BITMAP
70
88
88
88
88
88
70
ENDCHAR
STARTCHAR P
ENCODING 80
SWIDTH 1152 0
DWIDTH 12 0
BBX 5 7 0 0
BITMAP
F0
88
88
F0
80
80
80
ENDCHAR
STARTCHAR Q
ENCODING 81
SWIDTH 1152 0
DWIDTH 12 0
BBX 5 7 0 0
BITMAP
70
88
88
88
A8
90
68
ENDCHAR
STARTCHAR R
ENCODING 82
SWIDTH 1152 0
DWIDTH 12 0
BBX 5 7 0 0
BITMAP
F0
88
88
F0
A0
90
88
ENDCHAR
STARTCHAR S
ENCODING 83
SWIDTH 1152 0
DWIDTH 12 0
BBX 5 7 0 0
BITMAP
70
88
80
70
08
88
70
ENDCHAR
STARTCHAR T
ENCODING 84
SWIDTH 1152 0
DWIDTH 12 0
BBX 5 7 0 0
BITMAP
F8
20
20
20
20
20
20
ENDCHAR
STARTCHAR U
ENCODING 85
SWIDTH 1152 0
DWIDTH 12 0
BBX 5 7 0 0
BITMAP
88
88
88
88
88
88
70
ENDCHAR
STARTCHAR V
ENCODING 86
SWIDTH 1152 0
DWIDTH 12 0
BBX 5 7 0 0
BITMAP
88
88
88
88
50
50
20
ENDCHAR
STARTCHAR W
ENCODING 87
SWIDTH 1152 0
DWIDTH 12 0
BBX 5 7 0 0
BITMAP
88
88
88
88
A8
A8
50
ENDCHAR
STARTCHAR X
ENCODING 88
SWIDTH 1152 0
DWIDTH 12 0
BBX 5 7 0 0
BITMAP
88
88
50
20
50
88
88
ENDCHAR
STARTCHAR Y
ENCODING 89
SWIDTH 1152 0
DWIDTH 12 0
BBX 5 7 0 0
BITMAP
88
88
50
20
20
20
20
ENDCHAR
STARTCHAR Z
ENCODING 90
SWIDTH 1152 0
DWIDTH 12 0
BBX 5 7 0 0
BITMAP
F8
08
10
20
40
80
F8
ENDCHAR
STARTCHAR bracketleft
ENCODING 91
SWIDTH 1152 0
DWIDTH 12 0
BBX 3 9 1 -1
BITMAP
E0
80
80
80
80
80
80
80
E0
ENDCHAR
STARTCHAR backslash
ENCODING 92
SWIDTH 1152 0
DWIDTH 12 0
BBX 5 7 0 0
BITMAP
80
40
40
20
10
10
08
ENDCHAR
STARTCHAR bracketright
ENCODING 93
SWIDTH 1152 0
DWIDTH 12 0
BBX 3 9 1 -1
BITMAP
E0
20
20
20
20
20
20
20
E0
ENDCHAR
STARTCHAR asciicircum
ENCODING 94
SWIDTH 1152 0
DWIDTH 12 0
BBX 5 3 0 5
BITMAP
20
50
88
ENDCHAR
STARTCHAR underscore
ENCODING 95
SWIDTH 1152 0
DWIDTH 12 0
BBX 5 1 0 -2
BITMAP
F8
ENDCHAR
STARTCHAR grave
ENCODING 96
SWIDTH 1152 0
DWIDTH 12 0
BBX 3 3 1 5
BITMAP
80
40
20
ENDCHAR
STARTCHAR a
ENCODING 97
SWIDTH 1152 0
DWIDTH 12 0
BBX 5 5 0 0
BITMAP
70
08
78
88
78
ENDCHAR
STARTCHAR b
ENCODING 98
SWIDTH 1152 0
DWIDTH 12 0
BBX 5 7 0 0
BITMAP
80
80
F0
88
88
88
F0
ENDCHAR
STARTCHAR c
ENCODING 99
SWIDTH 1152 0
DWIDTH 12 0
BBX 5 5 0 0
BITMAP
70
88
80
88
70
ENDCHAR
STARTCHAR d
ENCODING 100
SWIDTH 1152 0
DWIDTH 12 0
BBX 5 7 0 0
BITMAP
08
08
78
88
88
88
78
ENDCHAR
STARTCHAR e
ENCODING 101
SWIDTH 1152 0
DWIDTH 12 0
BBX 5 5 0 0
BITMAP
70
88
F0
80
70
ENDCHAR
STARTCHAR f
ENCODING 102
SWIDTH 1152 0
DWIDTH 12 0
BBX 5 7 0 0
BITMAP
30
48
40
E0
40
40
40
ENDCHAR
STARTCHAR g
ENCODING 103
SWIDTH 1152 0
DWIDTH 12 0
BBX 5 7 0 -2
BITMAP
70
88
88
88
78
08
70
ENDCHAR
STARTCHAR h
ENCODING 104
SWIDTH 1152 0
DWIDTH 12 0
BBX 5 7 0 0
BITMAP
80
80
F0
88
88
88
88
ENDCHAR
STARTCHAR i
ENCODING 105
SWIDTH 1152 0
DWIDTH 12 0
BBX 3 7 1 0
BITMAP
40
00
C0
40
40
40
E0
ENDCHAR
STARTCHAR j
ENCODING 106
SWIDTH 1152 0
DWIDTH 12 0
BBX 4 9 1 -2
BITMAP
10
00
30
10
10
10
10
90
60
ENDCHAR
STARTCHAR k
ENCODING 107
SWIDTH 1152 0
DWIDTH 12 0
BBX 5 7 0 0
BITMAP
80
80
88
90
E0
90
88
ENDCHAR
STARTCHAR l
ENCODING 108
SWIDTH 1152 0
DWIDTH 12 0
BBX 3 7 1 0
BITMAP
C0
40
40
40
40
40
E0
ENDCHAR
STARTCHAR m
ENCODING 109
SWIDTH 1152 0
DWIDTH 12 0
BBX 5 5 0 0
BITMAP
D0
A8
A8
A8
A8
ENDCHAR
STARTCHAR n
ENCODING 110
SWIDTH 1152 0
DWIDTH 12 0
BBX 5 5 0 0
BITMAP
B0
C8
88
88
88
ENDCHAR
STARTCHAR o
ENCODING 111
SWIDTH 1152 0
DWIDTH 12 0
BBX 5 5 0 0
BITMAP
70
88
88
88
70
ENDCHAR
STARTCHAR p
ENCODING 112
SWIDTH 1152 0
DWIDTH 12 0
BBX 5 7 0 -2
BITMAP
F0
88
88
88
F0
80
80
ENDCHAR
STARTCHAR q
ENCODING 113
SWIDTH 1152 0
DWIDTH 12 0
BBX 5 7 0 -2
BITMAP
78
88
88
88
78
08
08
ENDCHAR
STARTCHAR r
ENCODING 114
SWIDTH 1152 0
DWIDTH 12 0
BBX 5 5 0 0
BITMAP
B0
C8
80
80
80
ENDCHAR
STARTCHAR s
ENCODING 115
SWIDTH 1152 0
DWIDTH 12 0
BBX 5 5 0 0
BITMAP
78
80
70
08
F0
ENDCHAR
STARTCHAR t
ENCODING 116
SWIDTH 1152 0
DWIDTH 12 0
BBX 5 7 0 0
BITMAP
20
20
F8
20
20
20
18
ENDCHAR
STARTCHAR u
ENCODING 117
SWIDTH 1152 0
DWIDTH 12 0
BBX 5 5 0 0
BITMAP
88
88
88
98
68
ENDCHAR
STARTCHAR v
ENCODING 118
SWIDTH 1152 0
DWIDTH 12 0
BBX 5 5 0 0
BITMAP
88
88
88
50
20
ENDCHAR
STARTCHAR w
ENCODING 119
SWIDTH 1152 0
DWIDTH 12 0
BBX 5 5 0 0
BITMAP
88
88
A8
A8
50
ENDCHAR
STARTCHAR x
ENCODING 120
SWIDTH 1152 0
DWIDTH 12 0
BBX 5 5 0 0
BITMAP
88
50
20
50
88
ENDCHAR
STARTCHAR y
ENCODING 121
SWIDTH 1152 0
DWIDTH 12 0
BBX 5 7 0 -2
BITMAP
88
88
88
50
20
40
80
ENDCHAR
STARTCHAR z
ENCODING 122
SWIDTH 1152 0
DWIDTH 12 0
BBX 5 5 0 0
BITMAP
F8
10
20
40
F8
ENDCHAR
STARTCHAR braceleft
ENCODING 123
SWIDTH 1152 0
DWIDTH 12 0
BBX 3 9 1 -1
BITMAP
20
40
40
40
80
40
40
40
20
ENDCHAR
STARTCHAR bar
ENCODING 124
SWIDTH 1152 0
DWIDTH 12 0
BBX 1 9 2 -1
BITMAP
80
80
80
80
80
80
80
80
80
ENDCHAR
STARTCHAR braceright
ENCODING 125
SWIDTH 1152 0
DWIDTH 12 0
BBX 3 9 1 -1
BITMAP
80
40
40
40
20
40
40
40
80
ENDCHAR
STARTCHAR asciitilde
ENCODING 126
SWIDTH 1152 0
DWIDTH 12 0
BBX 5 3 0 2
BITMAP
48
A8
90
ENDCHAR
STARTCHAR exclamdown
ENCODING 161
SWIDTH 1152 0
DWIDTH 12 0
BBX 2 8 4 -1
BITMAP
C0
00
00
00
80
80
80
C0
ENDCHAR
STARTCHAR currency
ENCODING 164
SWIDTH 1152 0
DWIDTH 12 0
BBX 7 8 1 -1
BITMAP
80
7E
42
82
82
44
24
5A
ENDCHAR
STARTCHAR section
ENCODING 167
SWIDTH 1152 0
DWIDTH 12 0
BBX 4 9 3 -2
BITMAP
E0
90
40
A0
90
70
20
90
70
ENDCHAR
STARTCHAR dieresis
ENCODING 168
SWIDTH 1152 0
DWIDTH 12 0
BBX 4 1 3 7
BITMAP
90
ENDCHAR
STARTCHAR ordfeminine
ENCODING 170
SWIDTH 1152 0
DWIDTH 12 0
BBX 5 6 2 0
BITMAP
78
08
78
88
78
78
ENDCHAR
STARTCHAR uni00AD
ENCODING 173
SWIDTH 1152 0
DWIDTH 12 0
BBX 4 1 3 3
BITMAP
F0
ENDCHAR
STARTCHAR registered
ENCODING 174
SWIDTH 1152 0
DWIDTH 12 0
BBX 8 8 0 -1
BITMAP
3C
7A
A5
B9
A5
A5
42
3C
ENDCHAR
STARTCHAR degree
ENCODING 176
SWIDTH 1152 0
DWIDTH 12 0
BBX 4 3 3 5
BITMAP
70
90
E0
ENDCHAR
STARTCHAR plusminus
ENCODING 177
SWIDTH 1152 0
DWIDTH 12 0
BBX 7 7 1 0
BITMAP
10
10
10
FE
10
10
7E
ENDCHAR
STARTCHAR uni00B2
ENCODING 178
SWIDTH 1152 0
DWIDTH 12 0
BBX 3 5 3 3
BITMAP
60
20
20
C0
60
ENDCHAR
STARTCHAR uni00B3
ENCODING 179
SWIDTH 1152 0
DWIDTH 12 0
BBX 2 5 4 3
BITMAP
C0
40
40
40
40
ENDCHAR
STARTCHAR acute
ENCODING 180
SWIDTH 1152 0
DWIDTH 12 0
BBX 1 1 4 7
BITMAP
80
ENDCHAR
STARTCHAR paragraph
ENCODING 182
SWIDTH 1152 0
DWIDTH 12 0
BBX 7 9 1 -1
BITMAP
38
4A
8A
4A
3A
0A
0A
0A
0A
ENDCHAR
STARTCHAR periodcentered
ENCODING 183
SWIDTH 1152 0
DWIDTH 12 0
BBX 1 1 4 3
BITMAP
80
ENDCHAR
STARTCHAR cedilla
ENCODING 184
SWIDTH 1152 0
DWIDTH 12 0
BBX 1 2 5 -2
BITMAP
80
80
ENDCHAR
STARTCHAR uni00B9
ENCODING 185
SWIDTH 1152 0
DWIDTH 12 0
BBX 1 5 5 3
BITMAP
80
80
80
80
80
ENDCHAR
STARTCHAR ordmasculine
ENCODING 186
SWIDTH 1152 0
DWIDTH 12 0
BBX 5 6 2 0
BITMAP
70
88
88
88
70
78
ENDCHAR
STARTCHAR onequarter
ENCODING 188
SWIDTH 1152 0
DWIDTH 12 0
BBX 5 7 3 0
BITMAP
10
A0
A0
C8
D8
A8
98
ENDCHAR
STARTCHAR onehalf
ENCODING 189
SWIDTH 1152 0
DWIDTH 12 0
BBX 8 7 1 -1
BITMAP
C0
48
56
61
22
4C
47
ENDCHAR
STARTCHAR threequarters
ENCODING 190
SWIDTH 1152 0
DWIDTH 12 0
BBX 7 8 2 -1
BITMAP
C0
48
50
54
6C
B4
1E
04
ENDCHAR
STARTCHAR questiondown
ENCODING 191
SWIDTH 1152 0
DWIDTH 12 0
BBX 4 8 3 -1
BITMAP
20
00
00
20
60
80
80
B0
ENDCHAR
STARTCHAR AE
ENCODING 198
SWIDTH 1152 0
DWIDTH 12 0
BBX 9 7 1 0
BITMAP
1F80
2800
2800
4F80
7800
8800
0F80
ENDCHAR
STARTCHAR Eth
ENCODING 208
SWIDTH 1152 0
DWIDTH 12 0
BBX 7 7 2 0
BITMAP
7C
42
42
F2
42
42
44
ENDCHAR
STARTCHAR multiply
ENCODING 215
SWIDTH 1152 0
DWIDTH 12 0
BBX 6 6 2 0
BITMAP
84
48
30
30
48
84
ENDCHAR
STARTCHAR Oslash
ENCODING 216
SWIDTH 1152 0
DWIDTH 12 0
BBX 8 8 1 -1
BITMAP
3D
42
4E
92
52
62
66
98
ENDCHAR
STARTCHAR Thorn
ENCODING 222
SWIDTH 1152 0
DWIDTH 12 0
BBX 6 7 2 0
BITMAP
80
80
FC
84
84
F8
80
ENDCHAR
STARTCHAR germandbls
ENCODING 223
SWIDTH 1152 0
DWIDTH 12 0
BBX 5 7 2 0
BITMAP
70
90
90
90
88
88
90
ENDCHAR
STARTCHAR ae
ENCODING 230
SWIDTH 1152 0
DWIDTH 12 0
BBX 8 5 1 0
BITMAP
7E
91
7F
90
AA
ENDCHAR
STARTCHAR eth
ENCODING 240
SWIDTH 1152 0
DWIDTH 12 0
BBX 5 8 2 -1
BITMAP
30
30
10
78
88
88
58
20
ENDCHAR
STARTCHAR divide
ENCODING 247
SWIDTH 1152 0
DWIDTH 12 0
BBX 6 6 2 0
BITMAP
20
00
FC
00
00
20
ENDCHAR
STARTCHAR oslash
ENCODING 248
SWIDTH 1152 0
DWIDTH 12 0
BBX 5 6 2 -1
BITMAP
30
58
A8
48
68
10
ENDCHAR
STARTCHAR thorn
ENCODING 254
SWIDTH 1152 0
DWIDTH 12 0
BBX 5 8 3 -1
BITMAP
80
80
F0
88
88
88
90
E0
ENDCHAR
STARTCHAR dcroat
ENCODING 273
SWIDTH 1152 0
DWIDTH 12 0
BBX 6 7 2 0
BITMAP
3C
08
78
88
88
88
58
ENDCHAR
STARTCHAR Hbar
ENCODING 294
SWIDTH 1152 0
DWIDTH 12 0
BBX 8 7 1 0
BITMAP
42
FF
42
7E
42
42
42
ENDCHAR
STARTCHAR hbar
ENCODING 295
SWIDTH 1152 0
DWIDTH 12 0
BBX 5 7 3 0
BITMAP
E0
80
78
88
88
88
08
ENDCHAR
STARTCHAR dotlessi
ENCODING 305
SWIDTH 1152 0
DWIDTH 12 0
BBX 1 5 5 0
BITMAP
80
80
80
80
80
ENDCHAR
STARTCHAR IJ
ENCODING 306
SWIDTH 1152 0
DWIDTH 12 0
BBX 6 7 2 0
BITMAP
84
84
84
84
84
A4
A8
ENDCHAR
STARTCHAR ij
ENCODING 307
SWIDTH 1152 0
DWIDTH 12 0
BBX 4 9 3 -2
BITMAP
90
00
90
90
90
90
90
10
10
ENDCHAR
STARTCHAR kgreenlandic
ENCODING 312
SWIDTH 1152 0
DWIDTH 12 0
BBX 4 5 3 0
BITMAP
90
A0
E0
A0
90
ENDCHAR
STARTCHAR Ldot
ENCODING 319
SWIDTH 1152 0
DWIDTH 12 0
BBX 5 7 3 0
BITMAP
80
80
80
A0
80
80
F8
ENDCHAR
STARTCHAR ldot
ENCODING 320
SWIDTH 1152 0
DWIDTH 12 0
BBX 3 7 3 0
BITMAP
80
80
80
A0
80
80
80
ENDCHAR
STARTCHAR Lslash
ENCODING 321
SWIDTH 1152 0
DWIDTH 12 0
BBX 6 7 2 0
BITMAP
40
40
60
40
C0
40
7C
ENDCHAR
STARTCHAR lslash
ENCODING 322
SWIDTH 1152 0
DWIDTH 12 0
BBX 5 7 3 0
BITMAP
20
28
30
20
60
A0
20
ENDCHAR
STARTCHAR napostrophe
ENCODING 329
SWIDTH 1152 0
DWIDTH 12 0
BBX 6 6 2 0
BITMAP
40
BC
24
24
24
24
ENDCHAR
STARTCHAR Eng
ENCODING 330
SWIDTH 1152 0
DWIDTH 12 0
BBX 5 7 2 0
BITMAP
F8
88
88
88
88
88
18
ENDCHAR
STARTCHAR eng
ENCODING 331
SWIDTH 1152 0
DWIDTH 12 0
BBX 4 7 3 -2
BITMAP
F0
90
90
90
90
10
10
ENDCHAR
STARTCHAR OE
ENCODING 338
SWIDTH 1152 0
DWIDTH 12 0
BBX 10 7 0 0
BITMAP
7FC0
8400
8400
87C0
8400
8400
4FC0
ENDCHAR
STARTCHAR oe
ENCODING 339
SWIDTH 1152 0
DWIDTH 12 0
BBX 8 6 1 -1
BITMAP
7F
D1
8F
88
95
62
ENDCHAR
STARTCHAR Tbar
ENCODING 358
SWIDTH 1152 0
DWIDTH 12 0
BBX 5 7 2 0
BITMAP
F8
20
20
F8
20
20
20
ENDCHAR
STARTCHAR tbar
ENCODING 359
SWIDTH 1152 0
DWIDTH 12 0
BBX 3 6 3 0
BITMAP
40
E0
E0
40
40
40
ENDCHAR
STARTCHAR caron
ENCODING 711
SWIDTH 1152 0
DWIDTH 12 0
BBX 4 2 3 6
BITMAP
90
60
ENDCHAR
STARTCHAR uni02D0
ENCODING 720
SWIDTH 1152 0
DWIDTH 12 0
BBX 2 4 4 1
BITMAP
C0
00
00
C0
ENDCHAR
STARTCHAR breve
ENCODING 728
SWIDTH 1152 0
DWIDTH 12 0
BBX 4 2 3 6
BITMAP
90
60
ENDCHAR
STARTCHAR dotaccent
ENCODING 729
SWIDTH 1152 0
DWIDTH 12 0
BBX 1 1 4 7
BITMAP
80
ENDCHAR
STARTCHAR ring
ENCODING 730
SWIDTH 1152 0
DWIDTH 12 0
BBX 2 3 4 5
BITMAP
C0
40
80
ENDCHAR
STARTCHAR ogonek
ENCODING 731
SWIDTH 1152 0
DWIDTH 12 0
BBX 2 1 4 -2
BITMAP
C0
ENDCHAR
STARTCHAR hungarumlaut
ENCODING 733
SWIDTH 1152 0
DWIDTH 12 0
BBX 1 1 5 7
BITMAP
80
ENDCHAR
STARTCHAR Alpha
ENCODING 913
SWIDTH 1152 0
DWIDTH 12 0
BBX 6 7 2 0
BITMAP
1C
14
24
44
7C
84
80
ENDCHAR
STARTCHAR Beta
ENCODING 914
SWIDTH 1152 0
DWIDTH 12 0
BBX 6 7 2 0
BITMAP
3C
44
44
78
88
88
F8
ENDCHAR
STARTCHAR Gamma
ENCODING 915
SWIDTH 1152 0
DWIDTH 12 0
BBX 6 7 2 0
BITMAP
3C
20
40
40
40
80
80
ENDCHAR
STARTCHAR Delta
ENCODING 916
SWIDTH 1152 0
DWIDTH 12 0
BBX 7 7 2 0
BITMAP
0C
14
24
24
44
86
FE
ENDCHAR
STARTCHAR Epsilon
ENCODING 917
SWIDTH 1152 0
DWIDTH 12 0
BBX 6 7 2 0
BITMAP
3C
40
40
78
80
80
F0
ENDCHAR
STARTCHAR Zeta
ENCODING 918
SWIDTH 1152 0
DWIDTH 12 0
BBX 6 7 2 0
BITMAP
7C
08
10
20
40
80
F8
ENDCHAR
STARTCHAR Eta
ENCODING 919
SWIDTH 1152 0
DWIDTH 12 0
BBX 7 7 2 0
BITMAP
42
44
84
FC
88
88
08
ENDCHAR
STARTCHAR Theta
ENCODING 920
SWIDTH 1152 0
DWIDTH 12 0
BBX 6 8 2 -1
BITMAP
38
44
84
BC
84
88
50
20
ENDCHAR
STARTCHAR Iota
ENCODING 921
SWIDTH 1152 0
DWIDTH 12 0
BBX 2 5 4 1
BITMAP
40
40
80
80
80
ENDCHAR
STARTCHAR Kappa
ENCODING 922
SWIDTH 1152 0
DWIDTH 12 0
BBX 6 7 2 0
BITMAP
04
58
60
C0
A0
90
08
ENDCHAR
STARTCHAR Lambda
ENCODING 923
SWIDTH 1152 0
DWIDTH 12 0
BBX 7 7 2 0
BITMAP
08
18
24
24
44
84
82
ENDCHAR
STARTCHAR Mu
ENCODING 924
SWIDTH 1152 0
DWIDTH 12 0
BBX 10 7 0 0
BITMAP
70C0
5180
5180
9280
9500
9500
9900
ENDCHAR
STARTCHAR Nu
ENCODING 925
SWIDTH 1152 0
DWIDTH 12 0
BBX 8 7 1 0
BITMAP
21
52
52
52
4C
8C
84
ENDCHAR
STARTCHAR Xi
ENCODING 926
SWIDTH 1152 0
DWIDTH 12 0
BBX 6 7 2 0
BITMAP
3C
00
00
78
00
00
F0
ENDCHAR
STARTCHAR Omicron
ENCODING 927
SWIDTH 1152 0
DWIDTH 12 0
BBX 6 8 2 -1
BITMAP
38
44
84
84
84
88
50
20
ENDCHAR
STARTCHAR Pi
ENCODING 928
SWIDTH 1152 0
DWIDTH 12 0
BBX 6 7 2 0
BITMAP
7C
44
44
84
88
88
08
ENDCHAR
STARTCHAR Rho
ENCODING 929
SWIDTH 1152 0
DWIDTH 12 0
BBX 6 7 2 0
BITMAP
3C
44
44
78
80
80
80
ENDCHAR
STARTCHAR Sigma
ENCODING 931
SWIDTH 1152 0
DWIDTH 12 0
BBX 6 7 2 0
BITMAP
3C
20
20
10
60
80
F0
ENDCHAR
STARTCHAR Tau
ENCODING 932
SWIDTH 1152 0
DWIDTH 12 0
BBX 6 7 2 0
BITMAP
FC
20
20
20
40
40
40
ENDCHAR
STARTCHAR Upsilon
ENCODING 933
SWIDTH 1152 0
DWIDTH 12 0
BBX 6 7 2 0
BITMAP
84
88
50
60
40
40
40
ENDCHAR
STARTCHAR Phi
ENCODING 934
SWIDTH 1152 0
DWIDTH 12 0
BBX 7 6 1 0
BITMAP
3E
4A
92
92
54
28
ENDCHAR
STARTCHAR Chi
ENCODING 935
SWIDTH 1152 0
DWIDTH 12 0
BBX 6 7 2 0
BITMAP
44
48
30
20
50
90
88
ENDCHAR
STARTCHAR Psi
ENCODING 936
SWIDTH 1152 0
DWIDTH 12 0
BBX 7 6 1 0
BITMAP
92
92
94
7C
20
20
ENDCHAR
STARTCHAR Omega
ENCODING 937
SWIDTH 1152 0
DWIDTH 12 0
BBX 7 8 2 0
BITMAP
18
64
42
84
84
48
50
D8
ENDCHAR
STARTCHAR alpha
ENCODING 945
SWIDTH 1152 0
DWIDTH 12 0
BBX 5 5 2 0
BITMAP
30
48
88
88
70
ENDCHAR
STARTCHAR beta
ENCODING 946
SWIDTH 1152 0
DWIDTH 12 0
BBX 6 9 2 -2
BITMAP
3C
24
4C
48
48
88
D8
A0
80
ENDCHAR
STARTCHAR gamma
ENCODING 947
SWIDTH 1152 0
DWIDTH 12 0
BBX 4 7 3 -2
BITMAP
10
A0
A0
C0
80
80
80
ENDCHAR
STARTCHAR delta
ENCODING 948
SWIDTH 1152 0
DWIDTH 12 0
BBX 6 8 2 -1
BITMAP
3C
20
10
E8
88
88
90
60
ENDCHAR
STARTCHAR epsilon
ENCODING 949
SWIDTH 1152 0
DWIDTH 12 0
BBX 4 6 3 -1
BITMAP
70
80
60
80
80
40
ENDCHAR
STARTCHAR zeta
ENCODING 950
SWIDTH 1152 0
DWIDTH 12 0
BBX 5 10 2 -3
BITMAP
38
08
10
20
40
80
80
60
00
20
ENDCHAR
STARTCHAR eta
ENCODING 951
SWIDTH 1152 0
DWIDTH 12 0
BBX 5 5 3 0
BITMAP
30
C8
90
90
10
ENDCHAR
STARTCHAR theta
ENCODING 952
SWIDTH 1152 0
DWIDTH 12 0
BBX 5 8 2 -1
BITMAP
38
48
48
78
88
90
90
60
ENDCHAR
STARTCHAR iota
ENCODING 953
SWIDTH 1152 0
DWIDTH 12 0
BBX 2 5 4 0
BITMAP
40
40
80
80
80
ENDCHAR
STARTCHAR kappa
ENCODING 954
SWIDTH 1152 0
DWIDTH 12 0
BBX 5 5 2 0
BITMAP
08
50
60
A0
10
ENDCHAR
STARTCHAR lambda
ENCODING 955
SWIDTH 1152 0
DWIDTH 12 0
BBX 4 6 3 0
BITMAP
20
10
30
50
90
80
ENDCHAR
STARTCHAR mu
ENCODING 956
SWIDTH 1152 0
DWIDTH 12 0
BBX 6 7 2 -2
BITMAP
24
44
48
48
B8
80
80
ENDCHAR
STARTCHAR nu
ENCODING 957
SWIDTH 1152 0
DWIDTH 12 0
BBX 4 5 3 0
BITMAP
10
A0
A0
C0
C0
ENDCHAR
STARTCHAR xi
ENCODING 958
SWIDTH 1152 0
DWIDTH 12 0
BBX 6 9 2 -2
BITMAP
3C
20
20
10
E0
80
60
20
20
ENDCHAR
STARTCHAR omicron
ENCODING 959
SWIDTH 1152 0
DWIDTH 12 0
BBX 5 6 2 -1
BITMAP
38
48
88
88
50
20
ENDCHAR
STARTCHAR pi
ENCODING 960
SWIDTH 1152 0
DWIDTH 12 0
BBX 4 4 3 1
BITMAP
70
90
90
90
ENDCHAR
STARTCHAR rho
ENCODING 961
SWIDTH 1152 0
DWIDTH 12 0
BBX 6 7 2 -2
BITMAP
18
24
44
48
68
90
80
ENDCHAR
STARTCHAR sigma
ENCODING 963
SWIDTH 1152 0
DWIDTH 12 0
BBX 6 6 2 -1
BITMAP
3C
48
88
88
90
60
ENDCHAR
STARTCHAR tau
ENCODING 964
SWIDTH 1152 0
DWIDTH 12 0
BBX 4 5 3 0
BITMAP
F0
40
40
80
80
ENDCHAR
STARTCHAR upsilon
ENCODING 965
SWIDTH 1152 0
DWIDTH 12 0
BBX 5 5 2 0
BITMAP
40
48
88
90
70
ENDCHAR
STARTCHAR phi
ENCODING 966
SWIDTH 1152 0
DWIDTH 12 0
BBX 6 7 2 -1
BITMAP
08
74
A4
A4
A8
70
40
ENDCHAR
STARTCHAR chi
ENCODING 967
SWIDTH 1152 0
DWIDTH 12 0
BBX 4 5 3 0
BITMAP
50
60
20
E0
90
ENDCHAR
STARTCHAR psi
ENCODING 968
SWIDTH 1152 0
DWIDTH 12 0
BBX 7 7 1 -2
BITMAP
4A
52
94
94
6C
30
20
ENDCHAR
STARTCHAR omega
ENCODING 969
SWIDTH 1152 0
DWIDTH 12 0
BBX 6 5 2 0
BITMAP
44
94
A4
A4
D8
ENDCHAR
STARTCHAR afii10023
ENCODING 1025
SWIDTH 1152 0
DWIDTH 12 0
BBX 5 8 2 0
BITMAP
48
00
F8
80
F8
80
80
F8
ENDCHAR
STARTCHAR afii10017
ENCODING 1040
SWIDTH 1152 0
DWIDTH 12 0
BBX 6 7 2 0
BITMAP
10
30
50
48
78
88
84
ENDCHAR
STARTCHAR afii10018
ENCODING 1041
SWIDTH 1152 0
DWIDTH 12 0
BBX 5 7 2 0
BITMAP
F8
80
80
F0
88
88
F8
ENDCHAR
STARTCHAR afii10019
ENCODING 1042
SWIDTH 1152 0
DWIDTH 12 0
BBX 6 7 2 0
BITMAP
F8
84
88
F8
84
84
88
ENDCHAR
STARTCHAR afii10020
ENCODING 1043
SWIDTH 1152 0
DWIDTH 12 0
BBX 4 7 3 0
BITMAP
F0
80
80
80
80
80
80
ENDCHAR
STARTCHAR afii10021
ENCODING 1044
SWIDTH 1152 0
DWIDTH 12 0
BBX 8 9 1 -2
BITMAP
3E
22
22
22
22
22
FF
81
81
ENDCHAR
STARTCHAR afii10022
ENCODING 1045
SWIDTH 1152 0
DWIDTH 12 0
BBX 5 7 2 0
BITMAP
F8
80
80
F8
80
80
F8
ENDCHAR
STARTCHAR afii10024
ENCODING 1046
SWIDTH 1152 0
DWIDTH 12 0
BBX 8 7 0 0
BITMAP
49
4A
2A
7F
49
89
08
ENDCHAR
STARTCHAR afii10025
ENCODING 1047
SWIDTH 1152 0
DWIDTH 12 0
BBX 6 7 2 0
BITMAP
78
84
88
18
04
84
68
ENDCHAR
STARTCHAR afii10026
ENCODING 1048
SWIDTH 1152 0
DWIDTH 12 0
BBX 6 7 2 0
BITMAP
84
9C
94
A4
C4
C4
84
ENDCHAR
STARTCHAR afii10027
ENCODING 1049
SWIDTH 1152 0
DWIDTH 12 0
BBX 6 8 2 0
BITMAP
48
30
84
9C
A4
A4
C4
84
ENDCHAR
STARTCHAR afii10028
ENCODING 1050
SWIDTH 1152 0
DWIDTH 12 0
BBX 5 7 2 0
BITMAP
88
90
90
F0
88
88
88
ENDCHAR
STARTCHAR afii10029
ENCODING 1051
SWIDTH 1152 0
DWIDTH 12 0
BBX 6 7 2 0
BITMAP
7C
84
84
84
84
84
84
ENDCHAR
STARTCHAR afii10030
ENCODING 1052
SWIDTH 1152 0
DWIDTH 12 0
BBX 8 7 1 0
BITMAP
81
C3
C5
A5
A9
99
99
ENDCHAR
STARTCHAR afii10031
ENCODING 1053
SWIDTH 1152 0
DWIDTH 12 0
BBX 6 7 2 0
BITMAP
84
84
84
FC
84
84
84
ENDCHAR
STARTCHAR afii10032
ENCODING 1054
SWIDTH 1152 0
DWIDTH 12 0
BBX 6 7 2 0
BITMAP
78
CC
84
84
84
CC
78
ENDCHAR
STARTCHAR afii10033
ENCODING 1055
SWIDTH 1152 0
DWIDTH 12 0
BBX 6 7 2 0
BITMAP
FC
84
84
84
84
84
84
ENDCHAR
STARTCHAR afii10034
ENCODING 1056
SWIDTH 1152 0
DWIDTH 12 0
BBX 6 7 2 0
BITMAP
F8
84
84
88
F0
80
80
ENDCHAR
STARTCHAR afii10035
ENCODING 1057
SWIDTH 1152 0
DWIDTH 12 0
BBX 6 7 2 0
BITMAP
78
84
80
80
80
84
78
ENDCHAR
STARTCHAR afii10036
ENCODING 1058
SWIDTH 1152 0
DWIDTH 12 0
BBX 5 7 3 0
BITMAP
F8
20
20
20
20
20
20
ENDCHAR
STARTCHAR afii10037
ENCODING 1059
SWIDTH 1152 0
DWIDTH 12 0
BBX 6 7 2 0
BITMAP
84
48
48
50
30
20
20
ENDCHAR
STARTCHAR afii10038
ENCODING 1060
SWIDTH 1152 0
DWIDTH 12 0
BBX 8 7 1 0
BITMAP
7C
D2
91
91
91
56
38
ENDCHAR
STARTCHAR afii10039
ENCODING 1061
SWIDTH 1152 0
DWIDTH 12 0
BBX 4 5 3 1
BITMAP
90
60
40
60
90
ENDCHAR
STARTCHAR afii10040
ENCODING 1062
SWIDTH 1152 0
DWIDTH 12 0
BBX 6 9 2 -2
BITMAP
88
88
88
88
88
88
FC
04
04
ENDCHAR
STARTCHAR afii10041
ENCODING 1063
SWIDTH 1152 0
DWIDTH 12 0
BBX 5 7 2 0
BITMAP
88
88
88
88
78
08
08
ENDCHAR
STARTCHAR afii10042
ENCODING 1064
SWIDTH 1152 0
DWIDTH 12 0
BBX 6 7 2 0
BITMAP
A4
A4
A4
A4
A4
A4
FC
ENDCHAR
STARTCHAR afii10043
ENCODING 1065
SWIDTH 1152 0
DWIDTH 12 0
BBX 8 9 1 -2
BITMAP
92
92
92
92
92
92
FF
01
01
ENDCHAR
STARTCHAR afii10044
ENCODING 1066
SWIDTH 1152 0
DWIDTH 12 0
BBX 6 7 2 0
BITMAP
C0
40
40
7C
44
44
7C
ENDCHAR
STARTCHAR afii10045
ENCODING 1067
SWIDTH 1152 0
DWIDTH 12 0
BBX 6 7 2 0
BITMAP
84
84
84
E4
94
94
A4
ENDCHAR
STARTCHAR afii10046
ENCODING 1068
SWIDTH 1152 0
DWIDTH 12 0
BBX 5 7 2 0
BITMAP
80
80
80
F8
88
88
88
ENDCHAR
STARTCHAR afii10047
ENCODING 1069
SWIDTH 1152 0
DWIDTH 12 0
BBX 6 7 2 0
BITMAP
F8
84
04
3C
04
84
58
ENDCHAR
STARTCHAR afii10048
ENCODING 1070
SWIDTH 1152 0
DWIDTH 12 0
BBX 8 8 1 -1
BITMAP
9E
A1
C1
C1
C1
C1
B6
0C
ENDCHAR
STARTCHAR afii10049
ENCODING 1071
SWIDTH 1152 0
DWIDTH 12 0
BBX 6 7 2 0
BITMAP
7C
84
84
7C
C4
84
04
ENDCHAR
STARTCHAR afii10065
ENCODING 1072
SWIDTH 1152 0
DWIDTH 12 0
BBX 4 6 2 -1
BITMAP
70
90
30
D0
90
60
ENDCHAR
STARTCHAR afii10066
ENCODING 1073
SWIDTH 1152 0
DWIDTH 12 0
BBX 5 7 3 0
BITMAP
70
80
B0
C8
88
88
50
ENDCHAR
STARTCHAR afii10067
ENCODING 1074
SWIDTH 1152 0
DWIDTH 12 0
BBX 4 5 3 0
BITMAP
E0
A0
E0
90
90
ENDCHAR
STARTCHAR afii10068
ENCODING 1075
SWIDTH 1152 0
DWIDTH 12 0
BBX 3 5 3 0
BITMAP
E0
80
80
80
80
ENDCHAR
STARTCHAR afii10069
ENCODING 1076
SWIDTH 1152 0
DWIDTH 12 0
BBX 6 7 2 -2
BITMAP
78
88
88
88
FC
84
84
ENDCHAR
STARTCHAR afii10070
ENCODING 1077
SWIDTH 1152 0
DWIDTH 12 0
BBX 5 5 2 0
BITMAP
F0
88
F8
80
40
ENDCHAR
STARTCHAR afii10072
ENCODING 1078
SWIDTH 1152 0
DWIDTH 12 0
BBX 6 5 1 0
BITMAP
54
54
7C
94
10
ENDCHAR
STARTCHAR afii10073
ENCODING 1079
SWIDTH 1152 0
DWIDTH 12 0
BBX 4 6 3 0
BITMAP
60
90
10
10
90
70
ENDCHAR
STARTCHAR afii10074
ENCODING 1080
SWIDTH 1152 0
DWIDTH 12 0
BBX 4 5 3 0
BITMAP
90
90
F0
90
90
ENDCHAR
STARTCHAR afii10075
ENCODING 1081
SWIDTH 1152 0
DWIDTH 12 0
BBX 4 6 3 0
BITMAP
60
90
90
F0
90
90
ENDCHAR
STARTCHAR afii10076
ENCODING 1082
SWIDTH 1152 0
DWIDTH 12 0
BBX 4 5 3 0
BITMAP
90
A0
E0
90
90
ENDCHAR
STARTCHAR afii10077
ENCODING 1083
SWIDTH 1152 0
DWIDTH 12 0
BBX 5 6 2 -1
BITMAP
78
48
48
48
88
80
ENDCHAR
STARTCHAR afii10078
ENCODING 1084
SWIDTH 1152 0
DWIDTH 12 0
BBX 6 5 2 0
BITMAP
84
CC
D4
B4
84
ENDCHAR
STARTCHAR afii10079
ENCODING 1085
SWIDTH 1152 0
DWIDTH 12 0
BBX 4 5 3 0
BITMAP
90
90
F0
90
90
ENDCHAR
STARTCHAR afii10080
ENCODING 1086
SWIDTH 1152 0
DWIDTH 12 0
BBX 6 5 2 0
BITMAP
78
84
84
84
48
ENDCHAR
STARTCHAR afii10081
ENCODING 1087
SWIDTH 1152 0
DWIDTH 12 0
BBX 4 6 3 -1
BITMAP
F0
90
90
90
90
80
ENDCHAR
STARTCHAR afii10082
ENCODING 1088
SWIDTH 1152 0
DWIDTH 12 0
BBX 5 8 3 -2
BITMAP
B0
D8
88
08
88
F0
80
80
ENDCHAR
STARTCHAR afii10083
ENCODING 1089
SWIDTH 1152 0
DWIDTH 12 0
BBX 5 6 3 -1
BITMAP
70
88
80
80
48
30
ENDCHAR
STARTCHAR afii10084
ENCODING 1090
SWIDTH 1152 0
DWIDTH 12 0
BBX 5 5 2 0
BITMAP
F8
20
20
20
20
ENDCHAR
STARTCHAR afii10085
ENCODING 1091
SWIDTH 1152 0
DWIDTH 12 0
BBX 4 6 3 -2
BITMAP
90
A0
60
20
40
40
ENDCHAR
STARTCHAR afii10086
ENCODING 1092
SWIDTH 1152 0
DWIDTH 12 0
BBX 8 7 1 -1
BITMAP
10
7E
91
91
91
5A
34
ENDCHAR
STARTCHAR afii10087
ENCODING 1093
SWIDTH 1152 0
DWIDTH 12 0
BBX 4 5 3 0
BITMAP
90
60
40
A0
90
ENDCHAR
STARTCHAR afii10088
ENCODING 1094
SWIDTH 1152 0
DWIDTH 12 0
BBX 4 8 3 -2
BITMAP
10
90
90
90
90
F0
10
10
ENDCHAR
STARTCHAR afii10089
ENCODING 1095
SWIDTH 1152 0
DWIDTH 12 0
BBX 4 5 3 0
BITMAP
90
90
90
70
10
ENDCHAR
STARTCHAR afii10090
ENCODING 1096
SWIDTH 1152 0
DWIDTH 12 0
BBX 6 6 2 0
BITMAP
14
94
94
94
94
FC
ENDCHAR
STARTCHAR afii10091
ENCODING 1097
SWIDTH 1152 0
DWIDTH 12 0
BBX 6 8 2 -2
BITMAP
04
A4
A4
A4
A4
FC
04
04
ENDCHAR
STARTCHAR afii10092
ENCODING 1098
SWIDTH 1152 0
DWIDTH 12 0
BBX 6 5 2 0
BITMAP
E0
20
3C
24
3C
ENDCHAR
STARTCHAR afii10093
ENCODING 1099
SWIDTH 1152 0
DWIDTH 12 0
BBX 6 5 2 0
BITMAP
84
84
E4
94
A4
ENDCHAR
STARTCHAR afii10094
ENCODING 1100
SWIDTH 1152 0
DWIDTH 12 0
BBX 4 6 3 -1
BITMAP
80
80
F0
90
90
60
ENDCHAR
STARTCHAR afii10095
ENCODING 1101
SWIDTH 1152 0
DWIDTH 12 0
BBX 4 5 3 0
BITMAP
E0
10
70
10
E0
ENDCHAR
STARTCHAR afii10096
ENCODING 1102
SWIDTH 1152 0
DWIDTH 12 0
BBX 6 6 2 -1
BITMAP
B8
C4
C4
C4
A8
10
ENDCHAR
STARTCHAR afii10097
ENCODING 1103
SWIDTH 1152 0
DWIDTH 12 0
BBX 4 5 3 0
BITMAP
F0
90
90
F0
90
ENDCHAR
STARTCHAR afii10071
ENCODING 1105
SWIDTH 1152 0
DWIDTH 12 0
BBX 5 7 2 0
BITMAP
30
00
70
88
F8
80
40
ENDCHAR
STARTCHAR afii00208
ENCODING 8213
SWIDTH 1152 0
DWIDTH 12 0
BBX 10 1 0 3
BITMAP
FFC0
ENDCHAR
STARTCHAR quoteleft
ENCODING 8216
SWIDTH 1152 0
DWIDTH 12 0
BBX 1 1 6 6
BITMAP
80
ENDCHAR
STARTCHAR quoteright
ENCODING 8217
SWIDTH 1152 0
DWIDTH 12 0
BBX 1 2 3 6
BITMAP
80
80
ENDCHAR
STARTCHAR quotedblleft
ENCODING 8220
SWIDTH 1152 0
DWIDTH 12 0
BBX 4 3 4 5
BITMAP
50
90
40
ENDCHAR
STARTCHAR quotedblright
ENCODING 8221
SWIDTH 1152 0
DWIDTH 12 0
BBX 1 1 2 7
BITMAP
80
ENDCHAR
STARTCHAR dagger
ENCODING 8224
SWIDTH 1152 0
DWIDTH 12 0
BBX 5 10 3 -2
BITMAP
20
20
20
F8
20
20
20
20
20
20
ENDCHAR
STARTCHAR daggerdbl
ENCODING 8225
SWIDTH 1152 0
DWIDTH 12 0
BBX 5 10 2 -2
BITMAP
20
20
F8
F8
20
20
20
20
20
20
ENDCHAR
STARTCHAR twodotenleader
ENCODING 8229
SWIDTH 1152 0
DWIDTH 12 0
BBX 6 1 2 3
BITMAP
84
ENDCHAR
STARTCHAR ellipsis
ENCODING 8230
SWIDTH 1152 0
DWIDTH 12 0
BBX 8 1 1 3
BITMAP
91
ENDCHAR
STARTCHAR perthousand
ENCODING 8240
SWIDTH 1152 0
DWIDTH 12 0
BBX 9 10 1 -2
BITMAP
C000
A400
A800
B000
6000
3F80
5680
9680
1A80
0100
ENDCHAR
STARTCHAR minute
ENCODING 8242
SWIDTH 1152 0
DWIDTH 12 0
BBX 2 2 4 6
BITMAP
40
80
ENDCHAR
STARTCHAR second
ENCODING 8243
SWIDTH 1152 0
DWIDTH 12 0
BBX 4 2 3 6
BITMAP
50
A0
ENDCHAR
STARTCHAR uni203B
ENCODING 8251
SWIDTH 1152 0
DWIDTH 12 0
BBX 6 7 2 -1
BITMAP
34
78
FC
EC
70
F8
84
ENDCHAR
STARTCHAR uni2074
ENCODING 8308
SWIDTH 1152 0
DWIDTH 12 0
BBX 4 5 3 3
BITMAP
20
60
A0
F0
20
ENDCHAR
STARTCHAR uni207F
ENCODING 8319
SWIDTH 1152 0
DWIDTH 12 0
BBX 4 4 3 3
BITMAP
20
D0
90
90
ENDCHAR
STARTCHAR uni2081
ENCODING 8321
SWIDTH 1152 0
DWIDTH 12 0
BBX 2 5 4 -2
BITMAP
40
C0
40
40
40
ENDCHAR
STARTCHAR uni2082
ENCODING 8322
SWIDTH 1152 0
DWIDTH 12 0
BBX 3 5 3 -2
BITMAP
60
20
20
C0
60
ENDCHAR
STARTCHAR uni2083
ENCODING 8323
SWIDTH 1152 0
DWIDTH 12 0
BBX 2 4 4 -1
BITMAP
C0
40
40
40
ENDCHAR
STARTCHAR uni2084
ENCODING 8324
SWIDTH 1152 0
DWIDTH 12 0
BBX 4 5 3 -2
BITMAP
20
60
A0
F0
20
ENDCHAR
STARTCHAR Euro
ENCODING 8364
SWIDTH 1152 0
DWIDTH 12 0
BBX 7 8 0 -1
BITMAP
1C
22
40
FC
FC
40
22
1C
ENDCHAR
STARTCHAR uni2103
ENCODING 8451
SWIDTH 1152 0
DWIDTH 12 0
BBX 8 8 1 0
BITMAP
E0
EE
31
20
20
20
11
0E
ENDCHAR
STARTCHAR uni2109
ENCODING 8457
SWIDTH 1152 0
DWIDTH 12 0
BBX 8 7 1 0
BITMAP
DF
50
90
1E
10
10
10
ENDCHAR
STARTCHAR afii61289
ENCODING 8467
SWIDTH 1152 0
DWIDTH 12 0
BBX 4 8 3 -1
BITMAP
60
90
A0
A0
A0
50
D0
20
ENDCHAR
STARTCHAR afii61352
ENCODING 8470
SWIDTH 1152 0
DWIDTH 12 0
BBX 10 7 0 0
BITMAP
8800
8800
CB00
AC80
AC80
9C80
8B40
ENDCHAR
STARTCHAR uni2121
ENCODING 8481
SWIDTH 1152 0
DWIDTH 12 0
BBX 9 9 0 -1
BITMAP
0080
F880
2080
2E80
2A80
2F80
2880
2800
0600
ENDCHAR
STARTCHAR trademark
ENCODING 8482
SWIDTH 1152 0
DWIDTH 12 0
BBX 9 7 0 0
BITMAP
FC80
2480
2480
2480
2780
2680
2480
ENDCHAR
STARTCHAR uni2126
ENCODING 8486
SWIDTH 1152 0
DWIDTH 12 0
BBX 6 7 2 0
BITMAP
78
CC
84
84
88
70
FC
ENDCHAR
STARTCHAR uni212B
ENCODING 8491
SWIDTH 1152 0
DWIDTH 12 0
BBX 6 8 2 0
BITMAP
30
30
00
30
50
48
FC
84
ENDCHAR
STARTCHAR onethird
ENCODING 8531
SWIDTH 1152 0
DWIDTH 12 0
BBX 6 7 2 -1
BITMAP
80
90
AC
A4
44
04
04
ENDCHAR
STARTCHAR twothirds
ENCODING 8532
SWIDTH 1152 0
DWIDTH 12 0
BBX 7 8 1 -1
BITMAP
60
A4
48
8E
F2
12
02
06
ENDCHAR
STARTCHAR oneeighth
ENCODING 8539
SWIDTH 1152 0
DWIDTH 12 0
BBX 7 7 2 -1
BITMAP
80
90
AC
B4
4C
12
0C
ENDCHAR
STARTCHAR threeeighths
ENCODING 8540
SWIDTH 1152 0
DWIDTH 12 0
BBX 8 8 1 -1
BITMAP
C0
44
48
4F
15
27
25
07
ENDCHAR
STARTCHAR fiveeighths
ENCODING 8541
SWIDTH 1152 0
DWIDTH 12 0
BBX 8 8 1 -1
BITMAP
E0
84
E8
2F
D5
16
25
27
ENDCHAR
STARTCHAR seveneighths
ENCODING 8542
SWIDTH 1152 0
DWIDTH 12 0
BBX 6 8 2 -1
BITMAP
C0
40
90
A0
BC
4C
54
14
ENDCHAR
STARTCHAR uni2160
ENCODING 8544
SWIDTH 1152 0
DWIDTH 12 0
BBX 1 7 5 0
BITMAP
80
80
80
80
80
80
80
ENDCHAR
STARTCHAR uni2161
ENCODING 8545
SWIDTH 1152 0
DWIDTH 12 0
BBX 4 7 3 0
BITMAP
90
90
90
90
90
90
90
ENDCHAR
STARTCHAR uni2162
ENCODING 8546
SWIDTH 1152 0
DWIDTH 12 0
BBX 6 7 2 0
BITMAP
94
94
94
94
94
94
94
ENDCHAR
STARTCHAR uni2163
ENCODING 8547
SWIDTH 1152 0
DWIDTH 12 0
BBX 6 7 2 0
BITMAP
84
A4
A8
A8
98
90
80
ENDCHAR
STARTCHAR uni2164
ENCODING 8548
SWIDTH 1152 0
DWIDTH 12 0
BBX 4 6 3 1
BITMAP
90
90
A0
A0
60
60
ENDCHAR
STARTCHAR uni2165
ENCODING 8549
SWIDTH 1152 0
DWIDTH 12 0
BBX 6 7 2 0
BITMAP
84
94
94
64
64
24
24
ENDCHAR
STARTCHAR uni2166
ENCODING 8550
SWIDTH 1152 0
DWIDTH 12 0
BBX 8 7 1 0
BITMAP
85
95
55
55
65
25
25
ENDCHAR
STARTCHAR uni2167
ENCODING 8551
SWIDTH 1152 0
DWIDTH 12 0
BBX 8 7 1 0
BITMAP
8B
AB
AB
AB
CB
4B
4B
ENDCHAR
STARTCHAR uni2168
ENCODING 8552
SWIDTH 1152 0
DWIDTH 12 0
BBX 6 7 2 0
BITMAP
A4
A8
98
90
98
A8
A4
ENDCHAR
STARTCHAR uni2169
ENCODING 8553
SWIDTH 1152 0
DWIDTH 12 0
BBX 4 7 3 0
BITMAP
90
A0
60
40
60
A0
90
ENDCHAR
STARTCHAR uni2170
ENCODING 8560
SWIDTH 1152 0
DWIDTH 12 0
BBX 1 7 4 0
BITMAP
80
00
00
80
80
80
80
ENDCHAR
STARTCHAR uni2171
ENCODING 8561
SWIDTH 1152 0
DWIDTH 12 0
BBX 4 7 3 0
BITMAP
90
00
00
90
90
90
90
ENDCHAR
STARTCHAR uni2172
ENCODING 8562
SWIDTH 1152 0
DWIDTH 12 0
BBX 6 7 2 0
BITMAP
94
00
00
94
94
94
94
ENDCHAR
STARTCHAR uni2173
ENCODING 8563
SWIDTH 1152 0
DWIDTH 12 0
BBX 5 7 2 0
BITMAP
80
00
00
A0
A8
98
80
ENDCHAR
STARTCHAR uni2174
ENCODING 8564
SWIDTH 1152 0
DWIDTH 12 0
BBX 4 4 3 1
BITMAP
90
A0
A0
60
ENDCHAR
STARTCHAR uni2175
ENCODING 8565
SWIDTH 1152 0
DWIDTH 12 0
BBX 6 7 2 0
BITMAP
04
00
84
A4
A4
44
44
ENDCHAR
STARTCHAR uni2176
ENCODING 8566
SWIDTH 1152 0
DWIDTH 12 0
BBX 7 7 2 0
BITMAP
0A
00
00
0C
CC
CC
0C
ENDCHAR
STARTCHAR uni2177
ENCODING 8567
SWIDTH 1152 0
DWIDTH 12 0
BBX 8 7 1 0
BITMAP
0D
00
00
AD
AD
CD
4D
ENDCHAR
STARTCHAR uni2178
ENCODING 8568
SWIDTH 1152 0
DWIDTH 12 0
BBX 5 7 2 0
BITMAP
80
00
00
80
98
98
80
ENDCHAR
STARTCHAR uni2179
ENCODING 8569
SWIDTH 1152 0
DWIDTH 12 0
BBX 4 4 3 0
BITMAP
90
60
60
90
ENDCHAR
STARTCHAR arrowleft
ENCODING 8592
SWIDTH 1152 0
DWIDTH 12 0
BBX 9 3 1 1
BITMAP
FF80
8000
4000
ENDCHAR
STARTCHAR arrowup
ENCODING 8593
SWIDTH 1152 0
DWIDTH 12 0
BBX 1 10 4 -2
BITMAP
80
80
80
80
80
80
80
80
80
80
ENDCHAR
STARTCHAR arrowright
ENCODING 8594
SWIDTH 1152 0
DWIDTH 12 0
BBX 9 4 0 1
BITMAP
0100
FF80
0080
0100
ENDCHAR
STARTCHAR arrowdown
ENCODING 8595
SWIDTH 1152 0
DWIDTH 12 0
BBX 3 10 4 -2
BITMAP
40
40
40
40
40
40
40
40
E0
40
ENDCHAR
STARTCHAR arrowboth
ENCODING 8596
SWIDTH 1152 0
DWIDTH 12 0
BBX 8 3 1 1
BITMAP
FF
01
02
ENDCHAR
STARTCHAR arrowupdn
ENCODING 8597
SWIDTH 1152 0
DWIDTH 12 0
BBX 2 8 4 -1
BITMAP
80
80
80
80
80
80
80
C0
ENDCHAR
STARTCHAR uni2196
ENCODING 8598
SWIDTH 1152 0
DWIDTH 12 0
BBX 6 6 2 0
BITMAP
80
40
20
10
08
04
ENDCHAR
STARTCHAR uni2197
ENCODING 8599
SWIDTH 1152 0
DWIDTH 12 0
BBX 6 6 2 0
BITMAP
04
08
10
20
40
80
ENDCHAR
STARTCHAR uni2198
ENCODING 8600
SWIDTH 1152 0
DWIDTH 12 0
BBX 6 6 2 0
BITMAP
80
40
20
10
08
04
ENDCHAR
STARTCHAR uni2199
ENCODING 8601
SWIDTH 1152 0
DWIDTH 12 0
BBX 6 6 2 0
BITMAP
04
08
10
20
C0
C0
ENDCHAR
STARTCHAR arrowdblright
ENCODING 8658
SWIDTH 1152 0
DWIDTH 12 0
BBX 9 4 0 1
BITMAP
FF00
0080
FF80
0100
ENDCHAR
STARTCHAR arrowdblboth
ENCODING 8660
SWIDTH 1152 0
DWIDTH 12 0
BBX 8 5 1 1
BITMAP
20
42
FF
FF
42
ENDCHAR
STARTCHAR universal
ENCODING 8704
SWIDTH 1152 0
DWIDTH 12 0
BBX 6 6 2 0
BITMAP
84
78
88
50
50
30
ENDCHAR
STARTCHAR partialdiff
ENCODING 8706
SWIDTH 1152 0
DWIDTH 12 0
BBX 5 8 2 -1
BITMAP
10
08
08
08
78
50
90
60
ENDCHAR
STARTCHAR existential
ENCODING 8707
SWIDTH 1152 0
DWIDTH 12 0
BBX 6 8 2 -1
BITMAP
7C
04
04
04
7C
04
04
FC
ENDCHAR
STARTCHAR gradient
ENCODING 8711
SWIDTH 1152 0
DWIDTH 12 0
BBX 8 7 1 0
BITMAP
FF
82
82
44
28
28
10
ENDCHAR
STARTCHAR element
ENCODING 8712
SWIDTH 1152 0
DWIDTH 12 0
BBX 8 6 1 0
BITMAP
3E
C0
FF
80
80
7F
ENDCHAR
STARTCHAR suchthat
ENCODING 8715
SWIDTH 1152 0
DWIDTH 12 0
BBX 8 6 1 0
BITMAP
FC
02
FF
01
02
04
ENDCHAR
STARTCHAR product
ENCODING 8719
SWIDTH 1152 0
DWIDTH 12 0
BBX 8 10 1 -2
BITMAP
FF
42
42
42
42
42
42
42
42
E7
ENDCHAR
STARTCHAR summation
ENCODING 8721
SWIDTH 1152 0
DWIDTH 12 0
BBX 9 9 0 -1
BITMAP
FF80
4080
2080
1880
0800
1000
2080
4080
7F80
ENDCHAR
STARTCHAR radical
ENCODING 8730
SWIDTH 1152 0
DWIDTH 12 0
BBX 9 9 1 -1
BITMAP
0F80
1000
1000
1000
2000
A000
A000
4000
4000
ENDCHAR
STARTCHAR proportional
ENCODING 8733
SWIDTH 1152 0
DWIDTH 12 0
BBX 7 4 1 1
BITMAP
F6
98
98
74
ENDCHAR
STARTCHAR infinity
ENCODING 8734
SWIDTH 1152 0
DWIDTH 12 0
BBX 8 4 1 1
BITMAP
F6
99
89
76
ENDCHAR
STARTCHAR angle
ENCODING 8736
SWIDTH 1152 0
DWIDTH 12 0
BBX 6 7 2 0
BITMAP
04
08
10
20
40
80
FC
ENDCHAR
STARTCHAR uni2225
ENCODING 8741
SWIDTH 1152 0
DWIDTH 12 0
BBX 4 8 3 -1
BITMAP
90
90
90
90
90
90
90
90
ENDCHAR
STARTCHAR logicaland
ENCODING 8743
SWIDTH 1152 0
DWIDTH 12 0
BBX 6 5 2 0
BITMAP
30
50
88
88
04
ENDCHAR
STARTCHAR logicalor
ENCODING 8744
SWIDTH 1152 0
DWIDTH 12 0
BBX 5 4 2 1
BITMAP
88
88
50
30
ENDCHAR
STARTCHAR intersection
ENCODING 8745
SWIDTH 1152 0
DWIDTH 12 0
BBX 6 8 2 -1
BITMAP
78
84
84
84
84
84
84
84
ENDCHAR
STARTCHAR union
ENCODING 8746
SWIDTH 1152 0
DWIDTH 12 0
BBX 6 8 2 -1
BITMAP
84
84
84
84
84
84
84
48
ENDCHAR
STARTCHAR integral
ENCODING 8747
SWIDTH 1152 0
DWIDTH 12 0
BBX 2 8 4 -1
BITMAP
40
80
80
80
40
40
40
C0
ENDCHAR
STARTCHAR uni222C
ENCODING 8748
SWIDTH 1152 0
DWIDTH 12 0
BBX 5 9 2 -2
BITMAP
F0
90
50
48
48
48
28
40
08
ENDCHAR
STARTCHAR uni222E
ENCODING 8750
SWIDTH 1152 0
DWIDTH 12 0
BBX 3 8 3 -1
BITMAP
20
40
40
E0
E0
40
40
80
ENDCHAR
STARTCHAR therefore
ENCODING 8756
SWIDTH 1152 0
DWIDTH 12 0
BBX 6 5 2 1
BITMAP
10
00
00
00
84
ENDCHAR
STARTCHAR uni2235
ENCODING 8757
SWIDTH 1152 0
DWIDTH 12 0
BBX 6 5 2 1
BITMAP
84
00
00
00
20
ENDCHAR
STARTCHAR similar
ENCODING 8764
SWIDTH 1152 0
DWIDTH 12 0
BBX 6 2 2 2
BITMAP
E0
1C
ENDCHAR
STARTCHAR uni223D
ENCODING 8765
SWIDTH 1152 0
DWIDTH 12 0
BBX 9 4 1 1
BITMAP
7700
8880
8880
5100
ENDCHAR
STARTCHAR uni2252
ENCODING 8786
SWIDTH 1152 0
DWIDTH 12 0
BBX 6 6 2 0
BITMAP
40
00
FC
FC
00
08
ENDCHAR
STARTCHAR notequal
ENCODING 8800
SWIDTH 1152 0
DWIDTH 12 0
BBX 8 5 1 0
BITMAP
10
FF
FF
08
08
ENDCHAR
STARTCHAR equivalence
ENCODING 8801
SWIDTH 1152 0
DWIDTH 12 0
BBX 6 4 2 1
BITMAP
FC
FC
00
FC
ENDCHAR
STARTCHAR lessequal
ENCODING 8804
SWIDTH 1152 0
DWIDTH 12 0
BBX 6 6 2 0
BITMAP
04
38
C0
60
18
FC
ENDCHAR
STARTCHAR greaterequal
ENCODING 8805
SWIDTH 1152 0
DWIDTH 12 0
BBX 6 6 2 0
BITMAP
80
60
1C
18
60
FC
ENDCHAR
STARTCHAR uni226A
ENCODING 8810
SWIDTH 1152 0
DWIDTH 12 0
BBX 7 7 1 -1
BITMAP
1A
2C
D0
90
68
16
08
ENDCHAR
STARTCHAR uni226B
ENCODING 8811
SWIDTH 1152 0
DWIDTH 12 0
BBX 6 7 2 -1
BITMAP
B0
48
34
14
68
90
20
ENDCHAR
STARTCHAR propersubset
ENCODING 8834
SWIDTH 1152 0
DWIDTH 12 0
BBX 8 6 1 0
BITMAP
3F
40
80
80
40
3F
ENDCHAR
STARTCHAR propersuperset
ENCODING 8835
SWIDTH 1152 0
DWIDTH 12 0
BBX 8 5 1 1
BITMAP
F8
06
01
01
02
ENDCHAR
STARTCHAR reflexsubset
ENCODING 8838
SWIDTH 1152 0
DWIDTH 12 0
BBX 7 6 1 0
BITMAP
3E
40
80
80
60
7E
ENDCHAR
STARTCHAR reflexsuperset
ENCODING 8839
SWIDTH 1152 0
DWIDTH 12 0
BBX 7 6 1 0
BITMAP
F8
06
02
02
FC
7E
ENDCHAR
STARTCHAR uni2299
ENCODING 8857
SWIDTH 1152 0
DWIDTH 12 0
BBX 10 9 0 -1
BITMAP
1E00
2100
CC80
9E40
BF40
BF40
DEC0
6D80
1F00
ENDCHAR
STARTCHAR perpendicular
ENCODING 8869
SWIDTH 1152 0
DWIDTH 12 0
BBX 7 6 1 0
BITMAP
10
10
10
10
10
FE
ENDCHAR
STARTCHAR uni2312
ENCODING 8978
SWIDTH 1152 0
DWIDTH 12 0
BBX 6 2 2 6
BITMAP
38
C4
ENDCHAR
STARTCHAR uni2460
ENCODING 9312
SWIDTH 1152 0
DWIDTH 12 0
BBX 10 9 0 -2
BITMAP
3F00
C480
8C80
8440
8480
8480
8480
6500
1A00
ENDCHAR
STARTCHAR uni2461
ENCODING 9313
SWIDTH 1152 0
DWIDTH 12 0
BBX 10 10 0 -2
BITMAP
1E00
6D00
9280
8280
8440
8880
9080
5E80
2100
1E00
ENDCHAR
STARTCHAR uni2462
ENCODING 9314
SWIDTH 1152 0
DWIDTH 12 0
BBX 10 10 0 -2
BITMAP
1E00
6100
9C80
9280
8440
8280
9280
5280
2D00
1E00
ENDCHAR
STARTCHAR uni2463
ENCODING 9315
SWIDTH 1152 0
DWIDTH 12 0
BBX 10 9 0 -2
BITMAP
3F00
C480
8C80
9440
A480
BE80
8480
6500
1A00
ENDCHAR
STARTCHAR uni2464
ENCODING 9316
SWIDTH 1152 0
DWIDTH 12 0
BBX 10 9 0 -2
BITMAP
3F00
CE80
9080
9040
9E80
8280
9280
6D00
1200
ENDCHAR
STARTCHAR uni2465
ENCODING 9317
SWIDTH 1152 0
DWIDTH 12 0
BBX 10 10 0 -2
BITMAP
1E00
6100
8E80
9080
9C40
A280
A280
5680
2900
1E00
ENDCHAR
STARTCHAR uni2466
ENCODING 9318
SWIDTH 1152 0
DWIDTH 12 0
BBX 10 9 0 -2
BITMAP
3F00
DE80
8480
8440
8880
8880
8880
6100
1E00
ENDCHAR
STARTCHAR uni2467
ENCODING 9319
SWIDTH 1152 0
DWIDTH 12 0
BBX 10 10 0 -2
BITMAP
1E00
6100
9E80
9280
9640
9A80
A280
5680
2900
1E00
ENDCHAR
STARTCHAR uni2468
ENCODING 9320
SWIDTH 1152 0
DWIDTH 12 0
BBX 10 10 0 -2
BITMAP
1E00
6100
9E80
9280
9240
8E80
8280
4480
2900
1E00
ENDCHAR
STARTCHAR uni2469
ENCODING 9321
SWIDTH 1152 0
DWIDTH 12 0
BBX 9 9 0 -2
BITMAP
7F00
8280
BD80
9980
9980
9980
8680
4100
3E00
ENDCHAR
STARTCHAR uni246A
ENCODING 9322
SWIDTH 1152 0
DWIDTH 12 0
BBX 10 9 0 -2
BITMAP
3F00
D280
B680
9240
9280
9280
9280
6100
1E00
ENDCHAR
STARTCHAR uni246B
ENCODING 9323
SWIDTH 1152 0
DWIDTH 12 0
BBX 10 9 0 -2
BITMAP
3F00
C280
B180
9140
9280
9480
8780
6100
1E00
ENDCHAR
STARTCHAR uni246C
ENCODING 9324
SWIDTH 1152 0
DWIDTH 12 0
BBX 9 9 0 -2
BITMAP
7F00
8680
B980
9680
9180
9980
8680
4100
3E00
ENDCHAR
STARTCHAR uni246D
ENCODING 9325
SWIDTH 1152 0
DWIDTH 12 0
BBX 10 9 0 -2
BITMAP
3F00
C180
B780
9540
9780
9180
8080
6100
1E00
ENDCHAR
STARTCHAR uni246E
ENCODING 9326
SWIDTH 1152 0
DWIDTH 12 0
BBX 9 9 0 -2
BITMAP
7F00
8680
B880
9680
9180
9980
8680
4100
3E00
ENDCHAR
STARTCHAR uni2474
ENCODING 9332
SWIDTH 1152 0
DWIDTH 12 0
BBX 10 7 0 -1
BITMAP
4480
8C40
8440
8440
8480
8480
4400
ENDCHAR
STARTCHAR uni2475
ENCODING 9333
SWIDTH 1152 0
DWIDTH 12 0
BBX 10 8 0 -1
BITMAP
0C00
5280
8240
8440
8840
9080
9E80
4000
ENDCHAR
STARTCHAR uni2476
ENCODING 9334
SWIDTH 1152 0
DWIDTH 12 0
BBX 10 7 0 -1
BITMAP
5C80
9240
8440
8240
8280
9280
4C00
ENDCHAR
STARTCHAR uni2477
ENCODING 9335
SWIDTH 1152 0
DWIDTH 12 0
BBX 10 7 0 -1
BITMAP
4480
8C40
9440
A440
BE80
8480
4400
ENDCHAR
STARTCHAR uni2478
ENCODING 9336
SWIDTH 1152 0
DWIDTH 12 0
BBX 10 7 0 -1
BITMAP
5C80
9040
A040
9C40
8280
8280
4C00
ENDCHAR
STARTCHAR uni2479
ENCODING 9337
SWIDTH 1152 0
DWIDTH 12 0
BBX 10 7 0 -1
BITMAP
5E80
9040
9C40
A240
A280
9680
4800
ENDCHAR
STARTCHAR uni247A
ENCODING 9338
SWIDTH 1152 0
DWIDTH 12 0
BBX 10 7 0 -1
BITMAP
5E80
8440
8440
8840
8880
8880
4800
ENDCHAR
STARTCHAR uni247B
ENCODING 9339
SWIDTH 1152 0
DWIDTH 12 0
BBX 10 7 0 -1
BITMAP
4C80
9240
8C40
B240
A280
9E80
4000
ENDCHAR
STARTCHAR uni247C
ENCODING 9340
SWIDTH 1152 0
DWIDTH 12 0
BBX 10 7 0 -1
BITMAP
5C80
9240
9240
8E40
8280
8480
4800
ENDCHAR
STARTCHAR uni247D
ENCODING 9341
SWIDTH 1152 0
DWIDTH 12 0
BBX 10 8 0 -1
BITMAP
0600
5580
9540
9540
9540
9580
9680
4000
ENDCHAR
STARTCHAR uni247E
ENCODING 9342
SWIDTH 1152 0
DWIDTH 12 0
BBX 10 7 0 -1
BITMAP
5280
9240
9240
9240
9280
9280
4000
ENDCHAR
STARTCHAR uni247F
ENCODING 9343
SWIDTH 1152 0
DWIDTH 12 0
BBX 10 7 0 -1
BITMAP
5780
9540
9240
9440
9480
9480
4700
ENDCHAR
STARTCHAR uni2480
ENCODING 9344
SWIDTH 1152 0
DWIDTH 12 0
BBX 10 7 0 -1
BITMAP
5780
9140
9240
9140
9180
9580
4600
ENDCHAR
STARTCHAR uni2481
ENCODING 9345
SWIDTH 1152 0
DWIDTH 12 0
BBX 10 8 0 -1
BITMAP
0100
5180
9340
9540
9540
9780
9180
4100
ENDCHAR
STARTCHAR uni2482
ENCODING 9346
SWIDTH 1152 0
DWIDTH 12 0
BBX 10 7 0 -1
BITMAP
5780
9440
9440
9740
9180
9180
4600
ENDCHAR
STARTCHAR uni249C
ENCODING 9372
SWIDTH 1152 0
DWIDTH 12 0
BBX 10 7 0 -1
BITMAP
4C80
9440
8440
9C40
9280
8C80
4000
ENDCHAR
STARTCHAR uni249D
ENCODING 9373
SWIDTH 1152 0
DWIDTH 12 0
BBX 10 7 0 -1
BITMAP
5080
9040
AE40
A240
A280
9480
4800
ENDCHAR
STARTCHAR uni249E
ENCODING 9374
SWIDTH 1152 0
DWIDTH 12 0
BBX 10 7 0 -1
BITMAP
4080
9E40
9040
9040
9280
8C80
4000
ENDCHAR
STARTCHAR uni249F
ENCODING 9375
SWIDTH 1152 0
DWIDTH 12 0
BBX 10 7 0 -1
BITMAP
4280
8A40
B640
A240
A280
9680
4800
ENDCHAR
STARTCHAR uni24A0
ENCODING 9376
SWIDTH 1152 0
DWIDTH 12 0
BBX 10 7 0 -1
BITMAP
4080
9E40
9E40
9040
9280
8C80
4000
ENDCHAR
STARTCHAR uni24A1
ENCODING 9377
SWIDTH 1152 0
DWIDTH 12 0
BBX 10 7 0 -1
BITMAP
4480
8840
8C40
8840
8880
8880
4000
ENDCHAR
STARTCHAR uni24A2
ENCODING 9378
SWIDTH 1152 0
DWIDTH 12 0
BBX 10 7 0 -1
BITMAP
5E80
A240
A240
A240
9E80
9480
4800
ENDCHAR
STARTCHAR uni24A3
ENCODING 9379
SWIDTH 1152 0
DWIDTH 12 0
BBX 10 7 0 -1
BITMAP
5080
9440
9A40
9240
9280
9280
4000
ENDCHAR
STARTCHAR uni24A4
ENCODING 9380
SWIDTH 1152 0
DWIDTH 12 0
BBX 10 7 0 -1
BITMAP
4880
8040
8840
8840
8880
8880
4000
ENDCHAR
STARTCHAR uni24A5
ENCODING 9381
SWIDTH 1152 0
DWIDTH 12 0
BBX 10 7 0 -1
BITMAP
4080
8040
8840
8840
8880
8880
4800
ENDCHAR
STARTCHAR uni24A6
ENCODING 9382
SWIDTH 1152 0
DWIDTH 12 0
BBX 10 7 0 -1
BITMAP
5080
9040
9440
9840
9480
9280
4000
ENDCHAR
STARTCHAR uni24A7
ENCODING 9383
SWIDTH 1152 0
DWIDTH 12 0
BBX 10 7 0 -1
BITMAP
4880
8840
8840
8840
8880
8880
4000
ENDCHAR
STARTCHAR uni24A8
ENCODING 9384
SWIDTH 1152 0
DWIDTH 12 0
BBX 10 7 0 -1
BITMAP
4080
DF40
C940
C940
8980
8080
4000
ENDCHAR
STARTCHAR uni24A9
ENCODING 9385
SWIDTH 1152 0
DWIDTH 12 0
BBX 10 7 0 -1
BITMAP
4080
9E40
9240
9240
9280
8080
4000
ENDCHAR
STARTCHAR uni24AA
ENCODING 9386
SWIDTH 1152 0
DWIDTH 12 0
BBX 10 7 0 -1
BITMAP
4C80
9240
9240
9240
9280
8C80
4000
ENDCHAR
STARTCHAR uni24AB
ENCODING 9387
SWIDTH 1152 0
DWIDTH 12 0
BBX 10 7 0 -1
BITMAP
4E80
9140
9140
9140
9E80
8080
4000
ENDCHAR
STARTCHAR uni24AC
ENCODING 9388
SWIDTH 1152 0
DWIDTH 12 0
BBX 10 7 0 -1
BITMAP
5A80
A640
A240
A240
9E80
8280
4000
ENDCHAR
STARTCHAR uni24AD
ENCODING 9389
SWIDTH 1152 0
DWIDTH 12 0
BBX 10 7 0 -1
BITMAP
4080
8C40
8840
8840
8880
8080
4000
ENDCHAR
STARTCHAR uni24AE
ENCODING 9390
SWIDTH 1152 0
DWIDTH 12 0
BBX 10 7 0 -1
BITMAP
4C80
9040
8840
8640
8480
8880
4000
ENDCHAR
STARTCHAR uni24AF
ENCODING 9391
SWIDTH 1152 0
DWIDTH 12 0
BBX 10 7 0 -1
BITMAP
4880
8C40
8840
8840
8880
8880
4000
ENDCHAR
STARTCHAR uni24B0
ENCODING 9392
SWIDTH 1152 0
DWIDTH 12 0
BBX 10 7 0 -1
BITMAP
4080
9240
9240
9240
9280
8C80
4000
ENDCHAR
STARTCHAR uni24B1
ENCODING 9393
SWIDTH 1152 0
DWIDTH 12 0
BBX 10 7 0 -1
BITMAP
4080
9240
9440
9440
8C80
8080
4000
ENDCHAR
STARTCHAR uni24B2
ENCODING 9394
SWIDTH 1152 0
DWIDTH 12 0
BBX 10 7 0 -1
BITMAP
4080
A140
AD40
AE40
9680
8080
4000
ENDCHAR
STARTCHAR uni24B3
ENCODING 9395
SWIDTH 1152 0
DWIDTH 12 0
BBX 10 7 0 -1
BITMAP
4080
8040
8C40
8C40
8280
8080
4000
ENDCHAR
STARTCHAR uni24B4
ENCODING 9396
SWIDTH 1152 0
DWIDTH 12 0
BBX 10 7 0 -1
BITMAP
4080
8240
8C40
8C40
8880
8080
4000
ENDCHAR
STARTCHAR uni24B5
ENCODING 9397
SWIDTH 1152 0
DWIDTH 12 0
BBX 10 7 0 -1
BITMAP
4080
9C40
8840
9040
9E80
8080
4000
ENDCHAR
STARTCHAR uni24D0
ENCODING 9424
SWIDTH 1152 0
DWIDTH 12 0
BBX 10 9 0 -2
BITMAP
3F00
CC80
9280
8640
9A80
9280
8C80
6100
1E00
ENDCHAR
STARTCHAR uni24D1
ENCODING 9425
SWIDTH 1152 0
DWIDTH 12 0
BBX 10 9 0 -2
BITMAP
3F00
D080
9E80
9140
9180
9180
8E80
6100
1E00
ENDCHAR
STARTCHAR uni24D2
ENCODING 9426
SWIDTH 1152 0
DWIDTH 12 0
BBX 10 9 0 -2
BITMAP
3F00
C080
9E80
9040
9080
9280
8C80
6100
1E00
ENDCHAR
STARTCHAR uni24D3
ENCODING 9427
SWIDTH 1152 0
DWIDTH 12 0
BBX 10 9 0 -2
BITMAP
3F00
C280
9A80
A640
A280
A280
9E80
6100
1E00
ENDCHAR
STARTCHAR uni24D4
ENCODING 9428
SWIDTH 1152 0
DWIDTH 12 0
BBX 10 9 0 -2
BITMAP
3F00
C080
8C80
9E40
9080
9280
8C80
6100
1E00
ENDCHAR
STARTCHAR uni24D5
ENCODING 9429
SWIDTH 1152 0
DWIDTH 12 0
BBX 10 9 0 -2
BITMAP
3F00
C880
8C80
8840
8880
8880
8080
6100
1E00
ENDCHAR
STARTCHAR uni24D6
ENCODING 9430
SWIDTH 1152 0
DWIDTH 12 0
BBX 10 10 0 -2
BITMAP
1E00
6100
8C80
9280
9240
9280
8E80
5280
2D00
1E00
ENDCHAR
STARTCHAR uni24D7
ENCODING 9431
SWIDTH 1152 0
DWIDTH 12 0
BBX 10 9 0 -2
BITMAP
3F00
D080
9480
9A40
9280
9280
9280
6100
1E00
ENDCHAR
STARTCHAR uni24D8
ENCODING 9432
SWIDTH 1152 0
DWIDTH 12 0
BBX 10 9 0 -2
BITMAP
3F00
C880
8080
8840
8880
8880
8880
6100
1E00
ENDCHAR
STARTCHAR uni24D9
ENCODING 9433
SWIDTH 1152 0
DWIDTH 12 0
BBX 10 9 0 -2
BITMAP
3F00
C080
8080
8840
8880
8880
8880
6900
1600
ENDCHAR
STARTCHAR uni24DA
ENCODING 9434
SWIDTH 1152 0
DWIDTH 12 0
BBX 10 9 0 -2
BITMAP
3F00
C880
8980
8A40
8E80
8A80
8980
6100
1E00
ENDCHAR
STARTCHAR uni24DB
ENCODING 9435
SWIDTH 1152 0
DWIDTH 12 0
BBX 10 9 0 -2
BITMAP
3F00
C880
8880
8840
8880
8880
8880
6100
1E00
ENDCHAR
STARTCHAR uni24DC
ENCODING 9436
SWIDTH 1152 0
DWIDTH 12 0
BBX 10 9 0 -2
BITMAP
3F00
C080
BF80
A940
A980
A080
8080
6100
1E00
ENDCHAR
STARTCHAR uni24DD
ENCODING 9437
SWIDTH 1152 0
DWIDTH 12 0
BBX 10 9 0 -2
BITMAP
3F00
C080
9E80
9240
9280
9280
8080
6100
1E00
ENDCHAR
STARTCHAR uni24DE
ENCODING 9438
SWIDTH 1152 0
DWIDTH 12 0
BBX 10 9 0 -2
BITMAP
3F00
CC80
9280
9240
9280
9280
8C80
6100
1E00
ENDCHAR
STARTCHAR uni24DF
ENCODING 9439
SWIDTH 1152 0
DWIDTH 12 0
BBX 10 9 0 -2
BITMAP
3F00
CE80
9180
9140
9180
9E80
8080
6100
1E00
ENDCHAR
STARTCHAR uni24E0
ENCODING 9440
SWIDTH 1152 0
DWIDTH 12 0
BBX 10 10 0 -2
BITMAP
1E00
6100
9E80
A280
A240
A280
9E80
4280
2100
1E00
ENDCHAR
STARTCHAR uni24E1
ENCODING 9441
SWIDTH 1152 0
DWIDTH 12 0
BBX 10 9 0 -2
BITMAP
3F00
C080
8C80
8840
8880
8880
8080
6100
1E00
ENDCHAR
STARTCHAR uni24E2
ENCODING 9442
SWIDTH 1152 0
DWIDTH 12 0
BBX 10 9 0 -2
BITMAP
3F00
CC80
9280
8840
8680
9280
8C80
6100
1E00
ENDCHAR
STARTCHAR uni24E3
ENCODING 9443
SWIDTH 1152 0
DWIDTH 12 0
BBX 10 9 0 -2
BITMAP
3F00
C880
9C80
8840
8880
8880
8C80
6100
1E00
ENDCHAR
STARTCHAR uni24E4
ENCODING 9444
SWIDTH 1152 0
DWIDTH 12 0
BBX 10 9 0 -2
BITMAP
3F00
C080
9280
9240
9280
9280
8C80
6100
1E00
ENDCHAR
STARTCHAR uni24E5
ENCODING 9445
SWIDTH 1152 0
DWIDTH 12 0
BBX 10 9 0 -2
BITMAP
3F00
C080
9280
9440
9480
8C80
8080
6100
1E00
ENDCHAR
STARTCHAR uni24E6
ENCODING 9446
SWIDTH 1152 0
DWIDTH 12 0
BBX 10 9 0 -2
BITMAP
3F00
C080
A180
A540
AE80
9680
8080
6100
1E00
ENDCHAR
STARTCHAR uni24E7
ENCODING 9447
SWIDTH 1152 0
DWIDTH 12 0
BBX 10 9 0 -2
BITMAP
3F00
C080
8080
8C40
8C80
8080
8080
6100
1E00
ENDCHAR
STARTCHAR uni24E8
ENCODING 9448
SWIDTH 1152 0
DWIDTH 12 0
BBX 10 9 0 -2
BITMAP
3F00
D080
9280
8C40
8480
8880
8080
6100
1E00
ENDCHAR
STARTCHAR uni24E9
ENCODING 9449
SWIDTH 1152 0
DWIDTH 12 0
BBX 10 9 0 -2
BITMAP
3F00
C080
9C80
8440
9880
9E80
8080
6100
1E00
ENDCHAR
STARTCHAR SF100000
ENCODING 9472
SWIDTH 1152 0
DWIDTH 12 0
BBX 10 1 0 3
BITMAP
FFC0
ENDCHAR
STARTCHAR uni2501
ENCODING 9473
SWIDTH 1152 0
DWIDTH 12 0
BBX 10 1 0 2
BITMAP
FFC0
ENDCHAR
STARTCHAR SF110000
ENCODING 9474
SWIDTH 1152 0
DWIDTH 12 0
BBX 1 10 4 -2
BITMAP
80
80
80
80
80
80
80
80
80
80
ENDCHAR
STARTCHAR uni2503
ENCODING 9475
SWIDTH 1152 0
DWIDTH 12 0
BBX 1 10 5 -2
BITMAP
80
80
80
80
80
80
80
80
80
80
ENDCHAR
STARTCHAR SF010000
ENCODING 9484
SWIDTH 1152 0
DWIDTH 12 0
BBX 6 5 2 -2
BITMAP
FC
80
80
80
80
ENDCHAR
STARTCHAR uni250D
ENCODING 9485
SWIDTH 1152 0
DWIDTH 12 0
BBX 6 5 2 -2
BITMAP
FC
80
80
80
80
ENDCHAR
STARTCHAR uni250E
ENCODING 9486
SWIDTH 1152 0
DWIDTH 12 0
BBX 6 6 2 -2
BITMAP
FC
80
80
80
80
80
ENDCHAR
STARTCHAR uni250F
ENCODING 9487
SWIDTH 1152 0
DWIDTH 12 0
BBX 6 5 2 -2
BITMAP
FC
80
80
80
80
ENDCHAR
STARTCHAR SF030000
ENCODING 9488
SWIDTH 1152 0
DWIDTH 12 0
BBX 6 5 2 -2
BITMAP
FC
04
04
04
04
ENDCHAR
STARTCHAR uni2511
ENCODING 9489
SWIDTH 1152 0
DWIDTH 12 0
BBX 6 5 2 -2
BITMAP
FC
04
04
04
04
ENDCHAR
STARTCHAR uni2512
ENCODING 9490
SWIDTH 1152 0
DWIDTH 12 0
BBX 6 5 2 -2
BITMAP
FC
04
04
04
04
ENDCHAR
STARTCHAR uni2513
ENCODING 9491
SWIDTH 1152 0
DWIDTH 12 0
BBX 6 5 2 -2
BITMAP
FC
04
04
04
04
ENDCHAR
STARTCHAR SF020000
ENCODING 9492
SWIDTH 1152 0
DWIDTH 12 0
BBX 6 5 2 3
BITMAP
80
80
80
80
FC
ENDCHAR
STARTCHAR uni2515
ENCODING 9493
SWIDTH 1152 0
DWIDTH 12 0
BBX 6 6 2 2
BITMAP
80
80
80
80
80
FC
ENDCHAR
STARTCHAR uni2516
ENCODING 9494
SWIDTH 1152 0
DWIDTH 12 0
BBX 6 6 2 2
BITMAP
80
80
80
80
80
FC
ENDCHAR
STARTCHAR uni2517
ENCODING 9495
SWIDTH 1152 0
DWIDTH 12 0
BBX 6 6 2 2
BITMAP
80
80
80
80
80
FC
ENDCHAR
STARTCHAR SF040000
ENCODING 9496
SWIDTH 1152 0
DWIDTH 12 0
BBX 6 5 2 3
BITMAP
04
04
04
04
FC
ENDCHAR
STARTCHAR uni2519
ENCODING 9497
SWIDTH 1152 0
DWIDTH 12 0
BBX 6 6 2 2
BITMAP
04
04
04
04
04
FC
ENDCHAR
STARTCHAR uni251A
ENCODING 9498
SWIDTH 1152 0
DWIDTH 12 0
BBX 6 6 2 2
BITMAP
04
04
04
04
04
FC
ENDCHAR
STARTCHAR uni251B
ENCODING 9499
SWIDTH 1152 0
DWIDTH 12 0
BBX 6 6 2 2
BITMAP
04
04
04
04
04
FC
ENDCHAR
STARTCHAR SF080000
ENCODING 9500
SWIDTH 1152 0
DWIDTH 12 0
BBX 6 10 2 -2
BITMAP
80
80
80
80
80
FC
80
80
80
80
ENDCHAR
STARTCHAR uni251D
ENCODING 9501
SWIDTH 1152 0
DWIDTH 12 0
BBX 6 10 2 -2
BITMAP
80
80
80
80
80
FC
80
80
80
80
ENDCHAR
STARTCHAR uni251E
ENCODING 9502
SWIDTH 1152 0
DWIDTH 12 0
BBX 6 10 2 -2
BITMAP
80
80
80
80
80
FC
80
80
80
80
ENDCHAR
STARTCHAR uni251F
ENCODING 9503
SWIDTH 1152 0
DWIDTH 12 0
BBX 6 10 2 -2
BITMAP
80
80
80
80
FC
80
80
80
80
80
ENDCHAR
STARTCHAR uni2520
ENCODING 9504
SWIDTH 1152 0
DWIDTH 12 0
BBX 6 10 2 -2
BITMAP
80
80
80
80
FC
80
80
80
80
80
ENDCHAR
STARTCHAR uni2521
ENCODING 9505
SWIDTH 1152 0
DWIDTH 12 0
BBX 6 10 2 -2
BITMAP
80
80
80
80
FC
80
80
80
80
80
ENDCHAR
STARTCHAR uni2522
ENCODING 9506
SWIDTH 1152 0
DWIDTH 12 0
BBX 6 10 2 -2
BITMAP
80
80
80
80
80
FC
80
80
80
80
ENDCHAR
STARTCHAR uni2523
ENCODING 9507
SWIDTH 1152 0
DWIDTH 12 0
BBX 6 10 2 -2
BITMAP
80
80
80
80
80
FC
80
80
80
80
ENDCHAR
STARTCHAR SF090000
ENCODING 9508
SWIDTH 1152 0
DWIDTH 12 0
BBX 6 10 2 -2
BITMAP
04
04
04
04
04
FC
04
04
04
04
ENDCHAR
STARTCHAR uni2525
ENCODING 9509
SWIDTH 1152 0
DWIDTH 12 0
BBX 6 10 2 -2
BITMAP
04
04
04
04
FC
04
04
04
04
04
ENDCHAR
STARTCHAR uni2526
ENCODING 9510
SWIDTH 1152 0
DWIDTH 12 0
BBX 6 10 2 -2
BITMAP
04
04
04
04
04
FC
04
04
04
04
ENDCHAR
STARTCHAR uni2527
ENCODING 9511
SWIDTH 1152 0
DWIDTH 12 0
BBX 6 10 2 -2
BITMAP
04
04
04
04
FC
04
04
04
04
04
ENDCHAR
STARTCHAR uni2528
ENCODING 9512
SWIDTH 1152 0
DWIDTH 12 0
BBX 6 10 2 -2
BITMAP
04
04
04
04
FC
04
04
04
04
04
ENDCHAR
STARTCHAR uni2529
ENCODING 9513
SWIDTH 1152 0
DWIDTH 12 0
BBX 6 10 2 -2
BITMAP
04
04
04
04
FC
04
04
04
04
04
ENDCHAR
STARTCHAR uni252A
ENCODING 9514
SWIDTH 1152 0
DWIDTH 12 0
BBX 6 10 2 -2
BITMAP
04
04
04
04
FC
04
04
04
04
04
ENDCHAR
STARTCHAR uni252B
ENCODING 9515
SWIDTH 1152 0
DWIDTH 12 0
BBX 6 10 2 -2
BITMAP
04
04
04
04
04
FC
04
04
04
04
ENDCHAR
STARTCHAR SF060000
ENCODING 9516
SWIDTH 1152 0
DWIDTH 12 0
BBX 11 5 -1 -2
BITMAP
FFE0
0400
0400
0400
0400
ENDCHAR
STARTCHAR uni252D
ENCODING 9517
SWIDTH 1152 0
DWIDTH 12 0
BBX 11 5 -1 -2
BITMAP
FFE0
0400
0400
0400
0400
ENDCHAR
STARTCHAR uni252E
ENCODING 9518
SWIDTH 1152 0
DWIDTH 12 0
BBX 11 5 -1 -2
BITMAP
FFE0
0400
0400
0400
0400
ENDCHAR
STARTCHAR uni252F
ENCODING 9519
SWIDTH 1152 0
DWIDTH 12 0
BBX 11 6 -1 -2
BITMAP
FFE0
0400
0400
0400
0400
0400
ENDCHAR
STARTCHAR uni2530
ENCODING 9520
SWIDTH 1152 0
DWIDTH 12 0
BBX 11 5 0 -2
BITMAP
FFE0
0400
0400
0400
0400
ENDCHAR
STARTCHAR uni2531
ENCODING 9521
SWIDTH 1152 0
DWIDTH 12 0
BBX 11 5 0 -2
BITMAP
FFE0
0400
0400
0400
0400
ENDCHAR
STARTCHAR uni2532
ENCODING 9522
SWIDTH 1152 0
DWIDTH 12 0
BBX 11 5 0 -2
BITMAP
FFE0
0400
0400
0400
0400
ENDCHAR
STARTCHAR uni2533
ENCODING 9523
SWIDTH 1152 0
DWIDTH 12 0
BBX 11 5 0 -2
BITMAP
FFE0
0400
0400
0400
0400
ENDCHAR
STARTCHAR SF070000
ENCODING 9524
SWIDTH 1152 0
DWIDTH 12 0
BBX 11 6 -1 2
BITMAP
0400
0400
0400
0400
0400
FFE0
ENDCHAR
STARTCHAR uni2535
ENCODING 9525
SWIDTH 1152 0
DWIDTH 12 0
BBX 11 6 -1 2
BITMAP
0400
0400
0400
0400
0400
FFE0
ENDCHAR
STARTCHAR uni2536
ENCODING 9526
SWIDTH 1152 0
DWIDTH 12 0
BBX 11 6 -1 2
BITMAP
0400
0400
0400
0400
0400
FFE0
ENDCHAR
STARTCHAR uni2537
ENCODING 9527
SWIDTH 1152 0
DWIDTH 12 0
BBX 11 5 -1 3
BITMAP
0400
0400
0400
0400
FFE0
ENDCHAR
STARTCHAR uni2538
ENCODING 9528
SWIDTH 1152 0
DWIDTH 12 0
BBX 11 6 0 2
BITMAP
0400
0400
0400
0400
0400
FFE0
ENDCHAR
STARTCHAR uni2539
ENCODING 9529
SWIDTH 1152 0
DWIDTH 12 0
BBX 11 6 0 2
BITMAP
0400
0400
0400
0400
0400
FFE0
ENDCHAR
STARTCHAR uni253A
ENCODING 9530
SWIDTH 1152 0
DWIDTH 12 0
BBX 11 6 0 2
BITMAP
0400
0400
0400
0400
0400
FFE0
ENDCHAR
STARTCHAR uni253B
ENCODING 9531
SWIDTH 1152 0
DWIDTH 12 0
BBX 11 6 0 2
BITMAP
0400
0400
0400
0400
0400
FFE0
ENDCHAR
STARTCHAR SF050000
ENCODING 9532
SWIDTH 1152 0
DWIDTH 12 0
BBX 11 10 -1 -2
BITMAP
0400
0400
0400
0400
0400
FFE0
0400
0400
0400
0400
ENDCHAR
STARTCHAR uni253D
ENCODING 9533
SWIDTH 1152 0
DWIDTH 12 0
BBX 11 10 -1 -2
BITMAP
0400
0400
0400
0400
0400
FFE0
0400
0400
0400
0400
ENDCHAR
STARTCHAR uni253E
ENCODING 9534
SWIDTH 1152 0
DWIDTH 12 0
BBX 11 10 -1 -2
BITMAP
0400
0400
0400
0400
0400
FFE0
0400
0400
0400
0400
ENDCHAR
STARTCHAR uni253F
ENCODING 9535
SWIDTH 1152 0
DWIDTH 12 0
BBX 11 10 -1 -2
BITMAP
0400
0400
0400
0400
FFE0
0400
0400
0400
0400
0400
ENDCHAR
STARTCHAR uni2540
ENCODING 9536
SWIDTH 1152 0
DWIDTH 12 0
BBX 11 10 0 -2
BITMAP
0400
0400
0400
0400
0400
FFE0
0800
0800
0800
0800
ENDCHAR
STARTCHAR uni2541
ENCODING 9537
SWIDTH 1152 0
DWIDTH 12 0
BBX 11 10 0 -2
BITMAP
0800
0800
0800
0800
0800
FFE0
0400
0400
0400
0400
ENDCHAR
STARTCHAR uni2542
ENCODING 9538
SWIDTH 1152 0
DWIDTH 12 0
BBX 11 10 0 -2
BITMAP
0400
0400
0400
0400
0400
FFE0
0400
0400
0400
0400
ENDCHAR
STARTCHAR uni2543
ENCODING 9539
SWIDTH 1152 0
DWIDTH 12 0
BBX 11 10 -1 -2
BITMAP
0400
0400
0400
0400
FFE0
0400
0400
0400
0400
0400
ENDCHAR
STARTCHAR uni2544
ENCODING 9540
SWIDTH 1152 0
DWIDTH 12 0
BBX 11 10 0 -2
BITMAP
0400
0400
0400
0400
0400
FFE0
0800
0800
0800
0800
ENDCHAR
STARTCHAR uni2545
ENCODING 9541
SWIDTH 1152 0
DWIDTH 12 0
BBX 11 10 0 -2
BITMAP
0800
0800
0800
0800
0800
FFE0
0400
0400
0400
0400
ENDCHAR
STARTCHAR uni2546
ENCODING 9542
SWIDTH 1152 0
DWIDTH 12 0
BBX 11 10 0 -2
BITMAP
0800
0800
0800
0800
0800
FFE0
0400
0400
0400
0400
ENDCHAR
STARTCHAR uni2547
ENCODING 9543
SWIDTH 1152 0
DWIDTH 12 0
BBX 11 10 0 -2
BITMAP
0400
0400
0400
0400
0400
FFE0
0800
0800
0800
0800
ENDCHAR
STARTCHAR uni2548
ENCODING 9544
SWIDTH 1152 0
DWIDTH 12 0
BBX 11 10 0 -2
BITMAP
0800
0800
0800
0800
0800
FFE0
0400
0400
0400
0400
ENDCHAR
STARTCHAR uni2549
ENCODING 9545
SWIDTH 1152 0
DWIDTH 12 0
BBX 11 10 -1 -2
BITMAP
0400
0400
0400
0400
0400
FFE0
0400
0400
0400
0400
ENDCHAR
STARTCHAR uni254A
ENCODING 9546
SWIDTH 1152 0
DWIDTH 12 0
BBX 11 10 0 -2
BITMAP
0400
0400
0400
0400
0400
FFE0
0400
0400
0400
0400
ENDCHAR
STARTCHAR uni254B
ENCODING 9547
SWIDTH 1152 0
DWIDTH 12 0
BBX 11 10 0 -2
BITMAP
0400
0400
0400
0400
FFE0
0400
0400
0400
0400
0400
ENDCHAR
STARTCHAR shade
ENCODING 9618
SWIDTH 1152 0
DWIDTH 12 0
BBX 8 8 1 -1
BITMAP
FF
95
FD
ED
B7
FF
ED
FF
ENDCHAR
STARTCHAR filledbox
ENCODING 9632
SWIDTH 1152 0
DWIDTH 12 0
BBX 8 8 1 -1
BITMAP
FF
FF
FF
FF
FF
FF
FF
FF
ENDCHAR
STARTCHAR H22073
ENCODING 9633
SWIDTH 1152 0
DWIDTH 12 0
BBX 8 8 1 -1
BITMAP
FF
81
81
81
81
81
81
FF
ENDCHAR
STARTCHAR uni25A3
ENCODING 9635
SWIDTH 1152 0
DWIDTH 12 0
BBX 8 8 1 -1
BITMAP
FF
81
BD
BD
BD
BD
81
FF
ENDCHAR
STARTCHAR uni25A4
ENCODING 9636
SWIDTH 1152 0
DWIDTH 12 0
BBX 8 8 1 -1
BITMAP
FF
81
FF
81
FF
FF
81
FF
ENDCHAR
STARTCHAR uni25A5
ENCODING 9637
SWIDTH 1152 0
DWIDTH 12 0
BBX 8 8 1 -1
BITMAP
FF
B5
B5
B5
B5
B5
B5
FF
ENDCHAR
STARTCHAR uni25A6
ENCODING 9638
SWIDTH 1152 0
DWIDTH 12 0
BBX 8 8 1 -1
BITMAP
FF
B5
FF
B5
FF
FF
B5
FF
ENDCHAR
STARTCHAR uni25A7
ENCODING 9639
SWIDTH 1152 0
DWIDTH 12 0
BBX 8 8 1 -1
BITMAP
FF
F1
F9
FD
BF
9F
8F
FF
ENDCHAR
STARTCHAR uni25A8
ENCODING 9640
SWIDTH 1152 0
DWIDTH 12 0
BBX 9 9 0 -2
BITMAP
7F80
4B80
5780
6E80
5F80
7C80
B880
5F80
2000
ENDCHAR
STARTCHAR uni25A9
ENCODING 9641
SWIDTH 1152 0
DWIDTH 12 0
BBX 8 8 1 -1
BITMAP
FF
EB
E5
9B
99
E7
DB
FF
ENDCHAR
STARTCHAR triagup
ENCODING 9650
SWIDTH 1152 0
DWIDTH 12 0
BBX 8 7 1 -1
BITMAP
18
18
3C
3E
7E
FF
FF
ENDCHAR
STARTCHAR uni25B3
ENCODING 9651
SWIDTH 1152 0
DWIDTH 12 0
BBX 9 7 0 -1
BITMAP
1C00
1400
2200
2100
4100
8080
7F80
ENDCHAR
STARTCHAR uni25B6
ENCODING 9654
SWIDTH 1152 0
DWIDTH 12 0
BBX 5 8 2 -1
BITMAP
80
C0
F0
F8
F8
F0
C0
80
ENDCHAR
STARTCHAR uni25B7
ENCODING 9655
SWIDTH 1152 0
DWIDTH 12 0
BBX 6 8 2 -1
BITMAP
80
E0
90
8C
84
98
A0
C0
ENDCHAR
STARTCHAR triagdn
ENCODING 9660
SWIDTH 1152 0
DWIDTH 12 0
BBX 8 7 1 0
BITMAP
FF
FF
7E
3E
3C
18
18
ENDCHAR
STARTCHAR uni25BD
ENCODING 9661
SWIDTH 1152 0
DWIDTH 12 0
BBX 9 8 0 -1
BITMAP
7F80
8080
4100
2200
2200
1400
1400
0800
ENDCHAR
STARTCHAR uni25C0
ENCODING 9664
SWIDTH 1152 0
DWIDTH 12 0
BBX 5 8 3 -1
BITMAP
08
18
78
F8
F8
78
18
08
ENDCHAR
STARTCHAR uni25C1
ENCODING 9665
SWIDTH 1152 0
DWIDTH 12 0
BBX 6 8 2 -1
BITMAP
04
1C
64
84
84
44
34
0C
ENDCHAR
STARTCHAR uni25C6
ENCODING 9670
SWIDTH 1152 0
DWIDTH 12 0
BBX 8 8 1 -1
BITMAP
18
3C
7E
FF
FF
7E
3C
18
ENDCHAR
STARTCHAR uni25C7
ENCODING 9671
SWIDTH 1152 0
DWIDTH 12 0
BBX 9 9 0 -2
BITMAP
1C00
2200
4100
8080
8080
4100
2200
1400
0800
ENDCHAR
STARTCHAR uni25C8
ENCODING 9672
SWIDTH 1152 0
DWIDTH 12 0
BBX 10 9 0 -1
BITMAP
0400
1A00
2D00
5E80
BF40
BF80
5F00
2E00
1C00
ENDCHAR
STARTCHAR circle
ENCODING 9675
SWIDTH 1152 0
DWIDTH 12 0
BBX 8 9 1 -2
BITMAP
3C
42
C3
81
81
81
C3
42
3C
ENDCHAR
STARTCHAR uni25CE
ENCODING 9678
SWIDTH 1152 0
DWIDTH 12 0
BBX 8 9 1 -2
BITMAP
3C
7E
E7
C3
C3
E7
BE
44
38
ENDCHAR
STARTCHAR H18533
ENCODING 9679
SWIDTH 1152 0
DWIDTH 12 0
BBX 8 8 1 -1
BITMAP
3C
7E
FF
FF
FF
FF
7E
3C
ENDCHAR
STARTCHAR uni25D0
ENCODING 9680
SWIDTH 1152 0
DWIDTH 12 0
BBX 8 9 2 -1
BITMAP
18
24
62
E1
E1
E1
E3
66
3C
ENDCHAR
STARTCHAR uni25D1
ENCODING 9681
SWIDTH 1152 0
DWIDTH 12 0
BBX 8 8 0 -1
BITMAP
3C
46
87
87
87
87
46
24
ENDCHAR
STARTCHAR uni2605
ENCODING 9733
SWIDTH 1152 0
DWIDTH 12 0
BBX 6 7 2 -1
BITMAP
30
30
FC
78
78
48
84
ENDCHAR
STARTCHAR uni2606
ENCODING 9734
SWIDTH 1152 0
DWIDTH 12 0
BBX 8 8 1 -1
BITMAP
10
18
E7
42
44
44
7C
42
ENDCHAR
STARTCHAR uni260E
ENCODING 9742
SWIDTH 1152 0
DWIDTH 12 0
BBX 10 7 0 0
BITMAP
0C00
7380
FF80
1240
2100
7300
7F80
ENDCHAR
STARTCHAR uni260F
ENCODING 9743
SWIDTH 1152 0
DWIDTH 12 0
BBX 10 8 0 -1
BITMAP
0800
7780
9E80
6F40
3100
6300
5C80
3300
ENDCHAR
STARTCHAR uni261C
ENCODING 9756
SWIDTH 1152 0
DWIDTH 12 0
BBX 10 4 0 1
BITMAP
FF40
7EC0
2C40
1D80
ENDCHAR
STARTCHAR uni261E
ENCODING 9758
SWIDTH 1152 0
DWIDTH 12 0
BBX 9 4 0 1
BITMAP
FF80
8F00
BA00
6C00
ENDCHAR
STARTCHAR female
ENCODING 9792
SWIDTH 1152 0
DWIDTH 12 0
BBX 7 8 1 -1
BITMAP
38
64
28
10
FE
10
10
10
ENDCHAR
STARTCHAR male
ENCODING 9794
SWIDTH 1152 0
DWIDTH 12 0
BBX 5 9 2 -2
BITMAP
20
F0
A8
20
20
50
C8
C8
70
ENDCHAR
STARTCHAR spade
ENCODING 9824
SWIDTH 1152 0
DWIDTH 12 0
BBX 8 7 1 -1
BITMAP
18
3C
7E
7E
FF
76
18
ENDCHAR
STARTCHAR uni2661
ENCODING 9825
SWIDTH 1152 0
DWIDTH 12 0
BBX 8 8 1 -1
BITMAP
7E
9A
81
82
42
24
28
18
ENDCHAR
STARTCHAR club
ENCODING 9827
SWIDTH 1152 0
DWIDTH 12 0
BBX 8 9 1 -2
BITMAP
18
3C
3C
5A
FF
FF
F7
18
18
ENDCHAR
STARTCHAR uni2664
ENCODING 9828
SWIDTH 1152 0
DWIDTH 12 0
BBX 7 9 1 -2
BITMAP
10
28
44
42
82
9A
7E
28
18
ENDCHAR
STARTCHAR heart
ENCODING 9829
SWIDTH 1152 0
DWIDTH 12 0
BBX 8 9 1 -1
BITMAP
66
FF
FF
FF
7E
7E
3C
18
18
ENDCHAR
STARTCHAR uni2667
ENCODING 9831
SWIDTH 1152 0
DWIDTH 12 0
BBX 9 9 0 -1
BITMAP
0C00
3600
2200
2400
7780
8080
9080
7700
1400
ENDCHAR
STARTCHAR uni2668
ENCODING 9832
SWIDTH 1152 0
DWIDTH 12 0
BBX 8 8 1 -1
BITMAP
04
34
34
2C
6C
B5
A1
7E
ENDCHAR
STARTCHAR uni2669
ENCODING 9833
SWIDTH 1152 0
DWIDTH 12 0
BBX 3 8 3 -1
BITMAP
20
20
20
20
20
20
20
C0
ENDCHAR
STARTCHAR musicalnote
ENCODING 9834
SWIDTH 1152 0
DWIDTH 12 0
BBX 6 8 2 -1
BITMAP
20
30
28
24
24
28
20
C0
ENDCHAR
STARTCHAR uni266C
ENCODING 9836
SWIDTH 1152 0
DWIDTH 12 0
BBX 8 8 1 -1
BITMAP
3F
21
3F
21
21
21
63
C6
ENDCHAR
STARTCHAR uni266D
ENCODING 9837
SWIDTH 1152 0
DWIDTH 12 0
BBX 4 6 3 0
BITMAP
80
80
F0
90
A0
C0
ENDCHAR
STARTCHAR uni3000
ENCODING 12288
SWIDTH 1152 0
DWIDTH 12 0
BBX 0 0 0 0
BITMAP
ENDCHAR
STARTCHAR uni3001
ENCODING 12289
SWIDTH 1152 0
DWIDTH 12 0
BBX 1 1 5 6
BITMAP
80
ENDCHAR
STARTCHAR uni3002
ENCODING 12290
SWIDTH 1152 0
DWIDTH 12 0
BBX 3 3 4 5
BITMAP
C0
A0
40
ENDCHAR
STARTCHAR uni3003
ENCODING 12291
SWIDTH 1152 0
DWIDTH 12 0
BBX 3 3 3 2
BITMAP
40
60
A0
ENDCHAR
STARTCHAR uni3008
ENCODING 12296
SWIDTH 1152 0
DWIDTH 12 0
BBX 4 9 3 -2
BITMAP
10
20
40
80
80
40
20
20
10
ENDCHAR
STARTCHAR uni3009
ENCODING 12297
SWIDTH 1152 0
DWIDTH 12 0
BBX 3 8 3 -1
BITMAP
80
40
20
20
20
20
40
80
ENDCHAR
STARTCHAR uni300A
ENCODING 12298
SWIDTH 1152 0
DWIDTH 12 0
BBX 3 8 3 -1
BITMAP
20
60
C0
C0
C0
C0
60
20
ENDCHAR
STARTCHAR uni300B
ENCODING 12299
SWIDTH 1152 0
DWIDTH 12 0
BBX 4 10 3 -2
BITMAP
80
40
40
20
20
50
60
A0
C0
40
ENDCHAR
STARTCHAR uni300C
ENCODING 12300
SWIDTH 1152 0
DWIDTH 12 0
BBX 4 5 6 3
BITMAP
F0
80
80
80
80
ENDCHAR
STARTCHAR uni300D
ENCODING 12301
SWIDTH 1152 0
DWIDTH 12 0
BBX 4 5 0 -2
BITMAP
10
10
10
10
F0
ENDCHAR
STARTCHAR uni300E
ENCODING 12302
SWIDTH 1152 0
DWIDTH 12 0
BBX 5 5 5 3
BITMAP
F8
C0
C0
C0
C0
ENDCHAR
STARTCHAR uni300F
ENCODING 12303
SWIDTH 1152 0
DWIDTH 12 0
BBX 5 5 0 -2
BITMAP
18
18
18
F8
F8
ENDCHAR
STARTCHAR uni3010
ENCODING 12304
SWIDTH 1152 0
DWIDTH 12 0
BBX 2 8 6 -1
BITMAP
C0
C0
80
80
80
80
C0
C0
ENDCHAR
STARTCHAR uni3011
ENCODING 12305
SWIDTH 1152 0
DWIDTH 12 0
BBX 2 8 2 -1
BITMAP
C0
40
40
40
40
40
C0
C0
ENDCHAR
STARTCHAR uni3013
ENCODING 12307
SWIDTH 1152 0
DWIDTH 12 0
BBX 6 2 2 2
BITMAP
FC
FC
ENDCHAR
STARTCHAR uni3014
ENCODING 12308
SWIDTH 1152 0
DWIDTH 12 0
BBX 2 10 7 -2
BITMAP
40
80
80
80
80
80
80
80
80
40
ENDCHAR
STARTCHAR uni3015
ENCODING 12309
SWIDTH 1152 0
DWIDTH 12 0
BBX 2 10 1 -2
BITMAP
80
40
40
40
40
40
40
40
40
80
ENDCHAR
STARTCHAR uni3041
ENCODING 12353
SWIDTH 1152 0
DWIDTH 12 0
BBX 6 6 2 -1
BITMAP
20
60
50
68
A4
48
ENDCHAR
STARTCHAR uni3042
ENCODING 12354
SWIDTH 1152 0
DWIDTH 12 0
BBX 8 8 1 -1
BITMAP
10
1C
20
1E
69
B1
92
66
ENDCHAR
STARTCHAR uni3043
ENCODING 12355
SWIDTH 1152 0
DWIDTH 12 0
BBX 6 4 2 -1
BITMAP
80
80
84
60
ENDCHAR
STARTCHAR uni3044
ENCODING 12356
SWIDTH 1152 0
DWIDTH 12 0
BBX 8 6 1 0
BITMAP
80
82
82
81
80
60
ENDCHAR
STARTCHAR uni3045
ENCODING 12357
SWIDTH 1152 0
DWIDTH 12 0
BBX 3 6 4 -1
BITMAP
40
00
E0
20
40
40
ENDCHAR
STARTCHAR uni3046
ENCODING 12358
SWIDTH 1152 0
DWIDTH 12 0
BBX 3 8 4 -1
BITMAP
40
00
E0
20
20
20
20
40
ENDCHAR
STARTCHAR uni3047
ENCODING 12359
SWIDTH 1152 0
DWIDTH 12 0
BBX 4 5 3 -1
BITMAP
20
40
40
A0
10
ENDCHAR
STARTCHAR uni3048
ENCODING 12360
SWIDTH 1152 0
DWIDTH 12 0
BBX 6 8 2 -1
BITMAP
30
00
30
50
20
50
90
0C
ENDCHAR
STARTCHAR uni3049
ENCODING 12361
SWIDTH 1152 0
DWIDTH 12 0
BBX 6 6 1 -2
BITMAP
20
60
28
F4
A4
40
ENDCHAR
STARTCHAR uni304A
ENCODING 12362
SWIDTH 1152 0
DWIDTH 12 0
BBX 8 8 1 -1
BITMAP
20
22
79
20
2E
F2
A2
E2
ENDCHAR
STARTCHAR uni304B
ENCODING 12363
SWIDTH 1152 0
DWIDTH 12 0
BBX 8 8 1 -1
BITMAP
20
20
FA
49
48
88
80
10
ENDCHAR
STARTCHAR uni304C
ENCODING 12364
SWIDTH 1152 0
DWIDTH 12 0
BBX 8 8 1 -1
BITMAP
22
20
7A
49
48
88
90
20
ENDCHAR
STARTCHAR uni304D
ENCODING 12365
SWIDTH 1152 0
DWIDTH 12 0
BBX 6 8 2 -1
BITMAP
20
30
14
78
08
F0
80
70
ENDCHAR
STARTCHAR uni304E
ENCODING 12366
SWIDTH 1152 0
DWIDTH 12 0
BBX 6 7 1 -1
BITMAP
10
34
68
08
F4
80
70
ENDCHAR
STARTCHAR uni304F
ENCODING 12367
SWIDTH 1152 0
DWIDTH 12 0
BBX 4 8 3 -1
BITMAP
10
20
40
80
80
40
20
10
ENDCHAR
STARTCHAR uni3050
ENCODING 12368
SWIDTH 1152 0
DWIDTH 12 0
BBX 5 8 2 -1
BITMAP
20
20
48
80
80
40
20
10
ENDCHAR
STARTCHAR uni3051
ENCODING 12369
SWIDTH 1152 0
DWIDTH 12 0
BBX 7 8 1 -1
BITMAP
04
84
9E
84
84
84
04
08
ENDCHAR
STARTCHAR uni3052
ENCODING 12370
SWIDTH 1152 0
DWIDTH 12 0
BBX 9 9 0 -1
BITMAP
0080
4200
4200
8E00
8200
8200
8200
4400
0400
ENDCHAR
STARTCHAR uni3053
ENCODING 12371
SWIDTH 1152 0
DWIDTH 12 0
BBX 6 7 2 -1
BITMAP
78
00
00
80
80
6C
10
ENDCHAR
STARTCHAR uni3054
ENCODING 12372
SWIDTH 1152 0
DWIDTH 12 0
BBX 8 7 1 -1
BITMAP
79
00
00
80
80
6C
10
ENDCHAR
STARTCHAR uni3055
ENCODING 12373
SWIDTH 1152 0
DWIDTH 12 0
BBX 6 7 2 -1
BITMAP
14
78
08
7C
80
80
70
ENDCHAR
STARTCHAR uni3056
ENCODING 12374
SWIDTH 1152 0
DWIDTH 12 0
BBX 8 8 1 -1
BITMAP
03
14
78
08
7C
80
80
70
ENDCHAR
STARTCHAR uni3057
ENCODING 12375
SWIDTH 1152 0
DWIDTH 12 0
BBX 6 8 2 -1
BITMAP
80
80
80
80
80
84
88
70
ENDCHAR
STARTCHAR uni3058
ENCODING 12376
SWIDTH 1152 0
DWIDTH 12 0
BBX 6 9 2 -2
BITMAP
80
80
80
80
80
80
84
88
70
ENDCHAR
STARTCHAR uni3059
ENCODING 12377
SWIDTH 1152 0
DWIDTH 12 0
BBX 7 7 2 0
BITMAP
10
1E
F0
70
50
50
20
ENDCHAR
STARTCHAR uni305A
ENCODING 12378
SWIDTH 1152 0
DWIDTH 12 0
BBX 8 8 1 0
BITMAP
01
08
FF
08
38
28
28
10
ENDCHAR
STARTCHAR uni305B
ENCODING 12379
SWIDTH 1152 0
DWIDTH 12 0
BBX 8 8 1 -1
BITMAP
44
44
7F
C4
44
48
40
3E
ENDCHAR
STARTCHAR uni305C
ENCODING 12380
SWIDTH 1152 0
DWIDTH 12 0
BBX 8 7 1 0
BITMAP
44
45
FF
48
40
40
24
ENDCHAR
STARTCHAR uni305D
ENCODING 12381
SWIDTH 1152 0
DWIDTH 12 0
BBX 6 8 2 -1
BITMAP
08
10
20
DC
20
20
20
18
ENDCHAR
STARTCHAR uni305E
ENCODING 12382
SWIDTH 1152 0
DWIDTH 12 0
BBX 8 8 1 -1
BITMAP
41
48
10
EC
10
20
20
18
ENDCHAR
STARTCHAR uni305F
ENCODING 12383
SWIDTH 1152 0
DWIDTH 12 0
BBX 7 8 1 -1
BITMAP
20
20
E0
44
40
40
10
0E
ENDCHAR
STARTCHAR uni3060
ENCODING 12384
SWIDTH 1152 0
DWIDTH 12 0
BBX 8 8 1 -1
BITMAP
21
42
E0
44
40
90
90
0C
ENDCHAR
STARTCHAR uni3061
ENCODING 12385
SWIDTH 1152 0
DWIDTH 12 0
BBX 6 8 2 -1
BITMAP
40
50
E0
40
BC
44
04
18
ENDCHAR
STARTCHAR uni3062
ENCODING 12386
SWIDTH 1152 0
DWIDTH 12 0
BBX 7 7 1 -1
BITMAP
48
F0
40
5E
62
02
1C
ENDCHAR
STARTCHAR uni3063
ENCODING 12387
SWIDTH 1152 0
DWIDTH 12 0
BBX 5 4 3 -1
BITMAP
70
88
10
30
ENDCHAR
STARTCHAR uni3064
ENCODING 12388
SWIDTH 1152 0
DWIDTH 12 0
BBX 8 6 1 0
BITMAP
0C
F3
01
01
02
0C
ENDCHAR
STARTCHAR uni3065
ENCODING 12389
SWIDTH 1152 0
DWIDTH 12 0
BBX 7 6 1 0
BITMAP
1C
E2
02
02
02
1C
ENDCHAR
STARTCHAR uni3066
ENCODING 12390
SWIDTH 1152 0
DWIDTH 12 0
BBX 7 8 2 -1
BITMAP
1E
F0
10
20
20
20
10
0C
ENDCHAR
STARTCHAR uni3067
ENCODING 12391
SWIDTH 1152 0
DWIDTH 12 0
BBX 8 8 1 -1
BITMAP
1E
E8
11
20
20
20
10
0C
ENDCHAR
STARTCHAR uni3068
ENCODING 12392
SWIDTH 1152 0
DWIDTH 12 0
BBX 6 8 2 -1
BITMAP
40
44
38
40
80
80
44
38
ENDCHAR
STARTCHAR uni3069
ENCODING 12393
SWIDTH 1152 0
DWIDTH 12 0
BBX 7 8 1 -1
BITMAP
40
42
28
30
C0
80
00
78
ENDCHAR
STARTCHAR uni306A
ENCODING 12394
SWIDTH 1152 0
DWIDTH 12 0
BBX 8 8 1 -1
BITMAP
20
32
41
44
44
84
3E
18
ENDCHAR
STARTCHAR uni306B
ENCODING 12395
SWIDTH 1152 0
DWIDTH 12 0
BBX 7 6 1 0
BITMAP
4E
80
80
80
90
4E
ENDCHAR
STARTCHAR uni306C
ENCODING 12396
SWIDTH 1152 0
DWIDTH 12 0
BBX 9 7 0 -1
BITMAP
4800
5F00
2900
7100
9300
6D80
0600
ENDCHAR
STARTCHAR uni306D
ENCODING 12397
SWIDTH 1152 0
DWIDTH 12 0
BBX 9 8 0 -1
BITMAP
2000
2000
EF00
3100
2100
6300
2480
2300
ENDCHAR
STARTCHAR uni306E
ENCODING 12398
SWIDTH 1152 0
DWIDTH 12 0
BBX 9 6 0 0
BITMAP
1F00
2880
4880
8880
5100
2300
ENDCHAR
STARTCHAR uni306F
ENCODING 12399
SWIDTH 1152 0
DWIDTH 12 0
BBX 7 8 1 -1
BITMAP
04
04
8C
84
84
9E
D4
08
ENDCHAR
STARTCHAR uni3070
ENCODING 12400
SWIDTH 1152 0
DWIDTH 12 0
BBX 9 8 0 -1
BITMAP
0380
4200
4F00
8200
8200
8600
5B80
4C00
ENDCHAR
STARTCHAR uni3071
ENCODING 12401
SWIDTH 1152 0
DWIDTH 12 0
BBX 9 8 0 -1
BITMAP
0380
4380
4F00
4200
8200
8200
5F80
4C00
ENDCHAR
STARTCHAR uni3072
ENCODING 12402
SWIDTH 1152 0
DWIDTH 12 0
BBX 7 8 1 -1
BITMAP
24
46
46
84
84
84
48
30
ENDCHAR
STARTCHAR uni3073
ENCODING 12403
SWIDTH 1152 0
DWIDTH 12 0
BBX 8 8 1 -1
BITMAP
01
C4
86
84
84
88
88
70
ENDCHAR
STARTCHAR uni3074
ENCODING 12404
SWIDTH 1152 0
DWIDTH 12 0
BBX 8 8 1 -1
BITMAP
07
C7
86
84
84
88
88
70
ENDCHAR
STARTCHAR uni3075
ENCODING 12405
SWIDTH 1152 0
DWIDTH 12 0
BBX 8 7 1 0
BITMAP
10
00
00
00
10
89
C8
ENDCHAR
STARTCHAR uni3076
ENCODING 12406
SWIDTH 1152 0
DWIDTH 12 0
BBX 8 7 1 0
BITMAP
10
01
00
00
10
89
C8
ENDCHAR
STARTCHAR uni3077
ENCODING 12407
SWIDTH 1152 0
DWIDTH 12 0
BBX 8 7 1 0
BITMAP
10
03
03
00
10
89
C8
ENDCHAR
STARTCHAR uni3078
ENCODING 12408
SWIDTH 1152 0
DWIDTH 12 0
BBX 8 4 1 1
BITMAP
30
48
84
03
ENDCHAR
STARTCHAR uni3079
ENCODING 12409
SWIDTH 1152 0
DWIDTH 12 0
BBX 8 4 1 1
BITMAP
32
48
84
03
ENDCHAR
STARTCHAR uni307A
ENCODING 12410
SWIDTH 1152 0
DWIDTH 12 0
BBX 8 5 1 1
BITMAP
07
35
4A
84
03
ENDCHAR
STARTCHAR uni307B
ENCODING 12411
SWIDTH 1152 0
DWIDTH 12 0
BBX 8 8 1 -1
BITMAP
1E
04
86
9C
84
9C
A7
18
ENDCHAR
STARTCHAR uni307C
ENCODING 12412
SWIDTH 1152 0
DWIDTH 12 0
BBX 8 8 0 -1
BITMAP
40
4D
44
9C
84
84
BA
5C
ENDCHAR
STARTCHAR uni307D
ENCODING 12413
SWIDTH 1152 0
DWIDTH 12 0
BBX 9 8 0 -1
BITMAP
1E00
4580
4580
9C00
8400
9C00
A700
5800
ENDCHAR
STARTCHAR uni307E
ENCODING 12414
SWIDTH 1152 0
DWIDTH 12 0
BBX 6 8 2 -1
BITMAP
10
18
30
78
10
10
FC
60
ENDCHAR
STARTCHAR uni307F
ENCODING 12415
SWIDTH 1152 0
DWIDTH 12 0
BBX 8 7 1 -1
BITMAP
38
10
12
7C
A7
C4
08
ENDCHAR
STARTCHAR uni3080
ENCODING 12416
SWIDTH 1152 0
DWIDTH 12 0
BBX 9 8 0 -1
BITMAP
1000
7100
1080
7000
9000
6000
2100
1E00
ENDCHAR
STARTCHAR uni3081
ENCODING 12417
SWIDTH 1152 0
DWIDTH 12 0
BBX 8 7 1 -1
BITMAP
48
7E
51
B1
91
F2
04
ENDCHAR
STARTCHAR uni3082
ENCODING 12418
SWIDTH 1152 0
DWIDTH 12 0
BBX 6 7 2 -1
BITMAP
40
60
40
E4
44
44
38
ENDCHAR
STARTCHAR uni3083
ENCODING 12419
SWIDTH 1152 0
DWIDTH 12 0
BBX 6 3 2 0
BITMAP
7C
C4
28
ENDCHAR
STARTCHAR uni3084
ENCODING 12420
SWIDTH 1152 0
DWIDTH 12 0
BBX 8 6 1 0
BITMAP
4F
31
E1
26
10
10
ENDCHAR
STARTCHAR uni3085
ENCODING 12421
SWIDTH 1152 0
DWIDTH 12 0
BBX 6 5 2 -1
BITMAP
40
BC
54
14
18
ENDCHAR
STARTCHAR uni3086
ENCODING 12422
SWIDTH 1152 0
DWIDTH 12 0
BBX 9 8 0 -1
BITMAP
4400
8F00
B480
A480
4480
5500
0E00
0800
ENDCHAR
STARTCHAR uni3087
ENCODING 12423
SWIDTH 1152 0
DWIDTH 12 0
BBX 5 5 2 -1
BITMAP
10
18
10
30
D8
ENDCHAR
STARTCHAR uni3088
ENCODING 12424
SWIDTH 1152 0
DWIDTH 12 0
BBX 6 8 2 -1
BITMAP
10
10
18
10
10
30
DC
60
ENDCHAR
STARTCHAR uni3089
ENCODING 12425
SWIDTH 1152 0
DWIDTH 12 0
BBX 6 8 2 -1
BITMAP
20
00
80
90
EC
84
08
10
ENDCHAR
STARTCHAR uni308A
ENCODING 12426
SWIDTH 1152 0
DWIDTH 12 0
BBX 5 8 2 -1
BITMAP
48
88
88
88
48
08
10
10
ENDCHAR
STARTCHAR uni308B
ENCODING 12427
SWIDTH 1152 0
DWIDTH 12 0
BBX 6 8 2 -1
BITMAP
10
70
20
7C
84
24
54
38
ENDCHAR
STARTCHAR uni308C
ENCODING 12428
SWIDTH 1152 0
DWIDTH 12 0
BBX 9 8 0 -1
BITMAP
2000
2000
6E00
3200
2200
E200
A280
2100
ENDCHAR
STARTCHAR uni308D
ENCODING 12429
SWIDTH 1152 0
DWIDTH 12 0
BBX 6 7 2 -1
BITMAP
30
20
40
7C
84
04
18
ENDCHAR
STARTCHAR uni308E
ENCODING 12430
SWIDTH 1152 0
DWIDTH 12 0
BBX 6 5 2 -1
BITMAP
40
D8
64
C4
48
ENDCHAR
STARTCHAR uni308F
ENCODING 12431
SWIDTH 1152 0
DWIDTH 12 0
BBX 8 8 1 -1
BITMAP
20
20
E6
39
61
A1
A1
22
ENDCHAR
STARTCHAR uni3090
ENCODING 12432
SWIDTH 1152 0
DWIDTH 12 0
BBX 8 8 1 -1
BITMAP
08
18
10
3E
61
A1
DE
0C
ENDCHAR
STARTCHAR uni3091
ENCODING 12433
SWIDTH 1152 0
DWIDTH 12 0
BBX 8 8 1 -1
BITMAP
38
10
1C
72
34
2E
7A
91
ENDCHAR
STARTCHAR uni3092
ENCODING 12434
SWIDTH 1152 0
DWIDTH 12 0
BBX 6 8 2 -1
BITMAP
20
60
40
B4
38
40
40
30
ENDCHAR
STARTCHAR uni3093
ENCODING 12435
SWIDTH 1152 0
DWIDTH 12 0
BBX 8 8 1 -1
BITMAP
10
10
10
20
70
48
89
86
ENDCHAR
STARTCHAR uni30A1
ENCODING 12449
SWIDTH 1152 0
DWIDTH 12 0
BBX 4 5 3 -1
BITMAP
F0
50
40
40
80
ENDCHAR
STARTCHAR uni30A2
ENCODING 12450
SWIDTH 1152 0
DWIDTH 12 0
BBX 7 7 1 0
BITMAP
FE
02
14
10
10
20
40
ENDCHAR
STARTCHAR uni30A3
ENCODING 12451
SWIDTH 1152 0
DWIDTH 12 0
BBX 3 5 4 -1
BITMAP
20
C0
40
40
40
ENDCHAR
STARTCHAR uni30A4
ENCODING 12452
SWIDTH 1152 0
DWIDTH 12 0
BBX 6 8 2 -1
BITMAP
04
08
10
70
90
10
10
10
ENDCHAR
STARTCHAR uni30A5
ENCODING 12453
SWIDTH 1152 0
DWIDTH 12 0
BBX 4 4 3 -1
BITMAP
F0
90
20
40
ENDCHAR
STARTCHAR uni30A6
ENCODING 12454
SWIDTH 1152 0
DWIDTH 12 0
BBX 6 8 2 -1
BITMAP
20
FC
84
84
08
08
10
20
ENDCHAR
STARTCHAR uni30A7
ENCODING 12455
SWIDTH 1152 0
DWIDTH 12 0
BBX 5 4 2 -1
BITMAP
F8
20
20
F8
ENDCHAR
STARTCHAR uni30A8
ENCODING 12456
SWIDTH 1152 0
DWIDTH 12 0
BBX 7 6 1 0
BITMAP
FE
10
10
10
10
FE
ENDCHAR
STARTCHAR uni30A9
ENCODING 12457
SWIDTH 1152 0
DWIDTH 12 0
BBX 5 5 2 -1
BITMAP
10
F8
50
10
30
ENDCHAR
STARTCHAR uni30AA
ENCODING 12458
SWIDTH 1152 0
DWIDTH 12 0
BBX 7 7 2 0
BITMAP
08
08
FE
18
28
C8
08
ENDCHAR
STARTCHAR uni30AB
ENCODING 12459
SWIDTH 1152 0
DWIDTH 12 0
BBX 7 8 1 -1
BITMAP
10
10
FE
12
22
22
44
80
ENDCHAR
STARTCHAR uni30AC
ENCODING 12460
SWIDTH 1152 0
DWIDTH 12 0
BBX 8 8 1 -1
BITMAP
11
10
FE
12
22
22
44
80
ENDCHAR
STARTCHAR uni30AD
ENCODING 12461
SWIDTH 1152 0
DWIDTH 12 0
BBX 6 8 2 -1
BITMAP
20
24
F8
20
78
20
10
10
ENDCHAR
STARTCHAR uni30AE
ENCODING 12462
SWIDTH 1152 0
DWIDTH 12 0
BBX 7 8 2 0
BITMAP
02
04
40
F0
20
3C
E0
20
ENDCHAR
STARTCHAR uni30AF
ENCODING 12463
SWIDTH 1152 0
DWIDTH 12 0
BBX 6 7 2 -1
BITMAP
3C
44
88
08
10
20
C0
ENDCHAR
STARTCHAR uni30B0
ENCODING 12464
SWIDTH 1152 0
DWIDTH 12 0
BBX 8 8 1 -1
BITMAP
03
3C
44
88
08
10
20
C0
ENDCHAR
STARTCHAR uni30B1
ENCODING 12465
SWIDTH 1152 0
DWIDTH 12 0
BBX 8 7 1 -1
BITMAP
20
3F
48
88
08
10
20
ENDCHAR
STARTCHAR uni30B2
ENCODING 12466
SWIDTH 1152 0
DWIDTH 12 0
BBX 7 8 1 -1
BITMAP
20
40
7E
88
88
10
10
20
ENDCHAR
STARTCHAR uni30B3
ENCODING 12467
SWIDTH 1152 0
DWIDTH 12 0
BBX 6 6 2 0
BITMAP
FC
04
04
04
04
FC
ENDCHAR
STARTCHAR uni30B4
ENCODING 12468
SWIDTH 1152 0
DWIDTH 12 0
BBX 8 8 1 0
BITMAP
01
02
FC
04
04
04
04
FC
ENDCHAR
STARTCHAR uni30B5
ENCODING 12469
SWIDTH 1152 0
DWIDTH 12 0
BBX 8 8 1 -1
BITMAP
24
24
FF
24
24
04
08
10
ENDCHAR
STARTCHAR uni30B6
ENCODING 12470
SWIDTH 1152 0
DWIDTH 12 0
BBX 8 8 1 -1
BITMAP
27
24
FF
24
24
04
08
10
ENDCHAR
STARTCHAR uni30B7
ENCODING 12471
SWIDTH 1152 0
DWIDTH 12 0
BBX 6 6 2 0
BITMAP
40
00
80
0C
10
60
ENDCHAR
STARTCHAR uni30B8
ENCODING 12472
SWIDTH 1152 0
DWIDTH 12 0
BBX 6 7 2 0
BITMAP
04
40
00
80
0C
10
60
ENDCHAR
STARTCHAR uni30B9
ENCODING 12473
SWIDTH 1152 0
DWIDTH 12 0
BBX 6 6 2 0
BITMAP
F8
08
10
28
44
80
ENDCHAR
STARTCHAR uni30BA
ENCODING 12474
SWIDTH 1152 0
DWIDTH 12 0
BBX 8 8 1 0
BITMAP
01
02
7C
08
08
18
24
C2
ENDCHAR
STARTCHAR uni30BB
ENCODING 12475
SWIDTH 1152 0
DWIDTH 12 0
BBX 6 7 2 0
BITMAP
40
40
7C
C4
48
40
7C
ENDCHAR
STARTCHAR uni30BC
ENCODING 12476
SWIDTH 1152 0
DWIDTH 12 0
BBX 8 8 1 -1
BITMAP
23
20
2F
F2
24
20
20
1C
ENDCHAR
STARTCHAR uni30BD
ENCODING 12477
SWIDTH 1152 0
DWIDTH 12 0
BBX 6 7 2 -1
BITMAP
84
84
08
08
10
20
40
ENDCHAR
STARTCHAR uni30BE
ENCODING 12478
SWIDTH 1152 0
DWIDTH 12 0
BBX 8 9 1 -1
BITMAP
01
00
80
84
04
08
10
10
60
ENDCHAR
STARTCHAR uni30BF
ENCODING 12479
SWIDTH 1152 0
DWIDTH 12 0
BBX 6 7 2 -1
BITMAP
3C
44
A8
18
10
20
C0
ENDCHAR
STARTCHAR uni30C0
ENCODING 12480
SWIDTH 1152 0
DWIDTH 12 0
BBX 8 8 1 -1
BITMAP
01
3C
44
A8
18
10
20
C0
ENDCHAR
STARTCHAR uni30C1
ENCODING 12481
SWIDTH 1152 0
DWIDTH 12 0
BBX 8 8 1 -1
BITMAP
0C
38
08
FF
08
10
10
60
ENDCHAR
STARTCHAR uni30C2
ENCODING 12482
SWIDTH 1152 0
DWIDTH 12 0
BBX 8 8 1 -1
BITMAP
0D
30
10
FE
10
10
20
40
ENDCHAR
STARTCHAR uni30C3
ENCODING 12483
SWIDTH 1152 0
DWIDTH 12 0
BBX 3 5 4 -1
BITMAP
80
20
20
40
80
ENDCHAR
STARTCHAR uni30C4
ENCODING 12484
SWIDTH 1152 0
DWIDTH 12 0
BBX 7 7 1 -1
BITMAP
90
50
02
04
04
08
30
ENDCHAR
STARTCHAR uni30C5
ENCODING 12485
SWIDTH 1152 0
DWIDTH 12 0
BBX 8 9 1 -1
BITMAP
01
01
00
92
04
04
08
10
20
ENDCHAR
STARTCHAR uni30C6
ENCODING 12486
SWIDTH 1152 0
DWIDTH 12 0
BBX 8 8 1 -1
BITMAP
7C
00
00
FF
08
10
10
20
ENDCHAR
STARTCHAR uni30C7
ENCODING 12487
SWIDTH 1152 0
DWIDTH 12 0
BBX 8 8 1 -1
BITMAP
7D
00
00
FE
10
10
20
40
ENDCHAR
STARTCHAR uni30C8
ENCODING 12488
SWIDTH 1152 0
DWIDTH 12 0
BBX 3 8 3 -1
BITMAP
80
80
80
C0
A0
80
80
80
ENDCHAR
STARTCHAR uni30C9
ENCODING 12489
SWIDTH 1152 0
DWIDTH 12 0
BBX 5 7 2 0
BITMAP
08
00
80
40
B0
80
80
ENDCHAR
STARTCHAR uni30CA
ENCODING 12490
SWIDTH 1152 0
DWIDTH 12 0
BBX 8 7 1 -1
BITMAP
10
FF
10
10
10
20
20
ENDCHAR
STARTCHAR uni30CB
ENCODING 12491
SWIDTH 1152 0
DWIDTH 12 0
BBX 8 6 1 0
BITMAP
7C
00
00
00
00
FF
ENDCHAR
STARTCHAR uni30CC
ENCODING 12492
SWIDTH 1152 0
DWIDTH 12 0
BBX 6 7 2 -1
BITMAP
7C
04
08
38
14
20
C0
ENDCHAR
STARTCHAR uni30CD
ENCODING 12493
SWIDTH 1152 0
DWIDTH 12 0
BBX 7 8 1 -1
BITMAP
08
7E
04
04
1A
E8
08
08
ENDCHAR
STARTCHAR uni30CE
ENCODING 12494
SWIDTH 1152 0
DWIDTH 12 0
BBX 6 6 2 0
BITMAP
04
08
08
10
20
C0
ENDCHAR
STARTCHAR uni30CF
ENCODING 12495
SWIDTH 1152 0
DWIDTH 12 0
BBX 8 6 1 0
BITMAP
20
24
42
42
81
01
ENDCHAR
STARTCHAR uni30D0
ENCODING 12496
SWIDTH 1152 0
DWIDTH 12 0
BBX 8 5 1 1
BITMAP
21
44
42
82
81
ENDCHAR
STARTCHAR uni30D1
ENCODING 12497
SWIDTH 1152 0
DWIDTH 12 0
BBX 8 6 1 1
BITMAP
03
23
20
44
42
82
ENDCHAR
STARTCHAR uni30D2
ENCODING 12498
SWIDTH 1152 0
DWIDTH 12 0
BBX 5 7 2 0
BITMAP
80
88
B0
C0
80
80
F8
ENDCHAR
STARTCHAR uni30D3
ENCODING 12499
SWIDTH 1152 0
DWIDTH 12 0
BBX 6 6 1 0
BITMAP
8C
B0
C0
80
80
7C
ENDCHAR
STARTCHAR uni30D4
ENCODING 12500
SWIDTH 1152 0
DWIDTH 12 0
BBX 7 8 1 0
BITMAP
06
86
8C
B0
C0
80
80
7C
ENDCHAR
STARTCHAR uni30D5
ENCODING 12501
SWIDTH 1152 0
DWIDTH 12 0
BBX 6 7 2 -1
BITMAP
FC
04
04
08
10
20
40
ENDCHAR
STARTCHAR uni30D6
ENCODING 12502
SWIDTH 1152 0
DWIDTH 12 0
BBX 8 9 1 -1
BITMAP
01
02
FE
04
04
08
08
10
60
ENDCHAR
STARTCHAR uni30D7
ENCODING 12503
SWIDTH 1152 0
DWIDTH 12 0
BBX 8 9 1 -1
BITMAP
03
03
FE
04
04
08
08
10
60
ENDCHAR
STARTCHAR uni30D8
ENCODING 12504
SWIDTH 1152 0
DWIDTH 12 0
BBX 8 4 1 1
BITMAP
30
48
84
03
ENDCHAR
STARTCHAR uni30D9
ENCODING 12505
SWIDTH 1152 0
DWIDTH 12 0
BBX 8 6 1 1
BITMAP
02
04
30
48
84
03
ENDCHAR
STARTCHAR uni30DA
ENCODING 12506
SWIDTH 1152 0
DWIDTH 12 0
BBX 8 6 1 1
BITMAP
06
06
30
48
84
03
ENDCHAR
STARTCHAR uni30DB
ENCODING 12507
SWIDTH 1152 0
DWIDTH 12 0
BBX 8 7 1 -1
BITMAP
08
7F
08
4A
89
89
38
ENDCHAR
STARTCHAR uni30DC
ENCODING 12508
SWIDTH 1152 0
DWIDTH 12 0
BBX 8 8 1 -1
BITMAP
0B
08
7F
08
4A
89
89
38
ENDCHAR
STARTCHAR uni30DD
ENCODING 12509
SWIDTH 1152 0
DWIDTH 12 0
BBX 8 8 1 -1
BITMAP
0B
0B
7F
08
4A
49
89
38
ENDCHAR
STARTCHAR uni30DE
ENCODING 12510
SWIDTH 1152 0
DWIDTH 12 0
BBX 8 6 1 0
BITMAP
FF
02
04
28
10
08
ENDCHAR
STARTCHAR uni30DF
ENCODING 12511
SWIDTH 1152 0
DWIDTH 12 0
BBX 4 6 3 0
BITMAP
60
00
40
00
C0
30
ENDCHAR
STARTCHAR uni30E0
ENCODING 12512
SWIDTH 1152 0
DWIDTH 12 0
BBX 8 6 1 0
BITMAP
10
10
20
20
C6
B9
ENDCHAR
STARTCHAR uni30E1
ENCODING 12513
SWIDTH 1152 0
DWIDTH 12 0
BBX 6 6 2 0
BITMAP
04
08
18
18
20
C0
ENDCHAR
STARTCHAR uni30E2
ENCODING 12514
SWIDTH 1152 0
DWIDTH 12 0
BBX 8 6 1 0
BITMAP
7E
10
FF
10
10
1F
ENDCHAR
STARTCHAR uni30E3
ENCODING 12515
SWIDTH 1152 0
DWIDTH 12 0
BBX 4 3 3 0
BITMAP
70
D0
40
ENDCHAR
STARTCHAR uni30E4
ENCODING 12516
SWIDTH 1152 0
DWIDTH 12 0
BBX 7 7 2 0
BITMAP
40
40
7E
C4
28
20
20
ENDCHAR
STARTCHAR uni30E5
ENCODING 12517
SWIDTH 1152 0
DWIDTH 12 0
BBX 6 4 2 -1
BITMAP
70
10
10
FC
ENDCHAR
STARTCHAR uni30E6
ENCODING 12518
SWIDTH 1152 0
DWIDTH 12 0
BBX 8 6 1 0
BITMAP
7C
04
04
04
08
FF
ENDCHAR
STARTCHAR uni30E7
ENCODING 12519
SWIDTH 1152 0
DWIDTH 12 0
BBX 4 4 3 -1
BITMAP
F0
F0
10
F0
ENDCHAR
STARTCHAR uni30E8
ENCODING 12520
SWIDTH 1152 0
DWIDTH 12 0
BBX 6 6 2 0
BITMAP
FC
04
FC
04
04
FC
ENDCHAR
STARTCHAR uni30E9
ENCODING 12521
SWIDTH 1152 0
DWIDTH 12 0
BBX 6 8 2 -1
BITMAP
78
00
FC
04
08
10
10
60
ENDCHAR
STARTCHAR uni30EA
ENCODING 12522
SWIDTH 1152 0
DWIDTH 12 0
BBX 4 8 3 -1
BITMAP
90
90
90
90
10
10
20
40
ENDCHAR
STARTCHAR uni30EB
ENCODING 12523
SWIDTH 1152 0
DWIDTH 12 0
BBX 8 6 1 0
BITMAP
08
48
48
48
4B
8C
ENDCHAR
STARTCHAR uni30EC
ENCODING 12524
SWIDTH 1152 0
DWIDTH 12 0
BBX 6 7 2 -1
BITMAP
80
80
80
84
88
B0
40
ENDCHAR
STARTCHAR uni30ED
ENCODING 12525
SWIDTH 1152 0
DWIDTH 12 0
BBX 6 6 2 0
BITMAP
FC
84
84
84
84
FC
ENDCHAR
STARTCHAR uni30EE
ENCODING 12526
SWIDTH 1152 0
DWIDTH 12 0
BBX 5 5 2 -1
BITMAP
F8
88
88
10
20
ENDCHAR
STARTCHAR uni30EF
ENCODING 12527
SWIDTH 1152 0
DWIDTH 12 0
BBX 7 7 2 -1
BITMAP
FE
82
82
04
04
08
10
ENDCHAR
STARTCHAR uni30F0
ENCODING 12528
SWIDTH 1152 0
DWIDTH 12 0
BBX 10 8 0 -1
BITMAP
0200
0200
7F80
2200
2200
FFC0
0200
0200
ENDCHAR
STARTCHAR uni30F1
ENCODING 12529
SWIDTH 1152 0
DWIDTH 12 0
BBX 8 6 1 0
BITMAP
7E
02
14
10
10
FF
ENDCHAR
STARTCHAR uni30F2
ENCODING 12530
SWIDTH 1152 0
DWIDTH 12 0
BBX 6 7 2 0
BITMAP
FC
04
08
F8
10
20
40
ENDCHAR
STARTCHAR uni30F3
ENCODING 12531
SWIDTH 1152 0
DWIDTH 12 0
BBX 6 6 2 0
BITMAP
80
40
04
08
30
C0
ENDCHAR
STARTCHAR uni30F4
ENCODING 12532
SWIDTH 1152 0
DWIDTH 12 0
BBX 8 8 1 -1
BITMAP
13
FE
82
82
04
04
08
10
ENDCHAR
STARTCHAR uni30F5
ENCODING 12533
SWIDTH 1152 0
DWIDTH 12 0
BBX 4 4 3 -1
BITMAP
F0
50
50
B0
ENDCHAR
STARTCHAR uni30F6
ENCODING 12534
SWIDTH 1152 0
DWIDTH 12 0
BBX 5 4 3 -1
BITMAP
78
A0
20
40
ENDCHAR
STARTCHAR uni3131
ENCODING 12593
SWIDTH 1152 0
DWIDTH 12 0
BBX 7 5 1 1
BITMAP
FE
02
02
02
02
ENDCHAR
STARTCHAR uni3132
ENCODING 12594
SWIDTH 1152 0
DWIDTH 12 0
BBX 8 5 1 0
BITMAP
FF
11
11
11
01
ENDCHAR
STARTCHAR uni3133
ENCODING 12595
SWIDTH 1152 0
DWIDTH 12 0
BBX 8 6 1 0
BITMAP
F4
14
14
1A
1A
11
ENDCHAR
STARTCHAR uni3134
ENCODING 12596
SWIDTH 1152 0
DWIDTH 12 0
BBX 7 5 2 1
BITMAP
80
80
80
80
FE
ENDCHAR
STARTCHAR uni3135
ENCODING 12597
SWIDTH 1152 0
DWIDTH 12 0
BBX 8 6 1 0
BITMAP
0F
84
84
8A
8A
E0
ENDCHAR
STARTCHAR uni3136
ENCODING 12598
SWIDTH 1152 0
DWIDTH 12 0
BBX 8 6 1 0
BITMAP
06
9F
87
89
89
EF
ENDCHAR
STARTCHAR uni3137
ENCODING 12599
SWIDTH 1152 0
DWIDTH 12 0
BBX 7 5 2 1
BITMAP
FC
80
80
80
FE
ENDCHAR
STARTCHAR uni3138
ENCODING 12600
SWIDTH 1152 0
DWIDTH 12 0
BBX 8 6 1 0
BITMAP
FF
88
88
88
F8
0F
ENDCHAR
STARTCHAR uni3139
ENCODING 12601
SWIDTH 1152 0
DWIDTH 12 0
BBX 7 6 2 0
BITMAP
FC
04
FC
80
80
FE
ENDCHAR
STARTCHAR uni313A
ENCODING 12602
SWIDTH 1152 0
DWIDTH 12 0
BBX 8 6 1 0
BITMAP
FF
11
F1
81
81
E1
ENDCHAR
STARTCHAR uni313B
ENCODING 12603
SWIDTH 1152 0
DWIDTH 12 0
BBX 8 6 1 0
BITMAP
FF
19
F9
89
89
EF
ENDCHAR
STARTCHAR uni313C
ENCODING 12604
SWIDTH 1152 0
DWIDTH 12 0
BBX 8 6 1 0
BITMAP
E8
29
EF
89
89
6F
ENDCHAR
STARTCHAR uni313D
ENCODING 12605
SWIDTH 1152 0
DWIDTH 12 0
BBX 8 6 1 0
BITMAP
F4
14
F4
8C
8A
71
ENDCHAR
STARTCHAR uni313E
ENCODING 12606
SWIDTH 1152 0
DWIDTH 12 0
BBX 8 7 1 -1
BITMAP
FF
18
F8
8E
88
E8
06
ENDCHAR
STARTCHAR uni313F
ENCODING 12607
SWIDTH 1152 0
DWIDTH 12 0
BBX 8 6 1 0
BITMAP
EF
20
EA
8A
9A
EF
ENDCHAR
STARTCHAR uni3140
ENCODING 12608
SWIDTH 1152 0
DWIDTH 12 0
BBX 8 6 1 0
BITMAP
E6
2F
E6
89
89
EF
ENDCHAR
STARTCHAR uni3141
ENCODING 12609
SWIDTH 1152 0
DWIDTH 12 0
BBX 6 5 2 1
BITMAP
FC
84
84
84
FC
ENDCHAR
STARTCHAR uni3142
ENCODING 12610
SWIDTH 1152 0
DWIDTH 12 0
BBX 6 5 2 1
BITMAP
84
84
FC
84
FC
ENDCHAR
STARTCHAR uni3143
ENCODING 12611
SWIDTH 1152 0
DWIDTH 12 0
BBX 8 5 1 1
BITMAP
99
99
FF
99
FF
ENDCHAR
STARTCHAR uni3144
ENCODING 12612
SWIDTH 1152 0
DWIDTH 12 0
BBX 8 6 1 0
BITMAP
A0
A4
E4
AC
AA
E1
ENDCHAR
STARTCHAR uni3145
ENCODING 12613
SWIDTH 1152 0
DWIDTH 12 0
BBX 8 5 1 0
BITMAP
10
18
28
24
C3
ENDCHAR
STARTCHAR uni3146
ENCODING 12614
SWIDTH 1152 0
DWIDTH 12 0
BBX 6 5 2 1
BITMAP
48
48
D8
B4
04
ENDCHAR
STARTCHAR uni3147
ENCODING 12615
SWIDTH 1152 0
DWIDTH 12 0
BBX 6 6 2 0
BITMAP
78
CC
84
84
CC
78
ENDCHAR
STARTCHAR uni3148
ENCODING 12616
SWIDTH 1152 0
DWIDTH 12 0
BBX 6 5 2 1
BITMAP
FC
20
30
48
84
ENDCHAR
STARTCHAR uni3149
ENCODING 12617
SWIDTH 1152 0
DWIDTH 12 0
BBX 7 6 2 0
BITMAP
FC
48
48
D4
14
22
ENDCHAR
STARTCHAR uni314A
ENCODING 12618
SWIDTH 1152 0
DWIDTH 12 0
BBX 6 5 2 1
BITMAP
78
FC
20
50
8C
ENDCHAR
STARTCHAR uni314B
ENCODING 12619
SWIDTH 1152 0
DWIDTH 12 0
BBX 7 5 1 1
BITMAP
FE
02
02
3A
02
ENDCHAR
STARTCHAR uni314C
ENCODING 12620
SWIDTH 1152 0
DWIDTH 12 0
BBX 7 6 2 0
BITMAP
FC
80
FC
80
80
FE
ENDCHAR
STARTCHAR uni314D
ENCODING 12621
SWIDTH 1152 0
DWIDTH 12 0
BBX 6 5 2 1
BITMAP
FC
08
48
48
FC
ENDCHAR
STARTCHAR uni314E
ENCODING 12622
SWIDTH 1152 0
DWIDTH 12 0
BBX 6 6 2 0
BITMAP
78
FC
78
84
84
78
ENDCHAR
STARTCHAR uni314F
ENCODING 12623
SWIDTH 1152 0
DWIDTH 12 0
BBX 3 8 3 -1
BITMAP
80
80
80
E0
80
80
80
80
ENDCHAR
STARTCHAR uni3150
ENCODING 12624
SWIDTH 1152 0
DWIDTH 12 0
BBX 4 9 3 -1
BITMAP
80
90
90
90
F0
90
90
90
90
ENDCHAR
STARTCHAR uni3151
ENCODING 12625
SWIDTH 1152 0
DWIDTH 12 0
BBX 3 8 3 -1
BITMAP
80
80
E0
80
80
E0
80
80
ENDCHAR
STARTCHAR uni3152
ENCODING 12626
SWIDTH 1152 0
DWIDTH 12 0
BBX 4 8 3 -1
BITMAP
90
90
F0
90
F0
90
90
90
ENDCHAR
STARTCHAR uni3153
ENCODING 12627
SWIDTH 1152 0
DWIDTH 12 0
BBX 4 8 3 -1
BITMAP
10
10
10
F0
10
10
10
10
ENDCHAR
STARTCHAR uni3154
ENCODING 12628
SWIDTH 1152 0
DWIDTH 12 0
BBX 5 8 3 -1
BITMAP
28
28
28
E8
28
28
28
28
ENDCHAR
STARTCHAR uni3155
ENCODING 12629
SWIDTH 1152 0
DWIDTH 12 0
BBX 4 8 3 -1
BITMAP
10
10
F0
10
10
F0
10
10
ENDCHAR
STARTCHAR uni3156
ENCODING 12630
SWIDTH 1152 0
DWIDTH 12 0
BBX 5 8 3 -1
BITMAP
28
28
E8
28
28
E8
28
28
ENDCHAR
STARTCHAR uni3157
ENCODING 12631
SWIDTH 1152 0
DWIDTH 12 0
BBX 9 4 0 1
BITMAP
0800
0800
0800
FF80
ENDCHAR
STARTCHAR uni3158
ENCODING 12632
SWIDTH 1152 0
DWIDTH 12 0
BBX 10 8 0 -1
BITMAP
0100
0100
1100
11C0
1100
FF00
0100
0100
ENDCHAR
STARTCHAR uni3159
ENCODING 12633
SWIDTH 1152 0
DWIDTH 12 0
BBX 7 9 2 -1
BITMAP
02
0A
0A
4A
4A
4E
4A
BA
0A
ENDCHAR
STARTCHAR uni315A
ENCODING 12634
SWIDTH 1152 0
DWIDTH 12 0
BBX 8 9 1 -1
BITMAP
01
01
11
11
11
11
EF
01
01
ENDCHAR
STARTCHAR uni315B
ENCODING 12635
SWIDTH 1152 0
DWIDTH 12 0
BBX 9 5 0 1
BITMAP
1200
1200
1200
1200
FF80
ENDCHAR
STARTCHAR uni315C
ENCODING 12636
SWIDTH 1152 0
DWIDTH 12 0
BBX 9 6 1 -1
BITMAP
FF80
0800
0800
0800
0800
0800
ENDCHAR
STARTCHAR uni315D
ENCODING 12637
SWIDTH 1152 0
DWIDTH 12 0
BBX 8 8 1 -1
BITMAP
01
01
FD
11
17
11
11
11
ENDCHAR
STARTCHAR uni315E
ENCODING 12638
SWIDTH 1152 0
DWIDTH 12 0
BBX 8 9 1 -1
BITMAP
01
05
05
F5
25
3D
25
25
05
ENDCHAR
STARTCHAR uni315F
ENCODING 12639
SWIDTH 1152 0
DWIDTH 12 0
BBX 7 8 2 -1
BITMAP
02
02
0E
F2
22
22
22
02
ENDCHAR
STARTCHAR uni3160
ENCODING 12640
SWIDTH 1152 0
DWIDTH 12 0
BBX 8 7 1 -2
BITMAP
FF
24
24
24
24
24
20
ENDCHAR
STARTCHAR uni3161
ENCODING 12641
SWIDTH 1152 0
DWIDTH 12 0
BBX 8 1 1 3
BITMAP
FF
ENDCHAR
STARTCHAR uni3162
ENCODING 12642
SWIDTH 1152 0
DWIDTH 12 0
BBX 7 8 2 -1
BITMAP
02
02
02
02
0E
F2
02
02
ENDCHAR
STARTCHAR uni3163
ENCODING 12643
SWIDTH 1152 0
DWIDTH 12 0
BBX 1 8 4 -1
BITMAP
80
80
80
80
80
80
80
80
ENDCHAR
STARTCHAR uni3164
ENCODING 12644
SWIDTH 1152 0
DWIDTH 12 0
BBX 0 0 0 0
BITMAP
ENDCHAR
STARTCHAR uni3165
ENCODING 12645
SWIDTH 1152 0
DWIDTH 12 0
BBX 8 6 1 0
BITMAP
08
88
88
88
9F
60
ENDCHAR
STARTCHAR uni3166
ENCODING 12646
SWIDTH 1152 0
DWIDTH 12 0
BBX 8 6 1 0
BITMAP
0F
88
88
88
88
EF
ENDCHAR
STARTCHAR uni3167
ENCODING 12647
SWIDTH 1152 0
DWIDTH 12 0
BBX 8 6 1 0
BITMAP
04
84
8C
8A
91
60
ENDCHAR
STARTCHAR uni3168
ENCODING 12648
SWIDTH 1152 0
DWIDTH 12 0
BBX 8 5 1 0
BITMAP
84
8C
8A
92
EF
ENDCHAR
STARTCHAR uni3169
ENCODING 12649
SWIDTH 1152 0
DWIDTH 12 0
BBX 8 6 1 0
BITMAP
FA
2A
EA
8E
8D
40
ENDCHAR
STARTCHAR uni316A
ENCODING 12650
SWIDTH 1152 0
DWIDTH 12 0
BBX 8 6 1 0
BITMAP
EF
28
E8
88
88
FF
ENDCHAR
STARTCHAR uni316B
ENCODING 12651
SWIDTH 1152 0
DWIDTH 12 0
BBX 9 6 0 0
BITMAP
ED00
2D00
6D00
4E80
4E80
7C00
ENDCHAR
STARTCHAR uni316C
ENCODING 12652
SWIDTH 1152 0
DWIDTH 12 0
BBX 9 6 0 0
BITMAP
F000
1000
7300
4500
4500
3780
ENDCHAR
STARTCHAR uni316D
ENCODING 12653
SWIDTH 1152 0
DWIDTH 12 0
BBX 9 6 0 0
BITMAP
F780
1000
7700
4480
7C80
0300
ENDCHAR
STARTCHAR uni316E
ENCODING 12654
SWIDTH 1152 0
DWIDTH 12 0
BBX 8 6 1 0
BITMAP
01
E9
AF
A9
E9
0F
ENDCHAR
STARTCHAR uni316F
ENCODING 12655
SWIDTH 1152 0
DWIDTH 12 0
BBX 8 5 1 0
BITMAP
E4
A4
A4
EA
01
ENDCHAR
STARTCHAR uni3170
ENCODING 12656
SWIDTH 1152 0
DWIDTH 12 0
BBX 8 5 1 0
BITMAP
E0
A6
AA
EA
0F
ENDCHAR
STARTCHAR uni3171
ENCODING 12657
SWIDTH 1152 0
DWIDTH 12 0
BBX 6 8 2 -1
BITMAP
FC
84
84
FC
78
48
88
70
ENDCHAR
STARTCHAR uni3172
ENCODING 12658
SWIDTH 1152 0
DWIDTH 12 0
BBX 8 6 1 0
BITMAP
1F
91
F1
91
91
F0
ENDCHAR
STARTCHAR uni3173
ENCODING 12659
SWIDTH 1152 0
DWIDTH 12 0
BBX 8 6 1 0
BITMAP
20
AF
E8
A8
A8
EF
ENDCHAR
STARTCHAR uni3174
ENCODING 12660
SWIDTH 1152 0
DWIDTH 12 0
BBX 8 6 1 0
BITMAP
2F
A9
E9
B9
B5
F4
ENDCHAR
STARTCHAR uni3175
ENCODING 12661
SWIDTH 1152 0
DWIDTH 12 0
BBX 8 6 1 0
BITMAP
87
D4
D4
F4
EC
CF
ENDCHAR
STARTCHAR uni3176
ENCODING 12662
SWIDTH 1152 0
DWIDTH 12 0
BBX 8 6 1 0
BITMAP
2F
A4
E4
AA
A9
E0
ENDCHAR
STARTCHAR uni3177
ENCODING 12663
SWIDTH 1152 0
DWIDTH 12 0
BBX 8 6 1 0
BITMAP
AF
A8
EF
A8
A8
EF
ENDCHAR
STARTCHAR uni3178
ENCODING 12664
SWIDTH 1152 0
DWIDTH 12 0
BBX 6 8 2 -1
BITMAP
84
FC
84
FC
30
48
48
50
ENDCHAR
STARTCHAR uni3179
ENCODING 12665
SWIDTH 1152 0
DWIDTH 12 0
BBX 6 8 2 -1
BITMAP
B4
FC
B4
FC
30
48
48
50
ENDCHAR
STARTCHAR uni317A
ENCODING 12666
SWIDTH 1152 0
DWIDTH 12 0
BBX 8 5 1 1
BITMAP
0F
21
21
51
89
ENDCHAR
STARTCHAR uni317B
ENCODING 12667
SWIDTH 1152 0
DWIDTH 12 0
BBX 8 5 1 0
BITMAP
08
48
68
A8
9F
ENDCHAR
STARTCHAR uni317C
ENCODING 12668
SWIDTH 1152 0
DWIDTH 12 0
BBX 8 6 1 0
BITMAP
0F
48
68
A8
98
0F
ENDCHAR
STARTCHAR uni317D
ENCODING 12669
SWIDTH 1152 0
DWIDTH 12 0
BBX 8 6 1 0
BITMAP
49
49
4F
69
69
9F
ENDCHAR
STARTCHAR uni317E
ENCODING 12670
SWIDTH 1152 0
DWIDTH 12 0
BBX 9 5 0 1
BITMAP
2780
2200
6100
5300
8C80
ENDCHAR
STARTCHAR uni317F
ENCODING 12671
SWIDTH 1152 0
DWIDTH 12 0
BBX 6 5 2 0
BITMAP
30
50
48
88
FC
ENDCHAR
STARTCHAR uni3180
ENCODING 12672
SWIDTH 1152 0
DWIDTH 12 0
BBX 8 5 1 0
BITMAP
EF
99
99
99
E6
ENDCHAR
STARTCHAR uni3181
ENCODING 12673
SWIDTH 1152 0
DWIDTH 12 0
BBX 6 5 2 0
BITMAP
78
84
84
CC
78
ENDCHAR
STARTCHAR uni3182
ENCODING 12674
SWIDTH 1152 0
DWIDTH 12 0
BBX 8 6 1 0
BITMAP
20
C0
B4
96
99
60
ENDCHAR
STARTCHAR uni3183
ENCODING 12675
SWIDTH 1152 0
DWIDTH 12 0
BBX 8 5 1 0
BITMAP
E0
9C
9A
9A
6F
ENDCHAR
STARTCHAR uni3184
ENCODING 12676
SWIDTH 1152 0
DWIDTH 12 0
BBX 6 9 2 -2
BITMAP
FC
48
48
FC
20
58
48
48
30
ENDCHAR
STARTCHAR uni3185
ENCODING 12677
SWIDTH 1152 0
DWIDTH 12 0
BBX 8 6 1 0
BITMAP
66
FF
66
A9
A9
66
ENDCHAR
STARTCHAR uni3186
ENCODING 12678
SWIDTH 1152 0
DWIDTH 12 0
BBX 8 7 1 -1
BITMAP
FF
00
18
24
24
24
18
ENDCHAR
STARTCHAR uni3187
ENCODING 12679
SWIDTH 1152 0
DWIDTH 12 0
BBX 9 8 1 -1
BITMAP
0200
5200
5380
5200
5200
7F80
8200
0200
ENDCHAR
STARTCHAR uni3188
ENCODING 12680
SWIDTH 1152 0
DWIDTH 12 0
BBX 7 8 2 -1
BITMAP
0A
0A
6E
6A
6E
FA
0A
0A
ENDCHAR
STARTCHAR uni3189
ENCODING 12681
SWIDTH 1152 0
DWIDTH 12 0
BBX 8 8 1 -1
BITMAP
01
29
29
29
29
FF
01
01
ENDCHAR
STARTCHAR uni318A
ENCODING 12682
SWIDTH 1152 0
DWIDTH 12 0
BBX 7 8 2 -1
BITMAP
02
02
F2
56
52
56
52
02
ENDCHAR
STARTCHAR uni318B
ENCODING 12683
SWIDTH 1152 0
DWIDTH 12 0
BBX 8 8 1 -1
BITMAP
05
05
FD
3D
35
3D
35
05
ENDCHAR
STARTCHAR uni318C
ENCODING 12684
SWIDTH 1152 0
DWIDTH 12 0
BBX 8 8 1 -1
BITMAP
01
01
01
FF
29
29
29
01
ENDCHAR
STARTCHAR uni318D
ENCODING 12685
SWIDTH 1152 0
DWIDTH 12 0
BBX 2 2 4 2
BITMAP
C0
C0
ENDCHAR
STARTCHAR uni318E
ENCODING 12686
SWIDTH 1152 0
DWIDTH 12 0
BBX 5 8 3 -1
BITMAP
08
08
08
08
88
08
08
08
ENDCHAR
STARTCHAR uni3200
ENCODING 12800
SWIDTH 1152 0
DWIDTH 12 0
BBX 10 7 0 -1
BITMAP
4080
BF40
8140
8140
8180
8180
4000
ENDCHAR
STARTCHAR uni3201
ENCODING 12801
SWIDTH 1152 0
DWIDTH 12 0
BBX 10 7 0 -1
BITMAP
6080
A040
A040
A040
BF80
8080
4000
ENDCHAR
STARTCHAR uni3202
ENCODING 12802
SWIDTH 1152 0
DWIDTH 12 0
BBX 10 7 0 -1
BITMAP
4080
BF40
A040
A040
BF80
8080
4000
ENDCHAR
STARTCHAR uni3203
ENCODING 12803
SWIDTH 1152 0
DWIDTH 12 0
BBX 10 7 0 -1
BITMAP
4080
BF40
BF40
A040
BF80
8080
4000
ENDCHAR
STARTCHAR uni3204
ENCODING 12804
SWIDTH 1152 0
DWIDTH 12 0
BBX 10 7 0 -1
BITMAP
4080
BF40
A140
A140
BF80
8080
4000
ENDCHAR
STARTCHAR uni3205
ENCODING 12805
SWIDTH 1152 0
DWIDTH 12 0
BBX 10 7 0 -1
BITMAP
4080
A140
BF40
A140
BF80
8080
4000
ENDCHAR
STARTCHAR uni3206
ENCODING 12806
SWIDTH 1152 0
DWIDTH 12 0
BBX 10 7 0 -1
BITMAP
4080
8040
8840
9440
A380
8080
4000
ENDCHAR
STARTCHAR uni3207
ENCODING 12807
SWIDTH 1152 0
DWIDTH 12 0
BBX 10 8 0 -1
BITMAP
4000
8080
9E40
A140
A140
9E80
8080
4000
ENDCHAR
STARTCHAR uni3208
ENCODING 12808
SWIDTH 1152 0
DWIDTH 12 0
BBX 10 7 0 -1
BITMAP
4080
BF40
8840
8C40
9280
A180
4000
ENDCHAR
STARTCHAR uni3209
ENCODING 12809
SWIDTH 1152 0
DWIDTH 12 0
BBX 10 7 0 -1
BITMAP
4C80
8040
BF40
8840
8C80
B380
4000
ENDCHAR
STARTCHAR uni320A
ENCODING 12810
SWIDTH 1152 0
DWIDTH 12 0
BBX 10 7 0 -1
BITMAP
4080
BE40
8240
9A40
8280
8080
4000
ENDCHAR
STARTCHAR uni320B
ENCODING 12811
SWIDTH 1152 0
DWIDTH 12 0
BBX 10 6 0 0
BITMAP
4080
BF40
BF40
A040
BF80
4080
ENDCHAR
STARTCHAR uni320C
ENCODING 12812
SWIDTH 1152 0
DWIDTH 12 0
BBX 10 7 0 -1
BITMAP
4080
BF40
9240
9240
BF80
8080
4000
ENDCHAR
STARTCHAR uni320D
ENCODING 12813
SWIDTH 1152 0
DWIDTH 12 0
BBX 10 7 0 -1
BITMAP
4C80
BF40
8040
9E40
9280
9E80
4000
ENDCHAR
STARTCHAR uni320E
ENCODING 12814
SWIDTH 1152 0
DWIDTH 12 0
BBX 10 7 0 -1
BITMAP
4280
BA40
8A40
9340
9280
A280
4200
ENDCHAR
STARTCHAR uni320F
ENCODING 12815
SWIDTH 1152 0
DWIDTH 12 0
BBX 10 7 0 -1
BITMAP
4280
A240
A240
A340
BA40
8280
4200
ENDCHAR
STARTCHAR uni3210
ENCODING 12816
SWIDTH 1152 0
DWIDTH 12 0
BBX 10 8 0 -1
BITMAP
0200
4280
BE40
A340
A240
A280
9A80
4000
ENDCHAR
STARTCHAR uni3211
ENCODING 12817
SWIDTH 1152 0
DWIDTH 12 0
BBX 10 7 0 -1
BITMAP
4280
7A40
BA40
A340
A280
9A80
4200
ENDCHAR
STARTCHAR uni3212
ENCODING 12818
SWIDTH 1152 0
DWIDTH 12 0
BBX 10 7 0 -1
BITMAP
4280
BA40
AA40
AB40
BA40
8280
4200
ENDCHAR
STARTCHAR uni3213
ENCODING 12819
SWIDTH 1152 0
DWIDTH 12 0
BBX 10 7 0 -1
BITMAP
4280
AA40
BA40
AB40
BA80
8280
4200
ENDCHAR
STARTCHAR uni3214
ENCODING 12820
SWIDTH 1152 0
DWIDTH 12 0
BBX 10 7 0 -1
BITMAP
4280
9240
9240
AB40
8680
8280
4200
ENDCHAR
STARTCHAR uni3215
ENCODING 12821
SWIDTH 1152 0
DWIDTH 12 0
BBX 10 7 0 -1
BITMAP
7A80
AA40
AA40
AB40
BA80
8280
4200
ENDCHAR
STARTCHAR uni3216
ENCODING 12822
SWIDTH 1152 0
DWIDTH 12 0
BBX 10 7 0 -1
BITMAP
4280
BE40
9240
9340
AA80
A680
4200
ENDCHAR
STARTCHAR uni3217
ENCODING 12823
SWIDTH 1152 0
DWIDTH 12 0
BBX 10 7 0 -1
BITMAP
5A80
BE40
9240
9B40
8A80
8280
4200
ENDCHAR
STARTCHAR uni3218
ENCODING 12824
SWIDTH 1152 0
DWIDTH 12 0
BBX 10 7 0 -1
BITMAP
4280
BA40
8A40
BB40
9280
A280
4200
ENDCHAR
STARTCHAR uni3219
ENCODING 12825
SWIDTH 1152 0
DWIDTH 12 0
BBX 10 8 0 -1
BITMAP
4200
8280
BE40
BB40
A240
A680
9A80
4000
ENDCHAR
STARTCHAR uni321A
ENCODING 12826
SWIDTH 1152 0
DWIDTH 12 0
BBX 10 7 0 -1
BITMAP
7E80
8240
AA40
AB40
7E80
8280
4200
ENDCHAR
STARTCHAR uni321B
ENCODING 12827
SWIDTH 1152 0
DWIDTH 12 0
BBX 10 8 0 -2
BITMAP
5A80
BE40
9A40
AB40
AA80
9A80
4200
2000
ENDCHAR
STARTCHAR uni321C
ENCODING 12828
SWIDTH 1152 0
DWIDTH 12 0
BBX 10 8 0 -1
BITMAP
5E00
8880
8440
9240
BFC0
8440
8480
4400
ENDCHAR
STARTCHAR uni3260
ENCODING 12896
SWIDTH 1152 0
DWIDTH 12 0
BBX 10 9 0 -2
BITMAP
3F00
C080
BF80
8140
8140
8180
8180
6100
1E00
ENDCHAR
STARTCHAR uni3261
ENCODING 12897
SWIDTH 1152 0
DWIDTH 12 0
BBX 10 9 0 -2
BITMAP
3F00
E080
A080
A040
A040
BF80
8080
6100
1E00
ENDCHAR
STARTCHAR uni3262
ENCODING 12898
SWIDTH 1152 0
DWIDTH 12 0
BBX 10 9 0 -2
BITMAP
3F00
C080
BF80
A040
A040
BF80
8080
6100
1E00
ENDCHAR
STARTCHAR uni3263
ENCODING 12899
SWIDTH 1152 0
DWIDTH 12 0
BBX 10 9 0 -2
BITMAP
3F00
C080
BF80
BF40
A080
BF80
8080
6100
1E00
ENDCHAR
STARTCHAR uni3264
ENCODING 12900
SWIDTH 1152 0
DWIDTH 12 0
BBX 10 9 0 -2
BITMAP
3F00
C080
BF80
A140
A180
BF80
8080
6100
1E00
ENDCHAR
STARTCHAR uni3265
ENCODING 12901
SWIDTH 1152 0
DWIDTH 12 0
BBX 10 9 0 -2
BITMAP
3F00
C080
A180
BF40
A180
BF80
8080
6100
1E00
ENDCHAR
STARTCHAR uni3266
ENCODING 12902
SWIDTH 1152 0
DWIDTH 12 0
BBX 10 9 0 -2
BITMAP
3F00
C080
8880
8C40
9280
A180
8080
6100
1E00
ENDCHAR
STARTCHAR uni3267
ENCODING 12903
SWIDTH 1152 0
DWIDTH 12 0
BBX 10 9 0 -2
BITMAP
3F00
C080
9E80
A140
A180
9E80
8080
6100
1E00
ENDCHAR
STARTCHAR uni3268
ENCODING 12904
SWIDTH 1152 0
DWIDTH 12 0
BBX 10 9 0 -2
BITMAP
3F00
C080
BF80
8840
8C80
9280
A180
6100
1E00
ENDCHAR
STARTCHAR uni3269
ENCODING 12905
SWIDTH 1152 0
DWIDTH 12 0
BBX 10 9 0 -2
BITMAP
3F00
CC80
BF80
8840
9480
A380
8080
6100
1E00
ENDCHAR
STARTCHAR uni326A
ENCODING 12906
SWIDTH 1152 0
DWIDTH 12 0
BBX 10 9 0 -2
BITMAP
3F00
C080
BE80
8240
9A80
8280
8080
6100
1E00
ENDCHAR
STARTCHAR uni326B
ENCODING 12907
SWIDTH 1152 0
DWIDTH 12 0
BBX 10 9 0 -2
BITMAP
3F00
C080
BF80
BF40
A040
BF80
8080
6100
1E00
ENDCHAR
STARTCHAR uni326C
ENCODING 12908
SWIDTH 1152 0
DWIDTH 12 0
BBX 10 9 0 -2
BITMAP
3F00
C080
BF80
9240
9480
BF80
8080
6100
1E00
ENDCHAR
STARTCHAR uni326D
ENCODING 12909
SWIDTH 1152 0
DWIDTH 12 0
BBX 10 9 0 -2
BITMAP
3F00
CC80
BF80
8C40
9280
9280
8C80
6100
1E00
ENDCHAR
STARTCHAR uni326E
ENCODING 12910
SWIDTH 1152 0
DWIDTH 12 0
BBX 10 9 0 -2
BITMAP
3F00
C180
B980
8940
8980
9180
8180
6300
1C00
ENDCHAR
STARTCHAR uni326F
ENCODING 12911
SWIDTH 1152 0
DWIDTH 12 0
BBX 10 9 0 -2
BITMAP
3F00
C180
A180
A140
A180
B980
8180
6300
1C00
ENDCHAR
STARTCHAR uni3270
ENCODING 12912
SWIDTH 1152 0
DWIDTH 12 0
BBX 10 9 0 -2
BITMAP
3F00
C280
BE80
A340
A280
A680
9A80
6100
1E00
ENDCHAR
STARTCHAR uni3271
ENCODING 12913
SWIDTH 1152 0
DWIDTH 12 0
BBX 10 9 0 -2
BITMAP
3F00
C180
7980
B940
A180
A580
9980
6300
1C00
ENDCHAR
STARTCHAR uni3272
ENCODING 12914
SWIDTH 1152 0
DWIDTH 12 0
BBX 10 9 0 -2
BITMAP
3F00
C280
BE80
A640
A780
BE80
8280
6300
1C00
ENDCHAR
STARTCHAR uni3273
ENCODING 12915
SWIDTH 1152 0
DWIDTH 12 0
BBX 10 9 0 -2
BITMAP
3F00
C180
A980
B940
A980
B980
8180
6300
1C00
ENDCHAR
STARTCHAR uni3274
ENCODING 12916
SWIDTH 1152 0
DWIDTH 12 0
BBX 10 9 0 -2
BITMAP
3F00
C180
9180
9140
A980
4580
8180
6300
1C00
ENDCHAR
STARTCHAR uni3275
ENCODING 12917
SWIDTH 1152 0
DWIDTH 12 0
BBX 9 9 0 -2
BITMAP
7F00
BA80
C680
C780
C680
BA80
8280
4100
3E00
ENDCHAR
STARTCHAR uni3276
ENCODING 12918
SWIDTH 1152 0
DWIDTH 12 0
BBX 10 9 0 -2
BITMAP
3F00
C280
BE80
9240
8B80
BA80
A680
6300
1C00
ENDCHAR
STARTCHAR uni3277
ENCODING 12919
SWIDTH 1152 0
DWIDTH 12 0
BBX 10 9 0 -2
BITMAP
3F00
DA80
BE80
9240
9B80
AA80
8280
6300
1C00
ENDCHAR
STARTCHAR uni3278
ENCODING 12920
SWIDTH 1152 0
DWIDTH 12 0
BBX 10 9 0 -2
BITMAP
3F00
C280
BA80
8A40
BB80
9280
A280
6300
1C00
ENDCHAR
STARTCHAR uni3279
ENCODING 12921
SWIDTH 1152 0
DWIDTH 12 0
BBX 10 9 0 -2
BITMAP
3F00
C280
BE80
BB40
A280
A680
9A80
6100
1E00
ENDCHAR
STARTCHAR uni327A
ENCODING 12922
SWIDTH 1152 0
DWIDTH 12 0
BBX 10 9 0 -2
BITMAP
3F00
C280
BE80
AA40
AB80
7E80
8280
6300
1C00
ENDCHAR
STARTCHAR uni327B
ENCODING 12923
SWIDTH 1152 0
DWIDTH 12 0
BBX 10 9 0 -2
BITMAP
3F00
DA80
BE80
BE40
A780
BE80
8280
6300
1C00
ENDCHAR
STARTCHAR uni327F
ENCODING 12927
SWIDTH 1152 0
DWIDTH 12 0
BBX 9 9 0 -2
BITMAP
1E00
2100
5480
9800
7580
1280
4080
2100
1E00
ENDCHAR
STARTCHAR uni3380
ENCODING 13184
SWIDTH 1152 0
DWIDTH 12 0
BBX 9 7 0 -1
BITMAP
0300
7300
8D00
8B00
8C80
5400
A000
ENDCHAR
STARTCHAR uni3381
ENCODING 13185
SWIDTH 1152 0
DWIDTH 12 0
BBX 9 6 0 0
BITMAP
0300
7300
9500
9300
9480
0400
ENDCHAR
STARTCHAR uni3382
ENCODING 13186
SWIDTH 1152 0
DWIDTH 12 0
BBX 8 8 1 -1
BITMAP
02
06
06
5A
97
99
A8
C0
ENDCHAR
STARTCHAR uni3383
ENCODING 13187
SWIDTH 1152 0
DWIDTH 12 0
BBX 9 7 0 0
BITMAP
0100
0300
FB00
AA80
AB80
AC80
A800
ENDCHAR
STARTCHAR uni3384
ENCODING 13188
SWIDTH 1152 0
DWIDTH 12 0
BBX 8 7 1 0
BITMAP
84
86
96
AA
E6
A9
99
ENDCHAR
STARTCHAR uni3388
ENCODING 13192
SWIDTH 1152 0
DWIDTH 12 0
BBX 10 8 0 -1
BITMAP
0040
0040
0240
F140
8140
8F40
9940
6700
ENDCHAR
STARTCHAR uni3389
ENCODING 13193
SWIDTH 1152 0
DWIDTH 12 0
BBX 10 7 0 0
BITMAP
8040
8040
B340
E140
E340
E540
B340
ENDCHAR
STARTCHAR uni338A
ENCODING 13194
SWIDTH 1152 0
DWIDTH 12 0
BBX 9 8 0 -1
BITMAP
0780
0400
7400
4F80
8C00
4C00
D400
A000
ENDCHAR
STARTCHAR uni338B
ENCODING 13195
SWIDTH 1152 0
DWIDTH 12 0
BBX 8 7 1 0
BITMAP
0F
08
E8
AF
A8
A8
A8
ENDCHAR
STARTCHAR uni338C
ENCODING 13196
SWIDTH 1152 0
DWIDTH 12 0
BBX 10 9 0 -2
BITMAP
03C0
0200
2600
4BC0
4A00
4A00
CA00
B000
8000
ENDCHAR
STARTCHAR uni338D
ENCODING 13197
SWIDTH 1152 0
DWIDTH 12 0
BBX 9 8 0 -2
BITMAP
2800
4B80
5480
5500
5600
A780
8480
8300
ENDCHAR
STARTCHAR uni338E
ENCODING 13198
SWIDTH 1152 0
DWIDTH 12 0
BBX 9 7 0 -2
BITMAP
F900
AE80
AC80
AB00
AE00
A980
0780
ENDCHAR
STARTCHAR uni338F
ENCODING 13199
SWIDTH 1152 0
DWIDTH 12 0
BBX 9 9 0 -2
BITMAP
8000
8000
9380
A500
E500
A600
9700
0880
0700
ENDCHAR
STARTCHAR uni3390
ENCODING 13200
SWIDTH 1152 0
DWIDTH 12 0
BBX 10 7 0 0
BITMAP
8800
8800
8B80
F900
8900
8A00
8BC0
ENDCHAR
STARTCHAR uni3391
ENCODING 13201
SWIDTH 1152 0
DWIDTH 12 0
BBX 10 7 0 0
BITMAP
9400
9400
B580
DC80
D500
B500
B5C0
ENDCHAR
STARTCHAR uni3392
ENCODING 13202
SWIDTH 1152 0
DWIDTH 12 0
BBX 10 7 0 0
BITMAP
9A00
9A00
9B80
9E80
FA80
DB00
9BC0
ENDCHAR
STARTCHAR uni3393
ENCODING 13203
SWIDTH 1152 0
DWIDTH 12 0
BBX 10 8 0 -1
BITMAP
0A00
EA00
8B80
BE80
9B00
9B00
9BC0
6000
ENDCHAR
STARTCHAR uni3394
ENCODING 13204
SWIDTH 1152 0
DWIDTH 12 0
BBX 10 7 0 0
BITMAP
F200
5200
53C0
5E80
5300
5300
53C0
ENDCHAR
STARTCHAR uni3395
ENCODING 13205
SWIDTH 1152 0
DWIDTH 12 0
BBX 10 9 0 -2
BITMAP
0180
0280
2680
4A80
4B00
4940
C980
B000
8000
ENDCHAR
STARTCHAR uni3396
ENCODING 13206
SWIDTH 1152 0
DWIDTH 12 0
BBX 9 8 0 -1
BITMAP
0380
0280
FA80
AB00
AB00
AA00
AA80
0100
ENDCHAR
STARTCHAR uni3397
ENCODING 13207
SWIDTH 1152 0
DWIDTH 12 0
BBX 9 8 0 -1
BITMAP
0180
0A80
7A80
8B00
8B00
8A00
5280
2100
ENDCHAR
STARTCHAR uni3398
ENCODING 13208
SWIDTH 1152 0
DWIDTH 12 0
BBX 8 8 1 -1
BITMAP
83
85
95
A6
E6
A4
9D
02
ENDCHAR
STARTCHAR uni3399
ENCODING 13209
SWIDTH 1152 0
DWIDTH 12 0
BBX 8 8 1 -1
BITMAP
40
40
CF
55
55
55
55
15
ENDCHAR
STARTCHAR uni339A
ENCODING 13210
SWIDTH 1152 0
DWIDTH 12 0
BBX 10 5 0 0
BITMAP
F7C0
9540
9540
9540
9540
ENDCHAR
STARTCHAR uni339B
ENCODING 13211
SWIDTH 1152 0
DWIDTH 12 0
BBX 10 7 0 -2
BITMAP
27C0
4D40
5540
5540
5540
A000
8000
ENDCHAR
STARTCHAR uni339C
ENCODING 13212
SWIDTH 1152 0
DWIDTH 12 0
BBX 10 5 0 0
BITMAP
F7C0
B540
B540
B540
A540
ENDCHAR
STARTCHAR uni339D
ENCODING 13213
SWIDTH 1152 0
DWIDTH 12 0
BBX 10 6 0 -1
BITMAP
77C0
8540
8540
8D40
5540
2540
ENDCHAR
STARTCHAR uni339E
ENCODING 13214
SWIDTH 1152 0
DWIDTH 12 0
BBX 8 7 1 0
BITMAP
80
80
9F
AB
EB
AB
9B
ENDCHAR
STARTCHAR uni339F
ENCODING 13215
SWIDTH 1152 0
DWIDTH 12 0
BBX 10 8 0 0
BITMAP
00C0
0080
0000
F780
B580
B580
B580
A500
ENDCHAR
STARTCHAR uni33A0
ENCODING 13216
SWIDTH 1152 0
DWIDTH 12 0
BBX 9 9 0 -1
BITMAP
0080
0000
0000
7000
8780
8580
8580
5580
2580
ENDCHAR
STARTCHAR uni33A1
ENCODING 13217
SWIDTH 1152 0
DWIDTH 12 0
BBX 7 6 1 0
BITMAP
02
FE
92
92
92
92
ENDCHAR
STARTCHAR uni33A2
ENCODING 13218
SWIDTH 1152 0
DWIDTH 12 0
BBX 10 7 0 0
BITMAP
8040
8000
9F80
AA80
EA80
AA80
9A80
ENDCHAR
STARTCHAR uni33A3
ENCODING 13219
SWIDTH 1152 0
DWIDTH 12 0
BBX 10 8 0 -1
BITMAP
0040
0040
0680
F780
B680
B680
A680
0480
ENDCHAR
STARTCHAR uni33A4
ENCODING 13220
SWIDTH 1152 0
DWIDTH 12 0
BBX 9 8 0 -1
BITMAP
0080
0080
F680
8780
8680
8680
5680
2680
ENDCHAR
STARTCHAR uni33A5
ENCODING 13221
SWIDTH 1152 0
DWIDTH 12 0
BBX 8 7 1 0
BITMAP
03
03
FE
92
92
92
92
ENDCHAR
STARTCHAR uni33A6
ENCODING 13222
SWIDTH 1152 0
DWIDTH 12 0
BBX 10 8 0 -1
BITMAP
8040
8040
9F80
AA80
EA80
AA80
9A80
0A80
ENDCHAR
STARTCHAR uni33A7
ENCODING 13223
SWIDTH 1152 0
DWIDTH 12 0
BBX 10 9 0 -2
BITMAP
FC00
A480
8500
0200
0400
0BC0
3100
00C0
0180
ENDCHAR
STARTCHAR uni33A8
ENCODING 13224
SWIDTH 1152 0
DWIDTH 12 0
BBX 10 10 0 -2
BITMAP
6C00
B400
A480
A500
8640
0400
0B80
3200
0180
0280
ENDCHAR
STARTCHAR uni33A9
ENCODING 13225
SWIDTH 1152 0
DWIDTH 12 0
BBX 9 8 0 -1
BITMAP
F000
8800
8B80
F080
8380
8480
8580
0200
ENDCHAR
STARTCHAR uni33AA
ENCODING 13226
SWIDTH 1152 0
DWIDTH 12 0
BBX 9 7 0 0
BITMAP
9C00
9200
B380
DC80
D780
B480
B380
ENDCHAR
STARTCHAR uni33AB
ENCODING 13227
SWIDTH 1152 0
DWIDTH 12 0
BBX 10 7 0 0
BITMAP
9C00
9A00
9B80
9A80
FD80
D980
99C0
ENDCHAR
STARTCHAR uni33AC
ENCODING 13228
SWIDTH 1152 0
DWIDTH 12 0
BBX 10 8 0 -1
BITMAP
6C00
8A00
8B80
BE80
9980
9980
99C0
6000
ENDCHAR
STARTCHAR uni33AD
ENCODING 13229
SWIDTH 1152 0
DWIDTH 12 0
BBX 10 8 0 -1
BITMAP
0040
0040
05C0
8640
9E40
A640
1D40
0080
ENDCHAR
STARTCHAR uni33AE
ENCODING 13230
SWIDTH 1152 0
DWIDTH 12 0
BBX 9 9 0 -2
BITMAP
0200
BE00
BA00
BA80
0700
0400
1B00
2180
0180
ENDCHAR
STARTCHAR uni33AF
ENCODING 13231
SWIDTH 1152 0
DWIDTH 12 0
BBX 9 8 0 -1
BITMAP
0400
BC00
9400
F400
2F00
0B80
1100
2080
ENDCHAR
STARTCHAR uni33B0
ENCODING 13232
SWIDTH 1152 0
DWIDTH 12 0
BBX 9 6 0 -1
BITMAP
7780
8C00
8B00
8C80
5280
A100
ENDCHAR
STARTCHAR uni33B1
ENCODING 13233
SWIDTH 1152 0
DWIDTH 12 0
BBX 8 5 1 0
BITMAP
EF
A8
26
29
05
ENDCHAR
STARTCHAR uni33B2
ENCODING 13234
SWIDTH 1152 0
DWIDTH 12 0
BBX 10 7 0 -2
BITMAP
2780
4A00
4980
4A40
5A40
A180
8000
ENDCHAR
STARTCHAR uni33B3
ENCODING 13235
SWIDTH 1152 0
DWIDTH 12 0
BBX 9 5 0 0
BITMAP
FF80
AC00
AB80
A880
AA80
ENDCHAR
STARTCHAR uni33B4
ENCODING 13236
SWIDTH 1152 0
DWIDTH 12 0
BBX 9 7 0 -1
BITMAP
0480
7480
9500
8D00
8B00
5200
A000
ENDCHAR
STARTCHAR uni33B5
ENCODING 13237
SWIDTH 1152 0
DWIDTH 12 0
BBX 9 7 0 0
BITMAP
0080
0880
F500
9500
9500
9600
9200
ENDCHAR
STARTCHAR uni33B6
ENCODING 13238
SWIDTH 1152 0
DWIDTH 12 0
BBX 10 9 0 -2
BITMAP
0040
0280
2680
4A80
4A80
4900
C900
B000
8000
ENDCHAR
STARTCHAR uni33B7
ENCODING 13239
SWIDTH 1152 0
DWIDTH 12 0
BBX 9 7 0 0
BITMAP
0400
0480
FC80
AC80
AB00
AB00
A900
ENDCHAR
STARTCHAR uni33B8
ENCODING 13240
SWIDTH 1152 0
DWIDTH 12 0
BBX 9 7 0 0
BITMAP
8000
8880
9480
A500
E500
A300
9200
ENDCHAR
STARTCHAR uni33B9
ENCODING 13241
SWIDTH 1152 0
DWIDTH 12 0
BBX 10 7 0 0
BITMAP
8840
8C80
8A80
FA80
EA80
EB00
A900
ENDCHAR
STARTCHAR uni33BA
ENCODING 13242
SWIDTH 1152 0
DWIDTH 12 0
BBX 9 8 0 -2
BITMAP
0A80
FB80
9B80
9480
9480
D080
A000
8000
ENDCHAR
STARTCHAR uni33BB
ENCODING 13243
SWIDTH 1152 0
DWIDTH 12 0
BBX 9 7 0 0
BITMAP
0800
0A80
FA80
9D80
9D80
9480
9400
ENDCHAR
STARTCHAR uni33BC
ENCODING 13244
SWIDTH 1152 0
DWIDTH 12 0
BBX 10 9 0 -2
BITMAP
0140
0940
0F80
5780
5780
5380
5080
A000
8000
ENDCHAR
STARTCHAR uni33BD
ENCODING 13245
SWIDTH 1152 0
DWIDTH 12 0
BBX 10 8 0 -1
BITMAP
0040
0980
F980
AF80
AF80
AC80
A880
8000
ENDCHAR
STARTCHAR uni33BE
ENCODING 13246
SWIDTH 1152 0
DWIDTH 12 0
BBX 9 7 0 0
BITMAP
8800
8A80
9B80
AB80
E480
A480
9400
ENDCHAR
STARTCHAR uni33BF
ENCODING 13247
SWIDTH 1152 0
DWIDTH 12 0
BBX 10 7 0 0
BITMAP
9040
9980
9B80
9780
F680
D480
9080
ENDCHAR
STARTCHAR uni33C0
ENCODING 13248
SWIDTH 1152 0
DWIDTH 12 0
BBX 10 7 0 0
BITMAP
8780
84C0
9440
A440
E480
A300
9F80
ENDCHAR
STARTCHAR uni33C1
ENCODING 13249
SWIDTH 1152 0
DWIDTH 12 0
BBX 10 7 0 0
BITMAP
9780
94C0
9440
9440
F480
D300
9F80
ENDCHAR
STARTCHAR uni33C2
ENCODING 13250
SWIDTH 1152 0
DWIDTH 12 0
BBX 10 5 0 0
BITMAP
E780
A680
6680
A680
AEC0
ENDCHAR
STARTCHAR uni33C3
ENCODING 13251
SWIDTH 1152 0
DWIDTH 12 0
BBX 8 9 1 -2
BITMAP
E0
90
94
FB
91
91
8B
F5
01
ENDCHAR
STARTCHAR uni33C4
ENCODING 13252
SWIDTH 1152 0
DWIDTH 12 0
BBX 9 6 0 -1
BITMAP
7380
8400
8400
8C00
5280
2100
ENDCHAR
STARTCHAR uni33C5
ENCODING 13253
SWIDTH 1152 0
DWIDTH 12 0
BBX 10 8 0 -1
BITMAP
0040
0040
73C0
8C40
8440
8C40
52C0
2100
ENDCHAR
STARTCHAR uni33C6
ENCODING 13254
SWIDTH 1152 0
DWIDTH 12 0
BBX 10 10 0 -2
BITMAP
C000
0800
1000
1000
D800
2AC0
2D80
4D00
4AC0
0180
ENDCHAR
STARTCHAR uni33C7
ENCODING 13255
SWIDTH 1152 0
DWIDTH 12 0
BBX 10 9 0 -1
BITMAP
6000
5000
8000
8300
8480
8480
8480
5540
2200
ENDCHAR
STARTCHAR uni33C8
ENCODING 13256
SWIDTH 1152 0
DWIDTH 12 0
BBX 10 8 0 -1
BITMAP
0380
0C40
7C80
8D80
8A40
8A40
5380
2000
ENDCHAR
STARTCHAR uni33C9
ENCODING 13257
SWIDTH 1152 0
DWIDTH 12 0
BBX 9 9 0 -2
BITMAP
7000
8000
8000
8280
8B00
8B00
4900
3200
0200
ENDCHAR
STARTCHAR uni33CA
ENCODING 13258
SWIDTH 1152 0
DWIDTH 12 0
BBX 8 8 1 -1
BITMAP
80
80
EE
AA
A6
AA
8B
04
ENDCHAR
STARTCHAR uni33CF
ENCODING 13263
SWIDTH 1152 0
DWIDTH 12 0
BBX 6 8 2 -1
BITMAP
80
88
9C
A8
E8
A8
98
04
ENDCHAR
STARTCHAR uni33D0
ENCODING 13264
SWIDTH 1152 0
DWIDTH 12 0
BBX 6 7 2 0
BITMAP
80
80
BC
B4
B4
B4
B4
ENDCHAR
STARTCHAR uni33D3
ENCODING 13267
SWIDTH 1152 0
DWIDTH 12 0
BBX 6 7 2 0
BITMAP
80
80
A0
A8
90
A8
A4
ENDCHAR
STARTCHAR uni33D6
ENCODING 13270
SWIDTH 1152 0
DWIDTH 12 0
BBX 8 7 1 0
BITMAP
01
01
FD
DB
D9
DB
DD
ENDCHAR
STARTCHAR uni33D8
ENCODING 13272
SWIDTH 1152 0
DWIDTH 12 0
BBX 10 7 0 -2
BITMAP
E780
9680
9680
9680
F6C0
8000
8000
ENDCHAR
STARTCHAR uni33DB
ENCODING 13275
SWIDTH 1152 0
DWIDTH 12 0
BBX 7 5 1 0
BITMAP
76
84
74
14
54
ENDCHAR
STARTCHAR uni33DC
ENCODING 13276
SWIDTH 1152 0
DWIDTH 12 0
BBX 9 7 0 0
BITMAP
7800
8000
4400
3480
0A80
0B00
5100
ENDCHAR
STARTCHAR uni33DD
ENCODING 13277
SWIDTH 1152 0
DWIDTH 12 0
BBX 10 8 0 -1
BITMAP
A000
AC00
AF80
DC40
DC40
5440
4280
0100
ENDCHAR
STARTCHAR uni4E00
ENCODING 19968
SWIDTH 1152 0
DWIDTH 12 0
BBX 8 1 1 3
BITMAP
FF
ENDCHAR
STARTCHAR uni4E01
ENCODING 19969
SWIDTH 1152 0
DWIDTH 12 0
BBX 9 8 1 -1
BITMAP
FF80
0800
0800
0800
0800
0800
0800
1800
ENDCHAR
STARTCHAR uni4E03
ENCODING 19971
SWIDTH 1152 0
DWIDTH 12 0
BBX 7 7 2 -1
BITMAP
20
20
3E
E0
20
22
3C
ENDCHAR
STARTCHAR uni4E07
ENCODING 19975
SWIDTH 1152 0
DWIDTH 12 0
BBX 9 8 1 -1
BITMAP
FF80
1000
1000
1F00
1100
2200
2200
4200
ENDCHAR
STARTCHAR uni4E08
ENCODING 19976
SWIDTH 1152 0
DWIDTH 12 0
BBX 9 8 1 -1
BITMAP
0800
FF80
0800
2800
2800
1000
2800
C780
ENDCHAR
STARTCHAR uni4E09
ENCODING 19977
SWIDTH 1152 0
DWIDTH 12 0
BBX 8 6 1 0
BITMAP
7F
00
7E
00
00
FF
ENDCHAR
STARTCHAR uni4E0A
ENCODING 19978
SWIDTH 1152 0
DWIDTH 12 0
BBX 10 8 0 -1
BITMAP
0800
0800
0800
0F00
0800
0800
0800
FFC0
ENDCHAR
STARTCHAR uni4E0B
ENCODING 19979
SWIDTH 1152 0
DWIDTH 12 0
BBX 9 8 0 -1
BITMAP
FF80
0800
0800
0C00
0800
0800
0800
0800
ENDCHAR
STARTCHAR uni4E0D
ENCODING 19981
SWIDTH 1152 0
DWIDTH 12 0
BBX 9 8 0 -1
BITMAP
FF80
0800
0800
1800
6900
8880
0800
0800
ENDCHAR
STARTCHAR uni4E11
ENCODING 19985
SWIDTH 1152 0
DWIDTH 12 0
BBX 8 8 1 -1
BITMAP
7C
14
14
FF
24
24
24
FF
ENDCHAR
STARTCHAR uni4E14
ENCODING 19988
SWIDTH 1152 0
DWIDTH 12 0
BBX 9 8 1 -1
BITMAP
3E00
2200
3E00
2200
2200
3E00
2200
FF80
ENDCHAR
STARTCHAR uni4E15
ENCODING 19989
SWIDTH 1152 0
DWIDTH 12 0
BBX 9 8 1 -1
BITMAP
FF80
0800
1400
2A00
4900
0800
0800
FF00
ENDCHAR
STARTCHAR uni4E16
ENCODING 19990
SWIDTH 1152 0
DWIDTH 12 0
BBX 10 8 0 -1
BITMAP
2500
2500
FFC0
2500
2500
2700
2500
3F80
ENDCHAR
STARTCHAR uni4E18
ENCODING 19992
SWIDTH 1152 0
DWIDTH 12 0
BBX 10 8 0 -1
BITMAP
0200
3C00
2000
3F80
2200
2200
2200
FFC0
ENDCHAR
STARTCHAR uni4E19
ENCODING 19993
SWIDTH 1152 0
DWIDTH 12 0
BBX 9 8 1 -1
BITMAP
FF80
0800
FF00
9100
A900
A500
8100
8300
ENDCHAR
STARTCHAR uni4E1E
ENCODING 19998
SWIDTH 1152 0
DWIDTH 12 0
BBX 8 8 2 -1
BITMAP
FC
08
D0
5C
54
92
11
FE
ENDCHAR
STARTCHAR uni4E2D
ENCODING 20013
SWIDTH 1152 0
DWIDTH 12 0
BBX 8 8 1 -1
BITMAP
08
08
FF
89
FF
89
08
08
ENDCHAR
STARTCHAR uni4E32
ENCODING 20018
SWIDTH 1152 0
DWIDTH 12 0
BBX 8 8 1 -1
BITMAP
10
7E
7E
10
FF
FF
91
10
ENDCHAR
STARTCHAR uni4E38
ENCODING 20024
SWIDTH 1152 0
DWIDTH 12 0
BBX 9 9 1 -2
BITMAP
1000
1000
FC00
2400
6400
2400
3400
4480
8700
ENDCHAR
STARTCHAR uni4E39
ENCODING 20025
SWIDTH 1152 0
DWIDTH 12 0
BBX 10 8 0 -1
BITMAP
3F00
2900
2900
FFC0
2100
2100
4100
0300
ENDCHAR
STARTCHAR uni4E3B
ENCODING 20027
SWIDTH 1152 0
DWIDTH 12 0
BBX 9 8 0 -1
BITMAP
0800
7F00
0800
0800
7F00
0800
0800
FF80
ENDCHAR
STARTCHAR uni4E42
ENCODING 20034
SWIDTH 1152 0
DWIDTH 12 0
BBX 8 7 1 -1
BITMAP
24
24
28
18
18
24
C3
ENDCHAR
STARTCHAR uni4E43
ENCODING 20035
SWIDTH 1152 0
DWIDTH 12 0
BBX 8 9 1 -2
BITMAP
FC
24
24
27
25
21
41
82
06
ENDCHAR
STARTCHAR uni4E45
ENCODING 20037
SWIDTH 1152 0
DWIDTH 12 0
BBX 8 7 1 -1
BITMAP
3C
48
08
08
14
62
81
ENDCHAR
STARTCHAR uni4E4B
ENCODING 20043
SWIDTH 1152 0
DWIDTH 12 0
BBX 7 9 1 -2
BITMAP
10
10
FE
04
08
10
E0
20
1E
ENDCHAR
STARTCHAR uni4E4D
ENCODING 20045
SWIDTH 1152 0
DWIDTH 12 0
BBX 9 7 1 -1
BITMAP
3F80
4800
8F00
0800
0F00
0800
0800
ENDCHAR
STARTCHAR uni4E4E
ENCODING 20046
SWIDTH 1152 0
DWIDTH 12 0
BBX 9 8 1 -1
BITMAP
0700
3800
0A00
2C00
FF80
0800
0800
1800
ENDCHAR
STARTCHAR uni4E4F
ENCODING 20047
SWIDTH 1152 0
DWIDTH 12 0
BBX 8 8 1 -1
BITMAP
FE
10
10
FC
08
30
C0
3F
ENDCHAR
STARTCHAR uni4E56
ENCODING 20054
SWIDTH 1152 0
DWIDTH 12 0
BBX 9 8 0 -1
BITMAP
0300
3C00
FF80
1A00
7A80
1B00
1A00
3980
ENDCHAR
STARTCHAR uni4E58
ENCODING 20056
SWIDTH 1152 0
DWIDTH 12 0
BBX 9 8 1 -1
BITMAP
7E00
FF80
2800
EF00
2C00
7F00
4900
0800
ENDCHAR
STARTCHAR uni4E59
ENCODING 20057
SWIDTH 1152 0
DWIDTH 12 0
BBX 8 8 1 -1
BITMAP
F8
0C
10
20
40
80
80
43
ENDCHAR
STARTCHAR uni4E5D
ENCODING 20061
SWIDTH 1152 0
DWIDTH 12 0
BBX 9 8 1 -1
BITMAP
1000
1000
7C00
2400
2400
2400
4480
8700
ENDCHAR
STARTCHAR uni4E5E
ENCODING 20062
SWIDTH 1152 0
DWIDTH 12 0
BBX 7 8 2 -1
BITMAP
40
7E
80
78
10
60
82
FC
ENDCHAR
STARTCHAR uni4E5F
ENCODING 20063
SWIDTH 1152 0
DWIDTH 12 0
BBX 9 8 0 -1
BITMAP
0400
2400
2700
FD00
2500
2400
2400
2180
ENDCHAR
STARTCHAR uni4E6B
ENCODING 20075
SWIDTH 1152 0
DWIDTH 12 0
BBX 8 8 1 -1
BITMAP
07
F5
57
10
FE
10
60
FF
ENDCHAR
STARTCHAR uni4E6D
ENCODING 20077
SWIDTH 1152 0
DWIDTH 12 0
BBX 9 8 1 -1
BITMAP
FF80
1F00
6100
3F00
FE00
0C00
7000
8100
ENDCHAR
STARTCHAR uni4E73
ENCODING 20083
SWIDTH 1152 0
DWIDTH 12 0
BBX 8 9 1 -2
BITMAP
34
E4
04
F4
24
34
64
45
02
ENDCHAR
STARTCHAR uni4E76
ENCODING 20086
SWIDTH 1152 0
DWIDTH 12 0
BBX 8 9 1 -1
BITMAP
10
FE
FE
FE
FE
92
FC
20
C1
ENDCHAR
STARTCHAR uni4E77
ENCODING 20087
SWIDTH 1152 0
DWIDTH 12 0
BBX 8 8 1 -1
BITMAP
88
A8
14
98
7E
08
30
C1
ENDCHAR
STARTCHAR uni4E7E
ENCODING 20094
SWIDTH 1152 0
DWIDTH 12 0
BBX 9 9 0 -1
BITMAP
0200
2400
FB80
7800
7F00
7A00
2200
FC00
2780
ENDCHAR
STARTCHAR uni4E82
ENCODING 20098
SWIDTH 1152 0
DWIDTH 12 0
BBX 9 9 1 -2
BITMAP
7200
FA00
2200
FA00
CA00
FA00
AA00
8A80
0100
ENDCHAR
STARTCHAR uni4E86
ENCODING 20102
SWIDTH 1152 0
DWIDTH 12 0
BBX 7 8 2 -1
BITMAP
FE
04
08
10
10
10
10
60
ENDCHAR
STARTCHAR uni4E88
ENCODING 20104
SWIDTH 1152 0
DWIDTH 12 0
BBX 9 8 1 -1
BITMAP
7E00
0400
1800
FF80
0900
0800
0800
1800
ENDCHAR
STARTCHAR uni4E8B
ENCODING 20107
SWIDTH 1152 0
DWIDTH 12 0
BBX 9 9 0 -2
BITMAP
0800
FF80
3F00
3F00
7F00
FF80
7F00
0800
1000
ENDCHAR
STARTCHAR uni4E8C
ENCODING 20108
SWIDTH 1152 0
DWIDTH 12 0
BBX 8 6 1 0
BITMAP
7E
00
00
00
00
FF
ENDCHAR
STARTCHAR uni4E8E
ENCODING 20110
SWIDTH 1152 0
DWIDTH 12 0
BBX 9 8 1 -1
BITMAP
7F00
0800
0800
FF80
0800
0800
0800
1800
ENDCHAR
STARTCHAR uni4E90
ENCODING 20112
SWIDTH 1152 0
DWIDTH 12 0
BBX 8 8 1 -1
BITMAP
7E
20
FF
20
3E
42
02
04
ENDCHAR
STARTCHAR uni4E91
ENCODING 20113
SWIDTH 1152 0
DWIDTH 12 0
BBX 8 8 1 -1
BITMAP
7E
00
00
FF
20
42
7F
81
ENDCHAR
STARTCHAR uni4E92
ENCODING 20114
SWIDTH 1152 0
DWIDTH 12 0
BBX 8 8 1 -1
BITMAP
FF
20
3C
44
44
3C
04
FF
ENDCHAR
STARTCHAR uni4E94
ENCODING 20116
SWIDTH 1152 0
DWIDTH 12 0
BBX 8 6 1 0
BITMAP
FE
10
7C
24
44
FF
ENDCHAR
STARTCHAR uni4E95
ENCODING 20117
SWIDTH 1152 0
DWIDTH 12 0
BBX 9 8 0 -1
BITMAP
1200
1200
7F80
1200
FF80
2200
2200
4200
ENDCHAR
STARTCHAR uni4E98
ENCODING 20120
SWIDTH 1152 0
DWIDTH 12 0
BBX 8 8 1 -1
BITMAP
FF
00
7E
42
7E
7E
00
FF
ENDCHAR
STARTCHAR uni4E9B
ENCODING 20123
SWIDTH 1152 0
DWIDTH 12 0
BBX 10 8 0 -1
BITMAP
1200
5380
5E00
5240
5380
F800
3F00
7F80
ENDCHAR
STARTCHAR uni4E9E
ENCODING 20126
SWIDTH 1152 0
DWIDTH 12 0
BBX 9 8 0 -1
BITMAP
FF80
1400
7780
4080
4080
7780
1400
FF80
ENDCHAR
STARTCHAR uni4EA1
ENCODING 20129
SWIDTH 1152 0
DWIDTH 12 0
BBX 8 8 1 -1
BITMAP
10
FF
80
80
80
80
80
FF
ENDCHAR
STARTCHAR uni4EA2
ENCODING 20130
SWIDTH 1152 0
DWIDTH 12 0
BBX 8 9 1 -2
BITMAP
10
FF
00
38
28
28
28
C9
0E
ENDCHAR
STARTCHAR uni4EA4
ENCODING 20132
SWIDTH 1152 0
DWIDTH 12 0
BBX 9 8 0 -1
BITMAP
0800
FF80
0200
3180
1200
0C00
0C00
7380
ENDCHAR
STARTCHAR uni4EA5
ENCODING 20133
SWIDTH 1152 0
DWIDTH 12 0
BBX 8 8 1 -1
BITMAP
3C
FF
10
24
1A
24
5C
E3
ENDCHAR
STARTCHAR uni4EA6
ENCODING 20134
SWIDTH 1152 0
DWIDTH 12 0
BBX 9 8 1 -1
BITMAP
0800
FF80
1400
5400
9500
1500
2400
4C00
ENDCHAR
STARTCHAR uni4EA8
ENCODING 20136
SWIDTH 1152 0
DWIDTH 12 0
BBX 8 9 1 -2
BITMAP
FF
00
7E
7E
7E
14
18
08
10
ENDCHAR
STARTCHAR uni4EAB
ENCODING 20139
SWIDTH 1152 0
DWIDTH 12 0
BBX 8 9 1 -2
BITMAP
FF
7E
42
7E
7E
08
FF
08
38
ENDCHAR
STARTCHAR uni4EAC
ENCODING 20140
SWIDTH 1152 0
DWIDTH 12 0
BBX 10 8 0 -1
BITMAP
0400
7FC0
3F00
2100
3F00
0400
2500
CC80
ENDCHAR
STARTCHAR uni4EAD
ENCODING 20141
SWIDTH 1152 0
DWIDTH 12 0
BBX 8 7 1 -1
BITMAP
FF
42
FF
81
7E
08
08
ENDCHAR
STARTCHAR uni4EAE
ENCODING 20142
SWIDTH 1152 0
DWIDTH 12 0
BBX 9 9 0 -2
BITMAP
7F80
3F00
2100
3F00
7F80
5480
1400
E480
0300
ENDCHAR
STARTCHAR uni4EB6
ENCODING 20150
SWIDTH 1152 0
DWIDTH 12 0
BBX 8 8 1 -1
BITMAP
FF
FE
BE
BE
FE
7E
7E
FF
ENDCHAR
STARTCHAR uni4EBA
ENCODING 20154
SWIDTH 1152 0
DWIDTH 12 0
BBX 8 7 1 -1
BITMAP
10
10
18
28
24
42
81
ENDCHAR
STARTCHAR uni4EC0
ENCODING 20160
SWIDTH 1152 0
DWIDTH 12 0
BBX 9 9 1 -1
BITMAP
0400
2400
4400
7F80
C400
4400
4400
4400
4400
ENDCHAR
STARTCHAR uni4EC1
ENCODING 20161
SWIDTH 1152 0
DWIDTH 12 0
BBX 8 8 1 -1
BITMAP
20
5F
C0
40
40
40
5F
40
ENDCHAR
STARTCHAR uni4EC4
ENCODING 20164
SWIDTH 1152 0
DWIDTH 12 0
BBX 8 8 1 -1
BITMAP
7F
88
88
88
98
94
A2
C1
ENDCHAR
STARTCHAR uni4EC7
ENCODING 20167
SWIDTH 1152 0
DWIDTH 12 0
BBX 9 9 1 -2
BITMAP
2800
4800
7E00
CA00
4A00
4A00
5200
4280
0100
ENDCHAR
STARTCHAR uni4ECA
ENCODING 20170
SWIDTH 1152 0
DWIDTH 12 0
BBX 8 8 1 -1
BITMAP
10
28
44
BF
00
7C
04
08
ENDCHAR
STARTCHAR uni4ECB
ENCODING 20171
SWIDTH 1152 0
DWIDTH 12 0
BBX 8 7 1 -1
BITMAP
18
24
C7
24
24
24
44
ENDCHAR
STARTCHAR uni4ECD
ENCODING 20173
SWIDTH 1152 0
DWIDTH 12 0
BBX 8 9 1 -2
BITMAP
3E
52
54
D7
51
51
51
61
46
ENDCHAR
STARTCHAR uni4ED4
ENCODING 20180
SWIDTH 1152 0
DWIDTH 12 0
BBX 7 9 2 -2
BITMAP
7E
84
98
88
FE
88
88
88
18
ENDCHAR
STARTCHAR uni4ED5
ENCODING 20181
SWIDTH 1152 0
DWIDTH 12 0
BBX 9 8 1 -1
BITMAP
2400
4400
4400
FF80
4400
4400
4400
5F00
ENDCHAR
STARTCHAR uni4ED6
ENCODING 20182
SWIDTH 1152 0
DWIDTH 12 0
BBX 9 8 1 -1
BITMAP
2400
5500
5F00
D500
5500
5400
5080
5F00
ENDCHAR
STARTCHAR uni4ED7
ENCODING 20183
SWIDTH 1152 0
DWIDTH 12 0
BBX 8 9 1 -2
BITMAP
24
44
7F
C4
54
48
54
63
40
ENDCHAR
STARTCHAR uni4ED8
ENCODING 20184
SWIDTH 1152 0
DWIDTH 12 0
BBX 9 9 1 -2
BITMAP
2200
4200
DF80
4200
4A00
4A00
4200
4200
0400
ENDCHAR
STARTCHAR uni4ED9
ENCODING 20185
SWIDTH 1152 0
DWIDTH 12 0
BBX 8 9 1 -2
BITMAP
24
44
55
D5
55
55
55
5F
11
ENDCHAR
STARTCHAR uni4EDD
ENCODING 20189
SWIDTH 1152 0
DWIDTH 12 0
BBX 9 8 0 -1
BITMAP
0800
1400
2200
4180
7F00
0800
0800
FF80
ENDCHAR
STARTCHAR uni4EDF
ENCODING 20191
SWIDTH 1152 0
DWIDTH 12 0
BBX 9 8 1 -1
BITMAP
2300
4C00
4400
FF80
4400
4400
4400
4400
ENDCHAR
STARTCHAR uni4EE3
ENCODING 20195
SWIDTH 1152 0
DWIDTH 12 0
BBX 7 9 2 -1
BITMAP
10
10
54
FE
90
90
88
88
86
ENDCHAR
STARTCHAR uni4EE4
ENCODING 20196
SWIDTH 1152 0
DWIDTH 12 0
BBX 7 8 1 -1
BITMAP
10
28
46
38
FE
12
12
14
ENDCHAR
STARTCHAR uni4EE5
ENCODING 20197
SWIDTH 1152 0
DWIDTH 12 0
BBX 8 7 0 -1
BITMAP
40
49
41
41
42
73
8C
ENDCHAR
STARTCHAR uni4EF0
ENCODING 20208
SWIDTH 1152 0
DWIDTH 12 0
BBX 8 9 1 -2
BITMAP
24
5B
D3
53
53
5B
43
42
02
ENDCHAR
STARTCHAR uni4EF2
ENCODING 20210
SWIDTH 1152 0
DWIDTH 12 0
BBX 10 8 0 -1
BITMAP
1200
2200
6FC0
AA40
2FC0
2A40
2200
2200
ENDCHAR
STARTCHAR uni4EF6
ENCODING 20214
SWIDTH 1152 0
DWIDTH 12 0
BBX 9 8 1 -1
BITMAP
2400
5400
5F00
E400
7F80
4400
4400
4400
ENDCHAR
STARTCHAR uni4EF7
ENCODING 20215
SWIDTH 1152 0
DWIDTH 12 0
BBX 8 8 1 -1
BITMAP
28
54
52
E5
54
54
54
64
ENDCHAR
STARTCHAR uni4EFB
ENCODING 20219
SWIDTH 1152 0
DWIDTH 12 0
BBX 9 8 1 -1
BITMAP
2000
5E00
4400
C400
7F80
4400
4400
7F80
ENDCHAR
STARTCHAR uni4F01
ENCODING 20225
SWIDTH 1152 0
DWIDTH 12 0
BBX 8 7 1 -1
BITMAP
18
66
89
28
2F
28
FF
ENDCHAR
STARTCHAR uni4F09
ENCODING 20233
SWIDTH 1152 0
DWIDTH 12 0
BBX 9 10 1 -2
BITMAP
0400
2400
7F80
4000
CE00
4A00
4A00
5200
6280
0100
ENDCHAR
STARTCHAR uni4F0A
ENCODING 20234
SWIDTH 1152 0
DWIDTH 12 0
BBX 8 8 2 -1
BITMAP
7E
92
FF
92
FE
90
A0
C0
ENDCHAR
STARTCHAR uni4F0B
ENCODING 20235
SWIDTH 1152 0
DWIDTH 12 0
BBX 8 9 1 -2
BITMAP
3E
52
5F
D9
56
66
62
4D
40
ENDCHAR
STARTCHAR uni4F0D
ENCODING 20237
SWIDTH 1152 0
DWIDTH 12 0
BBX 8 8 1 -1
BITMAP
3F
48
48
DE
52
52
52
7F
ENDCHAR
STARTCHAR uni4F0E
ENCODING 20238
SWIDTH 1152 0
DWIDTH 12 0
BBX 10 8 0 -1
BITMAP
1200
3FC0
6200
AF80
2C80
2500
2200
2D80
ENDCHAR
STARTCHAR uni4F0F
ENCODING 20239
SWIDTH 1152 0
DWIDTH 12 0
BBX 9 9 1 -1
BITMAP
0400
2400
4500
7F80
C400
4C00
4A00
5100
6080
ENDCHAR
STARTCHAR uni4F10
ENCODING 20240
SWIDTH 1152 0
DWIDTH 12 0
BBX 9 9 1 -2
BITMAP
2A00
4800
7F00
C800
4A00
4400
4C00
7280
0100
ENDCHAR
STARTCHAR uni4F11
ENCODING 20241
SWIDTH 1152 0
DWIDTH 12 0
BBX 9 8 1 -1
BITMAP
2000
4800
FF00
4400
4C00
5600
6580
4400
ENDCHAR
STARTCHAR uni4F2F
ENCODING 20271
SWIDTH 1152 0
DWIDTH 12 0
BBX 8 9 1 -2
BITMAP
24
5F
51
D1
5F
51
51
5F
11
ENDCHAR
STARTCHAR uni4F34
ENCODING 20276
SWIDTH 1152 0
DWIDTH 12 0
BBX 9 8 1 -1
BITMAP
2400
5400
4400
DF00
4400
7F80
4400
4400
ENDCHAR
STARTCHAR uni4F36
ENCODING 20278
SWIDTH 1152 0
DWIDTH 12 0
BBX 8 8 1 -1
BITMAP
08
54
52
DC
7F
49
4B
48
ENDCHAR
STARTCHAR uni4F38
ENCODING 20280
SWIDTH 1152 0
DWIDTH 12 0
BBX 8 8 1 -1
BITMAP
24
5F
55
DF
55
5F
55
44
ENDCHAR
STARTCHAR uni4F3A
ENCODING 20282
SWIDTH 1152 0
DWIDTH 12 0
BBX 7 8 2 -1
BITMAP
7E
82
BE
BA
AA
BA
AA
86
ENDCHAR
STARTCHAR uni4F3C
ENCODING 20284
SWIDTH 1152 0
DWIDTH 12 0
BBX 7 8 2 -1
BITMAP
60
A4
AC
A4
A4
B4
CA
90
ENDCHAR
STARTCHAR uni4F3D
ENCODING 20285
SWIDTH 1152 0
DWIDTH 12 0
BBX 9 9 1 -1
BITMAP
3000
3000
7F80
D680
5680
6680
6680
6780
4A80
ENDCHAR
STARTCHAR uni4F43
ENCODING 20291
SWIDTH 1152 0
DWIDTH 12 0
BBX 8 10 1 -2
BITMAP
20
3F
55
D5
5F
55
55
55
5F
11
ENDCHAR
STARTCHAR uni4F46
ENCODING 20294
SWIDTH 1152 0
DWIDTH 12 0
BBX 7 8 2 -1
BITMAP
7E
62
A2
BE
A2
BE
80
FE
ENDCHAR
STARTCHAR uni4F47
ENCODING 20295
SWIDTH 1152 0
DWIDTH 12 0
BBX 9 8 1 -1
BITMAP
2400
3F00
6100
E100
7F80
4400
4400
4C00
ENDCHAR
STARTCHAR uni4F48
ENCODING 20296
SWIDTH 1152 0
DWIDTH 12 0
BBX 8 7 1 -1
BITMAP
7F
54
DF
75
55
55
54
ENDCHAR
STARTCHAR uni4F4D
ENCODING 20301
SWIDTH 1152 0
DWIDTH 12 0
BBX 9 8 1 -1
BITMAP
2000
4400
5F80
C200
4200
5400
4400
7F00
ENDCHAR
STARTCHAR uni4F4E
ENCODING 20302
SWIDTH 1152 0
DWIDTH 12 0
BBX 9 8 1 -1
BITMAP
2300
7C00
6400
FF80
6400
6200
7200
7D80
ENDCHAR
STARTCHAR uni4F4F
ENCODING 20303
SWIDTH 1152 0
DWIDTH 12 0
BBX 8 8 2 -1
BITMAP
48
88
BF
88
BE
88
88
FF
ENDCHAR
STARTCHAR uni4F50
ENCODING 20304
SWIDTH 1152 0
DWIDTH 12 0
BBX 9 8 1 -1
BITMAP
2000
4800
7F00
D000
5F00
6400
4400
7F80
ENDCHAR
STARTCHAR uni4F51
ENCODING 20305
SWIDTH 1152 0
DWIDTH 12 0
BBX 9 9 1 -2
BITMAP
2400
2400
5F80
C800
4F00
5900
6900
4F00
4800
ENDCHAR
STARTCHAR uni4F55
ENCODING 20309
SWIDTH 1152 0
DWIDTH 12 0
BBX 8 8 2 -1
BITMAP
40
BF
BA
AA
AA
BA
AA
86
ENDCHAR
STARTCHAR uni4F59
ENCODING 20313
SWIDTH 1152 0
DWIDTH 12 0
BBX 9 7 0 -1
BITMAP
1800
2600
FF80
0800
FF00
2A00
4980
ENDCHAR
STARTCHAR uni4F5A
ENCODING 20314
SWIDTH 1152 0
DWIDTH 12 0
BBX 8 9 2 -2
BITMAP
48
A8
BE
C8
FF
88
94
A4
43
ENDCHAR
STARTCHAR uni4F5B
ENCODING 20315
SWIDTH 1152 0
DWIDTH 12 0
BBX 9 8 1 -1
BITMAP
2A00
3F00
4B00
FF00
7F80
6A80
5280
6200
ENDCHAR
STARTCHAR uni4F5C
ENCODING 20316
SWIDTH 1152 0
DWIDTH 12 0
BBX 9 9 1 -1
BITMAP
0800
2800
5F80
5400
C780
4400
4780
4400
4400
ENDCHAR
STARTCHAR uni4F69
ENCODING 20329
SWIDTH 1152 0
DWIDTH 12 0
BBX 7 8 2 -1
BITMAP
7C
C4
FC
FC
FC
FC
FC
92
ENDCHAR
STARTCHAR uni4F6F
ENCODING 20335
SWIDTH 1152 0
DWIDTH 12 0
BBX 9 9 1 -2
BITMAP
2200
5F00
4400
DF00
4400
7F80
4400
4400
0400
ENDCHAR
STARTCHAR uni4F70
ENCODING 20336
SWIDTH 1152 0
DWIDTH 12 0
BBX 9 9 1 -2
BITMAP
1F80
4400
5F00
D100
5F00
5100
5100
5F00
1100
ENDCHAR
STARTCHAR uni4F73
ENCODING 20339
SWIDTH 1152 0
DWIDTH 12 0
BBX 8 8 2 -1
BITMAP
48
BE
88
BF
88
BE
88
BF
ENDCHAR
STARTCHAR uni4F76
ENCODING 20342
SWIDTH 1152 0
DWIDTH 12 0
BBX 9 9 1 -2
BITMAP
2400
3F80
4400
DF00
5F00
5100
5100
5F00
1100
ENDCHAR
STARTCHAR uni4F7A
ENCODING 20346
SWIDTH 1152 0
DWIDTH 12 0
BBX 9 8 1 -1
BITMAP
3C00
4400
4A00
FF80
4400
5F00
4400
7F80
ENDCHAR
STARTCHAR uni4F7E
ENCODING 20350
SWIDTH 1152 0
DWIDTH 12 0
BBX 7 9 1 -2
BITMAP
2C
52
42
DE
5E
5E
62
62
40
ENDCHAR
STARTCHAR uni4F7F
ENCODING 20351
SWIDTH 1152 0
DWIDTH 12 0
BBX 9 8 1 -1
BITMAP
2400
7F80
5F00
D500
5F00
5800
4800
5700
ENDCHAR
STARTCHAR uni4F81
ENCODING 20353
SWIDTH 1152 0
DWIDTH 12 0
BBX 9 9 1 -1
BITMAP
2000
2400
5400
DF80
7F00
4C00
4C00
5480
6700
ENDCHAR
STARTCHAR uni4F83
ENCODING 20355
SWIDTH 1152 0
DWIDTH 12 0
BBX 8 8 1 -1
BITMAP
3E
52
5E
D6
56
56
66
47
ENDCHAR
STARTCHAR uni4F84
ENCODING 20356
SWIDTH 1152 0
DWIDTH 12 0
BBX 9 8 1 -1
BITMAP
1F00
4800
5F00
C400
4400
5F00
4400
7F80
ENDCHAR
STARTCHAR uni4F86
ENCODING 20358
SWIDTH 1152 0
DWIDTH 12 0
BBX 9 8 0 -1
BITMAP
0800
FF80
0800
2B00
5C00
2A00
C980
0800
ENDCHAR
STARTCHAR uni4F88
ENCODING 20360
SWIDTH 1152 0
DWIDTH 12 0
BBX 8 8 1 -1
BITMAP
20
4E
52
C4
5F
4A
44
58
ENDCHAR
STARTCHAR uni4F8A
ENCODING 20362
SWIDTH 1152 0
DWIDTH 12 0
BBX 8 9 1 -2
BITMAP
24
54
44
DF
4C
4C
54
54
27
ENDCHAR
STARTCHAR uni4F8B
ENCODING 20363
SWIDTH 1152 0
DWIDTH 12 0
BBX 8 8 2 -1
BITMAP
79
A5
B5
B5
F5
95
A1
83
ENDCHAR
STARTCHAR uni4F8D
ENCODING 20365
SWIDTH 1152 0
DWIDTH 12 0
BBX 9 8 1 -1
BITMAP
2400
3F00
4400
FF80
4200
7F00
4A00
4200
ENDCHAR
STARTCHAR uni4F8F
ENCODING 20367
SWIDTH 1152 0
DWIDTH 12 0
BBX 9 9 1 -1
BITMAP
0400
1400
5F00
4400
FF80
4400
5E00
4500
4400
ENDCHAR
STARTCHAR uni4F91
ENCODING 20369
SWIDTH 1152 0
DWIDTH 12 0
BBX 9 7 1 -1
BITMAP
5F80
4F00
D900
4F00
4F00
4900
4900
ENDCHAR
STARTCHAR uni4F96
ENCODING 20374
SWIDTH 1152 0
DWIDTH 12 0
BBX 8 8 1 -1
BITMAP
10
2C
FF
00
FE
FE
AA
AE
ENDCHAR
STARTCHAR uni4F98
ENCODING 20376
SWIDTH 1152 0
DWIDTH 12 0
BBX 9 9 1 -2
BITMAP
2400
7F00
6100
C400
4400
5F80
4400
4480
0300
ENDCHAR
STARTCHAR uni4F9B
ENCODING 20379
SWIDTH 1152 0
DWIDTH 12 0
BBX 9 9 1 -2
BITMAP
2A00
2A00
7F80
CA00
4A00
7F80
4200
7100
4000
ENDCHAR
STARTCHAR uni4F9D
ENCODING 20381
SWIDTH 1152 0
DWIDTH 12 0
BBX 8 9 2 -1
BITMAP
08
48
7F
98
A4
E4
A4
AA
D1
ENDCHAR
STARTCHAR uni4FAE
ENCODING 20398
SWIDTH 1152 0
DWIDTH 12 0
BBX 8 9 1 -2
BITMAP
20
3F
5E
E2
7F
62
7F
44
40
ENDCHAR
STARTCHAR uni4FAF
ENCODING 20399
SWIDTH 1152 0
DWIDTH 12 0
BBX 8 9 2 -2
BITMAP
7C
7E
90
BE
88
FF
98
96
21
ENDCHAR
STARTCHAR uni4FB5
ENCODING 20405
SWIDTH 1152 0
DWIDTH 12 0
BBX 9 10 1 -2
BITMAP
2000
3E00
7F00
DE00
7F80
6080
4F00
4A00
4600
1D80
ENDCHAR
STARTCHAR uni4FB6
ENCODING 20406
SWIDTH 1152 0
DWIDTH 12 0
BBX 9 9 0 -2
BITMAP
1780
2480
2780
E680
2F80
2880
2880
2F80
0880
ENDCHAR
STARTCHAR uni4FBF
ENCODING 20415
SWIDTH 1152 0
DWIDTH 12 0
BBX 9 8 1 -1
BITMAP
3F80
5F00
5500
DF00
5F00
5400
4800
5700
ENDCHAR
STARTCHAR uni4FC2
ENCODING 20418
SWIDTH 1152 0
DWIDTH 12 0
BBX 9 9 1 -2
BITMAP
2700
4C00
4A00
C400
5F80
4480
4500
4400
4000
ENDCHAR
STARTCHAR uni4FC3
ENCODING 20419
SWIDTH 1152 0
DWIDTH 12 0
BBX 9 8 1 -1
BITMAP
3F00
5100
5100
CE00
4700
5400
5C00
6380
ENDCHAR
STARTCHAR uni4FC4
ENCODING 20420
SWIDTH 1152 0
DWIDTH 12 0
BBX 8 9 1 -2
BITMAP
24
75
D4
7F
54
5D
72
56
11
ENDCHAR
STARTCHAR uni4FC9
ENCODING 20425
SWIDTH 1152 0
DWIDTH 12 0
BBX 9 9 1 -1
BITMAP
2000
3F80
4400
DF00
4900
7F80
5F00
5100
5F00
ENDCHAR
STARTCHAR uni4FCA
ENCODING 20426
SWIDTH 1152 0
DWIDTH 12 0
BBX 9 8 1 -1
BITMAP
2800
7F00
4200
FB80
4E00
5C00
4400
7B00
ENDCHAR
STARTCHAR uni4FCE
ENCODING 20430
SWIDTH 1152 0
DWIDTH 12 0
BBX 8 8 1 -1
BITMAP
4E
4A
AE
0A
4A
4E
AA
1F
ENDCHAR
STARTCHAR uni4FD1
ENCODING 20433
SWIDTH 1152 0
DWIDTH 12 0
BBX 8 9 1 -2
BITMAP
3E
44
5F
D5
5F
5F
55
55
14
ENDCHAR
STARTCHAR uni4FD3
ENCODING 20435
SWIDTH 1152 0
DWIDTH 12 0
BBX 9 9 1 -2
BITMAP
1F00
4000
5A00
D600
4000
5F00
4400
7F80
4000
ENDCHAR
STARTCHAR uni4FD4
ENCODING 20436
SWIDTH 1152 0
DWIDTH 12 0
BBX 7 9 2 -2
BITMAP
7E
BE
A2
BE
BE
A8
A8
CA
04
ENDCHAR
STARTCHAR uni4FD7
ENCODING 20439
SWIDTH 1152 0
DWIDTH 12 0
BBX 8 9 1 -2
BITMAP
30
64
CC
53
7F
51
51
5F
11
ENDCHAR
STARTCHAR uni4FDA
ENCODING 20442
SWIDTH 1152 0
DWIDTH 12 0
BBX 8 8 2 -1
BITMAP
7E
AA
BE
BE
88
BE
88
FF
ENDCHAR
STARTCHAR uni4FDD
ENCODING 20445
SWIDTH 1152 0
DWIDTH 12 0
BBX 9 9 1 -2
BITMAP
3E00
5200
DE00
4400
7F80
4600
5D00
6480
0400
ENDCHAR
STARTCHAR uni4FDF
ENCODING 20447
SWIDTH 1152 0
DWIDTH 12 0
BBX 9 9 1 -2
BITMAP
2A00
5200
4C00
DF00
4400
7F80
4C00
5300
4000
ENDCHAR
STARTCHAR uni4FE0
ENCODING 20448
SWIDTH 1152 0
DWIDTH 12 0
BBX 8 9 1 -1
BITMAP
20
40
7F
C8
48
7B
4C
52
61
ENDCHAR
STARTCHAR uni4FE1
ENCODING 20449
SWIDTH 1152 0
DWIDTH 12 0
BBX 8 8 1 -1
BITMAP
3E
7F
C0
5E
5E
5F
51
5F
ENDCHAR
STARTCHAR uni4FEE
ENCODING 20462
SWIDTH 1152 0
DWIDTH 12 0
BBX 10 8 0 -1
BITMAP
2780
5D00
D200
55C0
5200
5500
5F00
4E00
ENDCHAR
STARTCHAR uni4FEF
ENCODING 20463
SWIDTH 1152 0
DWIDTH 12 0
BBX 9 9 1 -1
BITMAP
0400
3F00
6000
6100
EB80
5900
6900
6900
4B00
ENDCHAR
STARTCHAR uni4FF1
ENCODING 20465
SWIDTH 1152 0
DWIDTH 12 0
BBX 8 8 1 -1
BITMAP
3E
5E
D2
5E
5E
7F
42
51
ENDCHAR
STARTCHAR uni4FF3
ENCODING 20467
SWIDTH 1152 0
DWIDTH 12 0
BBX 8 9 1 -1
BITMAP
04
2C
7F
CC
7F
4C
7F
54
64
ENDCHAR
STARTCHAR uni4FF5
ENCODING 20469
SWIDTH 1152 0
DWIDTH 12 0
BBX 9 8 1 -1
BITMAP
2400
5F80
DF00
7F80
4C00
7300
5100
5880
ENDCHAR
STARTCHAR uni4FF8
ENCODING 20472
SWIDTH 1152 0
DWIDTH 12 0
BBX 8 8 1 -1
BITMAP
3F
48
5F
FF
56
4F
5F
44
ENDCHAR
STARTCHAR uni4FFA
ENCODING 20474
SWIDTH 1152 0
DWIDTH 12 0
BBX 8 9 2 -2
BITMAP
08
BF
94
BA
BC
AC
BC
8D
06
ENDCHAR
STARTCHAR uni5002
ENCODING 20482
SWIDTH 1152 0
DWIDTH 12 0
BBX 8 9 2 -1
BITMAP
20
64
FF
A4
A4
E4
BF
C4
84
ENDCHAR
STARTCHAR uni5006
ENCODING 20486
SWIDTH 1152 0
DWIDTH 12 0
BBX 8 8 1 -1
BITMAP
3F
44
7F
F7
75
77
65
67
ENDCHAR
STARTCHAR uni5009
ENCODING 20489
SWIDTH 1152 0
DWIDTH 12 0
BBX 7 8 2 -1
BITMAP
20
58
F6
7C
7C
7C
FC
7C
ENDCHAR
STARTCHAR uni500B
ENCODING 20491
SWIDTH 1152 0
DWIDTH 12 0
BBX 9 9 1 -2
BITMAP
3F80
5480
DE80
5E80
5A80
5E80
5080
5F80
1080
ENDCHAR
STARTCHAR uni500D
ENCODING 20493
SWIDTH 1152 0
DWIDTH 12 0
BBX 8 9 2 -2
BITMAP
48
BE
A4
FF
80
BE
A2
BE
22
ENDCHAR
STARTCHAR uni5011
ENCODING 20497
SWIDTH 1152 0
DWIDTH 12 0
BBX 8 9 1 -2
BITMAP
3F
7F
6D
FF
61
61
61
61
22
ENDCHAR
STARTCHAR uni5012
ENCODING 20498
SWIDTH 1152 0
DWIDTH 12 0
BBX 8 8 1 -1
BITMAP
3F
53
53
CB
4B
5F
49
5D
ENDCHAR
STARTCHAR uni5016
ENCODING 20502
SWIDTH 1152 0
DWIDTH 12 0
BBX 9 9 1 -2
BITMAP
2400
3F00
7F80
D200
7F80
4400
7F00
4400
4000
ENDCHAR
STARTCHAR uni5019
ENCODING 20505
SWIDTH 1152 0
DWIDTH 12 0
BBX 8 8 1 -1
BITMAP
3E
22
7F
EF
74
7F
6C
53
ENDCHAR
STARTCHAR uni501A
ENCODING 20506
SWIDTH 1152 0
DWIDTH 12 0
BBX 8 8 2 -1
BITMAP
48
BF
94
BF
82
BE
BE
86
ENDCHAR
STARTCHAR uni501C
ENCODING 20508
SWIDTH 1152 0
DWIDTH 12 0
BBX 8 8 1 -1
BITMAP
07
5F
55
DF
5F
5B
6F
63
ENDCHAR
STARTCHAR uni501E
ENCODING 20510
SWIDTH 1152 0
DWIDTH 12 0
BBX 9 8 1 -1
BITMAP
2400
3F80
4000
DF00
5F00
4400
5400
4400
ENDCHAR
STARTCHAR uni501F
ENCODING 20511
SWIDTH 1152 0
DWIDTH 12 0
BBX 9 8 1 -1
BITMAP
2A00
5F00
CA00
7F80
5F00
5100
5F00
5F00
ENDCHAR
STARTCHAR uni5021
ENCODING 20513
SWIDTH 1152 0
DWIDTH 12 0
BBX 8 8 1 -1
BITMAP
1F
5F
51
DF
5F
5F
51
5F
ENDCHAR
STARTCHAR uni5023
ENCODING 20515
SWIDTH 1152 0
DWIDTH 12 0
BBX 7 8 2 -1
BITMAP
64
F8
AE
BA
DA
DC
DC
82
ENDCHAR
STARTCHAR uni5024
ENCODING 20516
SWIDTH 1152 0
DWIDTH 12 0
BBX 7 8 2 -1
BITMAP
48
BE
9E
DE
D2
DE
DE
FE
ENDCHAR
STARTCHAR uni5026
ENCODING 20518
SWIDTH 1152 0
DWIDTH 12 0
BBX 8 8 1 -1
BITMAP
28
5D
48
FF
5C
77
5C
5E
ENDCHAR
STARTCHAR uni5027
ENCODING 20519
SWIDTH 1152 0
DWIDTH 12 0
BBX 8 10 1 -2
BITMAP
20
24
5F
DF
51
5F
44
4D
55
0C
ENDCHAR
STARTCHAR uni5028
ENCODING 20520
SWIDTH 1152 0
DWIDTH 12 0
BBX 9 9 1 -2
BITMAP
3F00
5100
DF00
5200
5F80
6F00
6900
4F00
0900
ENDCHAR
STARTCHAR uni502A
ENCODING 20522
SWIDTH 1152 0
DWIDTH 12 0
BBX 9 9 1 -2
BITMAP
3F00
5100
5F00
D100
5F00
4A00
4A00
5200
2380
ENDCHAR
STARTCHAR uni502B
ENCODING 20523
SWIDTH 1152 0
DWIDTH 12 0
BBX 8 8 1 -2
BITMAP
3E
7F
C0
5F
5F
5D
5D
40
ENDCHAR
STARTCHAR uni502C
ENCODING 20524
SWIDTH 1152 0
DWIDTH 12 0
BBX 9 8 1 -1
BITMAP
2400
4700
5F00
DF00
5F00
7F80
4400
4400
ENDCHAR
STARTCHAR uni502D
ENCODING 20525
SWIDTH 1152 0
DWIDTH 12 0
BBX 8 10 1 -2
BITMAP
01
3E
34
4F
D5
40
7F
54
7A
40
ENDCHAR
STARTCHAR uni503B
ENCODING 20539
SWIDTH 1152 0
DWIDTH 12 0
BBX 9 9 1 -2
BITMAP
3B80
5B00
DB00
5B00
5A80
5A80
5A80
4A00
0200
ENDCHAR
STARTCHAR uni5043
ENCODING 20547
SWIDTH 1152 0
DWIDTH 12 0
BBX 9 8 1 -1
BITMAP
3F00
2F00
6F00
EF00
7F80
6A00
6600
7F00
ENDCHAR
STARTCHAR uni5047
ENCODING 20551
SWIDTH 1152 0
DWIDTH 12 0
BBX 8 8 1 -1
BITMAP
3F
69
7F
E7
7D
7E
62
6D
ENDCHAR
STARTCHAR uni5048
ENCODING 20552
SWIDTH 1152 0
DWIDTH 12 0
BBX 8 8 1 -1
BITMAP
3F
5F
51
DF
5F
75
5F
53
ENDCHAR
STARTCHAR uni5049
ENCODING 20553
SWIDTH 1152 0
DWIDTH 12 0
BBX 9 9 1 -1
BITMAP
0400
3E00
4A00
5F00
DF00
5F00
5F00
5F80
4400
ENDCHAR
STARTCHAR uni504F
ENCODING 20559
SWIDTH 1152 0
DWIDTH 12 0
BBX 7 9 2 -1
BITMAP
02
7C
BE
A2
BE
BE
BE
EE
AE
ENDCHAR
STARTCHAR uni5055
ENCODING 20565
SWIDTH 1152 0
DWIDTH 12 0
BBX 7 8 2 -1
BITMAP
68
BC
A8
AE
BE
A2
BE
BE
ENDCHAR
STARTCHAR uni505A
ENCODING 20570
SWIDTH 1152 0
DWIDTH 12 0
BBX 8 10 1 -2
BITMAP
10
34
7F
56
FE
6E
6E
7A
6E
58
ENDCHAR
STARTCHAR uni505C
ENCODING 20572
SWIDTH 1152 0
DWIDTH 12 0
BBX 8 9 2 -2
BITMAP
7E
80
BC
BC
FF
FD
88
88
18
ENDCHAR
STARTCHAR uni5065
ENCODING 20581
SWIDTH 1152 0
DWIDTH 12 0
BBX 8 9 2 -2
BITMAP
48
DE
BF
FE
BE
E8
FE
E8
16
ENDCHAR
STARTCHAR uni5074
ENCODING 20596
SWIDTH 1152 0
DWIDTH 12 0
BBX 8 9 1 -2
BITMAP
3D
27
7F
7F
E7
7F
53
65
40
ENDCHAR
STARTCHAR uni5075
ENCODING 20597
SWIDTH 1152 0
DWIDTH 12 0
BBX 8 8 2 -1
BITMAP
48
8F
BE
BE
BE
A2
BE
A2
ENDCHAR
STARTCHAR uni5076
ENCODING 20598
SWIDTH 1152 0
DWIDTH 12 0
BBX 9 8 1 -1
BITMAP
3F00
5F00
5500
DF00
7F80
6480
6F80
6080
ENDCHAR
STARTCHAR uni5078
ENCODING 20600
SWIDTH 1152 0
DWIDTH 12 0
BBX 8 9 1 -2
BITMAP
1C
4C
5F
FB
6D
7E
6D
6B
10
ENDCHAR
STARTCHAR uni5080
ENCODING 20608
SWIDTH 1152 0
DWIDTH 12 0
BBX 9 10 1 -2
BITMAP
2000
2400
5F00
DF00
5500
5F00
4600
5700
6480
0780
ENDCHAR
STARTCHAR uni5085
ENCODING 20613
SWIDTH 1152 0
DWIDTH 12 0
BBX 8 9 2 -2
BITMAP
48
BF
BC
BC
BC
AC
FE
94
08
ENDCHAR
STARTCHAR uni508D
ENCODING 20621
SWIDTH 1152 0
DWIDTH 12 0
BBX 9 9 1 -2
BITMAP
2E00
7F80
5200
FF80
7F00
4800
4E00
5200
4600
ENDCHAR
STARTCHAR uni5091
ENCODING 20625
SWIDTH 1152 0
DWIDTH 12 0
BBX 9 8 1 -1
BITMAP
3200
5F00
7600
DF00
6600
7F80
4E00
7580
ENDCHAR
STARTCHAR uni5098
ENCODING 20632
SWIDTH 1152 0
DWIDTH 12 0
BBX 9 8 0 -2
BITMAP
0E00
3980
3B00
1800
7B00
FF80
0800
0800
ENDCHAR
STARTCHAR uni5099
ENCODING 20633
SWIDTH 1152 0
DWIDTH 12 0
BBX 9 9 1 -2
BITMAP
2A00
7F80
FF80
5F00
5D00
5F00
5F00
6D00
0F00
ENDCHAR
STARTCHAR uni50AC
ENCODING 20652
SWIDTH 1152 0
DWIDTH 12 0
BBX 8 10 1 -2
BITMAP
04
35
5F
50
DF
5F
54
5F
5F
40
ENDCHAR
STARTCHAR uni50AD
ENCODING 20653
SWIDTH 1152 0
DWIDTH 12 0
BBX 9 9 1 -2
BITMAP
3F00
7F00
FF80
7F00
7F00
7F00
5F00
5500
0200
ENDCHAR
STARTCHAR uni50B2
ENCODING 20658
SWIDTH 1152 0
DWIDTH 12 0
BBX 10 8 0 -1
BITMAP
3D00
4A00
7FC0
CA80
5E80
4F00
5500
5680
ENDCHAR
STARTCHAR uni50B3
ENCODING 20659
SWIDTH 1152 0
DWIDTH 12 0
BBX 8 9 2 -1
BITMAP
10
7E
BE
BE
BE
FE
84
FF
94
ENDCHAR
STARTCHAR uni50B5
ENCODING 20661
SWIDTH 1152 0
DWIDTH 12 0
BBX 10 10 0 -2
BITMAP
0200
1FC0
2F80
6200
BFC0
2F80
2F80
2F80
2800
0080
ENDCHAR
STARTCHAR uni50B7
ENCODING 20663
SWIDTH 1152 0
DWIDTH 12 0
BBX 9 8 1 -1
BITMAP
3F00
7E00
5E00
DE00
7F80
5F00
7500
6900
ENDCHAR
STARTCHAR uni50BE
ENCODING 20670
SWIDTH 1152 0
DWIDTH 12 0
BBX 9 8 1 -1
BITMAP
2F80
6700
6500
F700
6700
6500
5700
4100
ENDCHAR
STARTCHAR uni50C5
ENCODING 20677
SWIDTH 1152 0
DWIDTH 12 0
BBX 9 9 1 -1
BITMAP
2000
2A00
5F00
CE00
5F00
5F00
5F00
5F00
7F80
ENDCHAR
STARTCHAR uni50C9
ENCODING 20681
SWIDTH 1152 0
DWIDTH 12 0
BBX 8 8 1 -1
BITMAP
10
2C
7F
7E
7E
20
64
8B
ENDCHAR
STARTCHAR uni50CA
ENCODING 20682
SWIDTH 1152 0
DWIDTH 12 0
BBX 9 9 1 -2
BITMAP
7F80
7F00
EF00
4000
7F80
5F00
7280
5500
1200
ENDCHAR
STARTCHAR uni50CF
ENCODING 20687
SWIDTH 1152 0
DWIDTH 12 0
BBX 8 10 1 -2
BITMAP
08
3E
34
7F
FF
58
4A
76
7D
08
ENDCHAR
STARTCHAR uni50D1
ENCODING 20689
SWIDTH 1152 0
DWIDTH 12 0
BBX 8 9 1 -2
BITMAP
3E
5F
54
DE
4E
7F
6F
6F
60
ENDCHAR
STARTCHAR uni50D5
ENCODING 20693
SWIDTH 1152 0
DWIDTH 12 0
BBX 9 10 1 -2
BITMAP
0400
2D00
3F00
5400
FF00
5F00
7F80
4A00
7180
4000
ENDCHAR
STARTCHAR uni50D6
ENCODING 20694
SWIDTH 1152 0
DWIDTH 12 0
BBX 9 8 1 -1
BITMAP
3F80
5F00
5F00
D100
5F00
7F80
5F00
5F00
ENDCHAR
STARTCHAR uni50DA
ENCODING 20698
SWIDTH 1152 0
DWIDTH 12 0
BBX 9 9 0 -2
BITMAP
2200
5F80
4600
CF00
4F80
4F00
4200
5280
4000
ENDCHAR
STARTCHAR uni50DE
ENCODING 20702
SWIDTH 1152 0
DWIDTH 12 0
BBX 9 9 1 -2
BITMAP
3600
6800
5E00
DF00
5100
5F80
5180
6080
0100
ENDCHAR
STARTCHAR uni50E5
ENCODING 20709
SWIDTH 1152 0
DWIDTH 12 0
BBX 10 9 0 -2
BITMAP
1200
2F80
3FC0
7F80
AFC0
3F80
2A00
2A00
2180
ENDCHAR
STARTCHAR uni50E7
ENCODING 20711
SWIDTH 1152 0
DWIDTH 12 0
BBX 8 9 1 -1
BITMAP
10
26
7F
55
DD
5F
5E
5E
5E
ENDCHAR
STARTCHAR uni50ED
ENCODING 20717
SWIDTH 1152 0
DWIDTH 12 0
BBX 8 9 1 -1
BITMAP
12
3F
56
7E
D2
7F
51
5F
5F
ENDCHAR
STARTCHAR uni50F9
ENCODING 20729
SWIDTH 1152 0
DWIDTH 12 0
BBX 8 9 2 -2
BITMAP
7F
FE
FE
BE
BE
BE
BE
C4
80
ENDCHAR
STARTCHAR uni50FB
ENCODING 20731
SWIDTH 1152 0
DWIDTH 12 0
BBX 9 8 1 -1
BITMAP
7A00
AF00
BD00
AF80
BA00
EF80
BA00
AA00
ENDCHAR
STARTCHAR uni50FF
ENCODING 20735
SWIDTH 1152 0
DWIDTH 12 0
BBX 8 8 1 -1
BITMAP
40
BF
BF
BE
FF
AC
DF
FF
ENDCHAR
STARTCHAR uni5100
ENCODING 20736
SWIDTH 1152 0
DWIDTH 12 0
BBX 9 9 1 -2
BITMAP
3000
7F00
7E00
FF00
7600
7F00
5C00
7280
0500
ENDCHAR
STARTCHAR uni5101
ENCODING 20737
SWIDTH 1152 0
DWIDTH 12 0
BBX 8 9 1 -2
BITMAP
30
5F
7F
DF
5F
5B
5F
51
13
ENDCHAR
STARTCHAR uni5104
ENCODING 20740
SWIDTH 1152 0
DWIDTH 12 0
BBX 9 9 0 -2
BITMAP
2700
5F80
DF80
4F00
4F00
4F00
4680
5480
0300
ENDCHAR
STARTCHAR uni5106
ENCODING 20742
SWIDTH 1152 0
DWIDTH 12 0
BBX 9 9 1 -1
BITMAP
0200
2A00
7F00
6D00
FD00
7D00
7A00
7B00
6480
ENDCHAR
STARTCHAR uni5109
ENCODING 20745
SWIDTH 1152 0
DWIDTH 12 0
BBX 7 8 2 -1
BITMAP
50
A8
FE
FE
DA
FE
A4
DA
ENDCHAR
STARTCHAR uni5112
ENCODING 20754
SWIDTH 1152 0
DWIDTH 12 0
BBX 9 9 1 -2
BITMAP
3F00
3F80
7680
D600
7F00
7F00
6D00
6D00
4000
ENDCHAR
STARTCHAR uni511F
ENCODING 20767
SWIDTH 1152 0
DWIDTH 12 0
BBX 9 8 1 -1
BITMAP
3400
7F80
6E80
EE80
5F00
5F00
5F00
5100
ENDCHAR
STARTCHAR uni5121
ENCODING 20769
SWIDTH 1152 0
DWIDTH 12 0
BBX 8 8 2 -1
BITMAP
7E
BE
AA
BE
FF
FF
FD
FF
ENDCHAR
STARTCHAR uni512A
ENCODING 20778
SWIDTH 1152 0
DWIDTH 12 0
BBX 8 9 2 -2
BITMAP
7E
7C
BC
A4
FF
90
9C
BE
A0
ENDCHAR
STARTCHAR uni5132
ENCODING 20786
SWIDTH 1152 0
DWIDTH 12 0
BBX 8 9 1 -2
BITMAP
74
7F
FD
4F
7F
7D
6F
7F
28
ENDCHAR
STARTCHAR uni5137
ENCODING 20791
SWIDTH 1152 0
DWIDTH 12 0
BBX 9 9 1 -2
BITMAP
3B00
7F00
7F00
FF80
7F80
7F80
5A00
5300
0100
ENDCHAR
STARTCHAR uni513A
ENCODING 20794
SWIDTH 1152 0
DWIDTH 12 0
BBX 10 9 0 -1
BITMAP
1400
1E00
5FC0
5E80
DFC0
5E80
5FC0
4A80
53C0
ENDCHAR
STARTCHAR uni513C
ENCODING 20796
SWIDTH 1152 0
DWIDTH 12 0
BBX 9 9 0 -1
BITMAP
1F80
1680
5F80
5180
DF80
5B80
6E80
7A80
4780
ENDCHAR
STARTCHAR uni5140
ENCODING 20800
SWIDTH 1152 0
DWIDTH 12 0
BBX 9 8 0 -1
BITMAP
FF80
1400
1400
1400
1400
2400
2400
C780
ENDCHAR
STARTCHAR uni5141
ENCODING 20801
SWIDTH 1152 0
DWIDTH 12 0
BBX 9 9 0 -2
BITMAP
0800
1100
7F00
1480
1400
1400
2400
C480
0300
ENDCHAR
STARTCHAR uni5143
ENCODING 20803
SWIDTH 1152 0
DWIDTH 12 0
BBX 9 8 0 -1
BITMAP
3F00
0000
FF80
1400
1400
1400
2400
C780
ENDCHAR
STARTCHAR uni5144
ENCODING 20804
SWIDTH 1152 0
DWIDTH 12 0
BBX 9 8 0 -1
BITMAP
3F00
2100
2100
3F00
1400
2400
2400
C780
ENDCHAR
STARTCHAR uni5145
ENCODING 20805
SWIDTH 1152 0
DWIDTH 12 0
BBX 9 8 0 -1
BITMAP
0800
FF80
1200
7F00
0400
1400
2400
4780
ENDCHAR
STARTCHAR uni5146
ENCODING 20806
SWIDTH 1152 0
DWIDTH 12 0
BBX 8 9 1 -2
BITMAP
08
A8
68
28
2C
6A
28
4D
82
ENDCHAR
STARTCHAR uni5147
ENCODING 20807
SWIDTH 1152 0
DWIDTH 12 0
BBX 7 9 2 -1
BITMAP
84
CC
B4
C4
FC
D4
50
50
9E
ENDCHAR
STARTCHAR uni5148
ENCODING 20808
SWIDTH 1152 0
DWIDTH 12 0
BBX 8 8 1 -1
BITMAP
08
3F
08
FF
18
28
28
C9
ENDCHAR
STARTCHAR uni5149
ENCODING 20809
SWIDTH 1152 0
DWIDTH 12 0
BBX 8 9 1 -2
BITMAP
08
0A
08
FF
18
18
28
49
06
ENDCHAR
STARTCHAR uni514B
ENCODING 20811
SWIDTH 1152 0
DWIDTH 12 0
BBX 9 9 0 -2
BITMAP
0800
FF80
3F00
2100
2100
3F00
3400
2400
0780
ENDCHAR
STARTCHAR uni514C
ENCODING 20812
SWIDTH 1152 0
DWIDTH 12 0
BBX 8 9 1 -2
BITMAP
2C
46
7D
44
7C
18
18
29
C6
ENDCHAR
STARTCHAR uni514D
ENCODING 20813
SWIDTH 1152 0
DWIDTH 12 0
BBX 9 8 1 -1
BITMAP
FF00
1200
2200
7F00
7F00
1800
2880
CF00
ENDCHAR
STARTCHAR uni514E
ENCODING 20814
SWIDTH 1152 0
DWIDTH 12 0
BBX 8 9 1 -2
BITMAP
FE
10
7E
52
7E
5E
28
49
06
ENDCHAR
STARTCHAR uni5152
ENCODING 20818
SWIDTH 1152 0
DWIDTH 12 0
BBX 8 9 1 -2
BITMAP
2E
C2
EE
82
FE
AA
48
88
07
ENDCHAR
STARTCHAR uni515C
ENCODING 20828
SWIDTH 1152 0
DWIDTH 12 0
BBX 8 8 1 -1
BITMAP
C0
BF
BD
E7
BD
08
29
CE
ENDCHAR
STARTCHAR uni5162
ENCODING 20834
SWIDTH 1152 0
DWIDTH 12 0
BBX 10 9 0 -2
BITMAP
2200
FF80
2200
7F80
7F80
5500
5500
1140
01C0
ENDCHAR
STARTCHAR uni5165
ENCODING 20837
SWIDTH 1152 0
DWIDTH 12 0
BBX 8 8 1 -1
BITMAP
30
10
10
18
18
24
42
81
ENDCHAR
STARTCHAR uni5167
ENCODING 20839
SWIDTH 1152 0
DWIDTH 12 0
BBX 8 8 1 -1
BITMAP
70
FF
91
99
A9
A5
81
83
ENDCHAR
STARTCHAR uni5168
ENCODING 20840
SWIDTH 1152 0
DWIDTH 12 0
BBX 8 8 1 -1
BITMAP
38
18
24
FF
10
7C
10
FE
ENDCHAR
STARTCHAR uni5169
ENCODING 20841
SWIDTH 1152 0
DWIDTH 12 0
BBX 9 8 0 -1
BITMAP
FF80
0800
7F80
7E80
5A80
6D80
4880
4880
ENDCHAR
STARTCHAR uni516A
ENCODING 20842
SWIDTH 1152 0
DWIDTH 12 0
BBX 8 8 1 -1
BITMAP
30
18
3C
F7
5A
5A
56
74
ENDCHAR
STARTCHAR uni516B
ENCODING 20843
SWIDTH 1152 0
DWIDTH 12 0
BBX 8 7 1 -1
BITMAP
38
28
28
48
44
82
01
ENDCHAR
STARTCHAR uni516C
ENCODING 20844
SWIDTH 1152 0
DWIDTH 12 0
BBX 8 8 1 -1
BITMAP
18
04
04
42
91
24
22
FD
ENDCHAR
STARTCHAR uni516D
ENCODING 20845
SWIDTH 1152 0
DWIDTH 12 0
BBX 9 8 0 -1
BITMAP
0800
0800
FF80
0000
1000
2200
2100
4080
ENDCHAR
STARTCHAR uni516E
ENCODING 20846
SWIDTH 1152 0
DWIDTH 12 0
BBX 8 7 1 0
BITMAP
1C
04
42
FF
20
3C
04
ENDCHAR
STARTCHAR uni5171
ENCODING 20849
SWIDTH 1152 0
DWIDTH 12 0
BBX 10 8 0 -1
BITMAP
1200
1200
7F80
1200
1200
FFC0
1200
6180
ENDCHAR
STARTCHAR uni5175
ENCODING 20853
SWIDTH 1152 0
DWIDTH 12 0
BBX 10 8 0 -1
BITMAP
0600
3800
3F80
2200
2200
FFC0
1200
2180
ENDCHAR
STARTCHAR uni5176
ENCODING 20854
SWIDTH 1152 0
DWIDTH 12 0
BBX 10 8 0 -1
BITMAP
1200
7F80
1E00
1200
1E00
FFC0
0200
2180
ENDCHAR
STARTCHAR uni5177
ENCODING 20855
SWIDTH 1152 0
DWIDTH 12 0
BBX 10 8 0 -1
BITMAP
3F00
3F00
2100
3F00
3F00
FFC0
2200
C100
ENDCHAR
STARTCHAR uni5178
ENCODING 20856
SWIDTH 1152 0
DWIDTH 12 0
BBX 8 8 1 -1
BITMAP
14
7E
56
7E
56
FF
24
C3
ENDCHAR
STARTCHAR uni517C
ENCODING 20860
SWIDTH 1152 0
DWIDTH 12 0
BBX 8 9 1 -2
BITMAP
2C
FE
18
7E
FF
7E
3C
5B
10
ENDCHAR
STARTCHAR uni5180
ENCODING 20864
SWIDTH 1152 0
DWIDTH 12 0
BBX 10 8 0 -1
BITMAP
7480
1700
7F80
3F00
3F00
7F80
FFC0
2300
ENDCHAR
STARTCHAR uni5186
ENCODING 20870
SWIDTH 1152 0
DWIDTH 12 0
BBX 8 9 1 -2
BITMAP
FF
91
91
91
FF
81
81
81
80
ENDCHAR
STARTCHAR uni518A
ENCODING 20874
SWIDTH 1152 0
DWIDTH 12 0
BBX 8 8 1 -1
BITMAP
76
5A
5A
FF
5A
5A
9A
BE
ENDCHAR
STARTCHAR uni518D
ENCODING 20877
SWIDTH 1152 0
DWIDTH 12 0
BBX 9 8 0 -1
BITMAP
FF80
0800
3F00
3F00
2900
7F80
2100
2100
ENDCHAR
STARTCHAR uni5192
ENCODING 20882
SWIDTH 1152 0
DWIDTH 12 0
BBX 8 8 1 -1
BITMAP
FF
BD
BD
81
7E
7E
7E
7E
ENDCHAR
STARTCHAR uni5195
ENCODING 20885
SWIDTH 1152 0
DWIDTH 12 0
BBX 8 9 1 -2
BITMAP
7E
7E
7E
7C
FE
7E
18
E9
06
ENDCHAR
STARTCHAR uni5197
ENCODING 20887
SWIDTH 1152 0
DWIDTH 12 0
BBX 8 7 1 -1
BITMAP
FF
B9
28
28
28
48
86
ENDCHAR
STARTCHAR uni51A0
ENCODING 20896
SWIDTH 1152 0
DWIDTH 12 0
BBX 8 9 1 -2
BITMAP
FF
83
E2
FF
6A
62
A2
21
1E
ENDCHAR
STARTCHAR uni51A5
ENCODING 20901
SWIDTH 1152 0
DWIDTH 12 0
BBX 9 8 1 -1
BITMAP
FF00
BF00
A300
3E00
3E00
FF80
0400
C300
ENDCHAR
STARTCHAR uni51AA
ENCODING 20906
SWIDTH 1152 0
DWIDTH 12 0
BBX 8 8 1 -1
BITMAP
FF
FF
7E
7E
7E
FF
BE
2A
ENDCHAR
STARTCHAR uni51AC
ENCODING 20908
SWIDTH 1152 0
DWIDTH 12 0
BBX 7 8 1 -1
BITMAP
20
3C
68
18
26
D8
04
38
ENDCHAR
STARTCHAR uni51B6
ENCODING 20918
SWIDTH 1152 0
DWIDTH 12 0
BBX 8 9 1 -2
BITMAP
08
52
13
0C
5F
91
91
1F
10
ENDCHAR
STARTCHAR uni51B7
ENCODING 20919
SWIDTH 1152 0
DWIDTH 12 0
BBX 8 8 1 -1
BITMAP
80
1C
23
1C
7F
89
89
08
ENDCHAR
STARTCHAR uni51BD
ENCODING 20925
SWIDTH 1152 0
DWIDTH 12 0
BBX 8 8 1 -1
BITMAP
3D
53
1B
2B
2B
8B
93
23
ENDCHAR
STARTCHAR uni51C4
ENCODING 20932
SWIDTH 1152 0
DWIDTH 12 0
BBX 9 8 1 -1
BITMAP
7F00
8800
3E00
7F80
3E00
FF00
3800
3600
ENDCHAR
STARTCHAR uni51C6
ENCODING 20934
SWIDTH 1152 0
DWIDTH 12 0
BBX 9 8 1 -1
BITMAP
0400
BF80
6400
3F00
2400
BF00
A400
3F80
ENDCHAR
STARTCHAR uni51C9
ENCODING 20937
SWIDTH 1152 0
DWIDTH 12 0
BBX 8 8 1 -1
BITMAP
88
7F
3F
21
3F
08
AA
48
ENDCHAR
STARTCHAR uni51CB
ENCODING 20939
SWIDTH 1152 0
DWIDTH 12 0
BBX 8 8 1 -1
BITMAP
1F
55
1F
1F
5F
9B
9F
2B
ENDCHAR
STARTCHAR uni51CC
ENCODING 20940
SWIDTH 1152 0
DWIDTH 12 0
BBX 8 9 1 -2
BITMAP
04
1F
3F
14
0F
9C
14
1E
20
ENDCHAR
STARTCHAR uni51CD
ENCODING 20941
SWIDTH 1152 0
DWIDTH 12 0
BBX 9 8 0 -1
BITMAP
0400
3F80
1F00
1F00
1F00
4600
9D00
2480
ENDCHAR
STARTCHAR uni51DC
ENCODING 20956
SWIDTH 1152 0
DWIDTH 12 0
BBX 9 8 1 -1
BITMAP
3F00
BF00
2D00
2D00
BF00
8C00
1F80
1500
ENDCHAR
STARTCHAR uni51DD
ENCODING 20957
SWIDTH 1152 0
DWIDTH 12 0
BBX 10 8 0 -1
BITMAP
1780
1900
1D00
1FC0
4900
BD80
0B00
1080
ENDCHAR
STARTCHAR uni51DE
ENCODING 20958
SWIDTH 1152 0
DWIDTH 12 0
BBX 8 8 1 -1
BITMAP
7F
7D
4F
7C
D4
7F
2A
A9
ENDCHAR
STARTCHAR uni51E1
ENCODING 20961
SWIDTH 1152 0
DWIDTH 12 0
BBX 8 9 1 -2
BITMAP
3C
24
24
7C
24
24
44
85
02
ENDCHAR
STARTCHAR uni51F0
ENCODING 20976
SWIDTH 1152 0
DWIDTH 12 0
BBX 8 8 1 -1
BITMAP
7E
42
7E
7E
7E
7E
BD
FD
ENDCHAR
STARTCHAR uni51F1
ENCODING 20977
SWIDTH 1152 0
DWIDTH 12 0
BBX 8 8 1 -1
BITMAP
DE
DA
FA
FA
FA
FA
B2
53
ENDCHAR
STARTCHAR uni51F6
ENCODING 20982
SWIDTH 1152 0
DWIDTH 12 0
BBX 8 8 1 -1
BITMAP
04
89
99
89
99
85
81
FF
ENDCHAR
STARTCHAR uni51F8
ENCODING 20984
SWIDTH 1152 0
DWIDTH 12 0
BBX 8 8 1 -1
BITMAP
3C
24
24
E7
81
81
81
FF
ENDCHAR
STARTCHAR uni51F9
ENCODING 20985
SWIDTH 1152 0
DWIDTH 12 0
BBX 8 8 1 -2
BITMAP
EF
A9
A9
B9
A9
81
FF
80
ENDCHAR
STARTCHAR uni51FA
ENCODING 20986
SWIDTH 1152 0
DWIDTH 12 0
BBX 8 9 1 -2
BITMAP
08
4A
4A
7E
08
89
89
FF
80
ENDCHAR
STARTCHAR uni51FD
ENCODING 20989
SWIDTH 1152 0
DWIDTH 12 0
BBX 9 9 1 -2
BITMAP
FF80
1000
9100
CD00
8900
EF00
9100
FF00
8000
ENDCHAR
STARTCHAR uni5200
ENCODING 20992
SWIDTH 1152 0
DWIDTH 12 0
BBX 8 8 1 -1
BITMAP
7F
11
11
11
21
22
42
84
ENDCHAR
STARTCHAR uni5203
ENCODING 20995
SWIDTH 1152 0
DWIDTH 12 0
BBX 7 8 1 -1
BITMAP
FE
12
12
52
22
22
42
8C
ENDCHAR
STARTCHAR uni5206
ENCODING 20998
SWIDTH 1152 0
DWIDTH 12 0
BBX 9 9 1 -2
BITMAP
3C00
2400
4400
8200
7D80
2400
4400
8400
1800
ENDCHAR
STARTCHAR uni5207
ENCODING 20999
SWIDTH 1152 0
DWIDTH 12 0
BBX 9 8 1 -1
BITMAP
4F80
4480
5C80
E480
4480
4480
7480
0900
ENDCHAR
STARTCHAR uni5208
ENCODING 21000
SWIDTH 1152 0
DWIDTH 12 0
BBX 8 8 1 -1
BITMAP
11
95
65
25
25
55
49
03
ENDCHAR
STARTCHAR uni520A
ENCODING 21002
SWIDTH 1152 0
DWIDTH 12 0
BBX 8 8 1 -1
BITMAP
F9
25
25
FD
25
25
21
23
ENDCHAR
STARTCHAR uni520E
ENCODING 21006
SWIDTH 1152 0
DWIDTH 12 0
BBX 8 8 1 -1
BITMAP
41
7B
BB
DB
6B
AB
49
83
ENDCHAR
STARTCHAR uni5211
ENCODING 21009
SWIDTH 1152 0
DWIDTH 12 0
BBX 9 8 0 -1
BITMAP
7C80
2A80
2A80
FE80
2A80
2A80
4A80
4980
ENDCHAR
STARTCHAR uni5217
ENCODING 21015
SWIDTH 1152 0
DWIDTH 12 0
BBX 8 8 1 -1
BITMAP
F9
25
35
55
35
15
25
43
ENDCHAR
STARTCHAR uni521D
ENCODING 21021
SWIDTH 1152 0
DWIDTH 12 0
BBX 10 9 0 -2
BITMAP
2000
F7C0
2240
2A40
F240
2240
2240
2440
0080
ENDCHAR
STARTCHAR uni5224
ENCODING 21028
SWIDTH 1152 0
DWIDTH 12 0
BBX 8 9 1 -1
BITMAP
20
21
2B
23
FB
3B
E3
41
41
ENDCHAR
STARTCHAR uni5225
ENCODING 21029
SWIDTH 1152 0
DWIDTH 12 0
BBX 8 9 1 -2
BITMAP
F9
8D
FD
25
3D
4D
49
83
10
ENDCHAR
STARTCHAR uni5229
ENCODING 21033
SWIDTH 1152 0
DWIDTH 12 0
BBX 8 8 1 -1
BITMAP
F1
25
FD
25
75
A5
21
21
ENDCHAR
STARTCHAR uni522A
ENCODING 21034
SWIDTH 1152 0
DWIDTH 12 0
BBX 9 8 0 -1
BITMAP
6D80
6D80
6D80
FF80
6D80
6D80
6C80
6580
ENDCHAR
STARTCHAR uni522E
ENCODING 21038
SWIDTH 1152 0
DWIDTH 12 0
BBX 8 8 1 -1
BITMAP
11
65
25
75
FD
8D
89
FB
ENDCHAR
STARTCHAR uni5230
ENCODING 21040
SWIDTH 1152 0
DWIDTH 12 0
BBX 8 8 1 -1
BITMAP
F9
25
45
FD
25
FD
25
FB
ENDCHAR
STARTCHAR uni5236
ENCODING 21046
SWIDTH 1152 0
DWIDTH 12 0
BBX 9 8 0 -1
BITMAP
5080
7D80
1180
FD80
7D80
5580
5480
5C80
ENDCHAR
STARTCHAR uni5237
ENCODING 21047
SWIDTH 1152 0
DWIDTH 12 0
BBX 10 9 0 -2
BITMAP
7D40
4540
7D40
7D40
6D40
6D40
AD40
8840
0080
ENDCHAR
STARTCHAR uni5238
ENCODING 21048
SWIDTH 1152 0
DWIDTH 12 0
BBX 8 8 1 -2
BITMAP
13
7E
FF
24
7E
14
64
08
ENDCHAR
STARTCHAR uni5239
ENCODING 21049
SWIDTH 1152 0
DWIDTH 12 0
BBX 8 8 1 -1
BITMAP
01
23
5B
2B
FB
23
F9
21
ENDCHAR
STARTCHAR uni523A
ENCODING 21050
SWIDTH 1152 0
DWIDTH 12 0
BBX 8 8 1 -1
BITMAP
21
FB
FB
AB
BB
73
A3
21
ENDCHAR
STARTCHAR uni523B
ENCODING 21051
SWIDTH 1152 0
DWIDTH 12 0
BBX 8 8 1 -1
BITMAP
71
FD
25
D5
25
55
31
C9
ENDCHAR
STARTCHAR uni5243
ENCODING 21059
SWIDTH 1152 0
DWIDTH 12 0
BBX 8 8 1 -1
BITMAP
4D
7D
7D
95
75
B5
51
11
ENDCHAR
STARTCHAR uni5247
ENCODING 21063
SWIDTH 1152 0
DWIDTH 12 0
BBX 8 8 1 -1
BITMAP
F9
8D
FD
FD
8D
FD
51
8B
ENDCHAR
STARTCHAR uni524A
ENCODING 21066
SWIDTH 1152 0
DWIDTH 12 0
BBX 9 8 0 -1
BITMAP
1080
5180
FD80
4580
7D80
7D80
4580
4D80
ENDCHAR
STARTCHAR uni524B
ENCODING 21067
SWIDTH 1152 0
DWIDTH 12 0
BBX 8 9 1 -2
BITMAP
21
FD
FD
8D
FD
65
A3
21
1E
ENDCHAR
STARTCHAR uni524C
ENCODING 21068
SWIDTH 1152 0
DWIDTH 12 0
BBX 8 8 1 -1
BITMAP
F9
23
7B
6B
7B
33
69
21
ENDCHAR
STARTCHAR uni524D
ENCODING 21069
SWIDTH 1152 0
DWIDTH 12 0
BBX 8 10 1 -2
BITMAP
04
28
FF
00
F9
D9
99
99
91
03
ENDCHAR
STARTCHAR uni5254
ENCODING 21076
SWIDTH 1152 0
DWIDTH 12 0
BBX 8 9 1 -2
BITMAP
E1
FD
8D
FD
7D
ED
A9
51
02
ENDCHAR
STARTCHAR uni5256
ENCODING 21078
SWIDTH 1152 0
DWIDTH 12 0
BBX 8 9 1 -2
BITMAP
21
FD
55
FD
05
FD
89
FB
88
ENDCHAR
STARTCHAR uni525B
ENCODING 21083
SWIDTH 1152 0
DWIDTH 12 0
BBX 8 9 1 -2
BITMAP
F9
CB
8B
FB
FB
FB
D9
8B
98
ENDCHAR
STARTCHAR uni525D
ENCODING 21085
SWIDTH 1152 0
DWIDTH 12 0
BBX 9 8 0 -1
BITMAP
3980
2980
7180
FD80
1580
1180
1980
3180
ENDCHAR
STARTCHAR uni5261
ENCODING 21089
SWIDTH 1152 0
DWIDTH 12 0
BBX 8 9 1 -2
BITMAP
05
D5
65
95
05
B5
65
99
02
ENDCHAR
STARTCHAR uni5269
ENCODING 21097
SWIDTH 1152 0
DWIDTH 12 0
BBX 9 9 0 -2
BITMAP
3C00
1180
FD80
7980
3D80
1180
3880
5580
1000
ENDCHAR
STARTCHAR uni526A
ENCODING 21098
SWIDTH 1152 0
DWIDTH 12 0
BBX 8 9 1 -2
BITMAP
24
FF
F5
B5
B5
B0
FF
12
62
ENDCHAR
STARTCHAR uni526F
ENCODING 21103
SWIDTH 1152 0
DWIDTH 12 0
BBX 8 8 1 -1
BITMAP
F9
FB
8B
FB
FB
FB
A9
FB
ENDCHAR
STARTCHAR uni5272
ENCODING 21106
SWIDTH 1152 0
DWIDTH 12 0
BBX 9 8 0 -1
BITMAP
0080
7F80
5380
7D80
FF80
7D80
4480
7D80
ENDCHAR
STARTCHAR uni5275
ENCODING 21109
SWIDTH 1152 0
DWIDTH 12 0
BBX 8 8 1 -1
BITMAP
21
53
BB
7B
7B
7B
7B
FB
ENDCHAR
STARTCHAR uni527D
ENCODING 21117
SWIDTH 1152 0
DWIDTH 12 0
BBX 8 9 1 -2
BITMAP
FB
FB
BB
FB
7B
FB
21
21
40
ENDCHAR
STARTCHAR uni527F
ENCODING 21119
SWIDTH 1152 0
DWIDTH 12 0
BBX 8 8 1 -1
BITMAP
21
D3
43
FB
FB
FB
71
21
ENDCHAR
STARTCHAR uni5283
ENCODING 21123
SWIDTH 1152 0
DWIDTH 12 0
BBX 10 8 0 -1
BITMAP
7D40
FF40
7D40
7D40
FF40
7D40
7D40
3CC0
ENDCHAR
STARTCHAR uni5287
ENCODING 21127
SWIDTH 1152 0
DWIDTH 12 0
BBX 9 8 0 -1
BITMAP
1C80
7F80
7B80
5D80
7F80
6D80
BC80
9900
ENDCHAR
STARTCHAR uni5288
ENCODING 21128
SWIDTH 1152 0
DWIDTH 12 0
BBX 9 9 1 -2
BITMAP
FF80
F500
FF80
5F80
7200
7F00
1200
2200
0400
ENDCHAR
STARTCHAR uni5289
ENCODING 21129
SWIDTH 1152 0
DWIDTH 12 0
BBX 8 8 1 -1
BITMAP
59
DD
8D
25
7D
F5
65
71
ENDCHAR
STARTCHAR uni528D
ENCODING 21133
SWIDTH 1152 0
DWIDTH 12 0
BBX 8 8 1 -1
BITMAP
21
53
BB
FB
FB
03
51
89
ENDCHAR
STARTCHAR uni5291
ENCODING 21137
SWIDTH 1152 0
DWIDTH 12 0
BBX 9 9 0 -2
BITMAP
7E80
1580
7D80
5F80
6D80
7D80
7D80
4580
8400
ENDCHAR
STARTCHAR uni5292
ENCODING 21138
SWIDTH 1152 0
DWIDTH 12 0
BBX 8 9 1 -2
BITMAP
0F
75
75
FD
FD
55
59
A9
02
ENDCHAR
STARTCHAR uni529B
ENCODING 21147
SWIDTH 1152 0
DWIDTH 12 0
BBX 7 9 1 -2
BITMAP
10
10
FE
12
12
22
42
82
04
ENDCHAR
STARTCHAR uni529F
ENCODING 21151
SWIDTH 1152 0
DWIDTH 12 0
BBX 10 9 0 -2
BITMAP
0200
FA00
2FC0
2240
2440
2C40
D840
1040
0080
ENDCHAR
STARTCHAR uni52A0
ENCODING 21152
SWIDTH 1152 0
DWIDTH 12 0
BBX 8 8 1 -1
BITMAP
20
27
FD
2D
2D
4D
4F
05
ENDCHAR
STARTCHAR uni52A3
ENCODING 21155
SWIDTH 1152 0
DWIDTH 12 0
BBX 8 9 1 -2
BITMAP
0A
49
0C
10
E8
7E
12
22
C6
ENDCHAR
STARTCHAR uni52A4
ENCODING 21156
SWIDTH 1152 0
DWIDTH 12 0
BBX 10 9 0 -2
BITMAP
7100
4100
7BC0
5140
5140
5140
9240
1240
0480
ENDCHAR
STARTCHAR uni52A9
ENCODING 21161
SWIDTH 1152 0
DWIDTH 12 0
BBX 9 8 0 -1
BITMAP
7A00
4A00
7F80
4C80
7C80
4C80
F480
1880
ENDCHAR
STARTCHAR uni52AA
ENCODING 21162
SWIDTH 1152 0
DWIDTH 12 0
BBX 8 9 1 -2
BITMAP
4E
EA
A6
66
C1
FE
12
62
04
ENDCHAR
STARTCHAR uni52AB
ENCODING 21163
SWIDTH 1152 0
DWIDTH 12 0
BBX 8 9 1 -1
BITMAP
02
22
FF
23
FB
43
4D
75
0A
ENDCHAR
STARTCHAR uni52BE
ENCODING 21182
SWIDTH 1152 0
DWIDTH 12 0
BBX 8 9 1 -2
BITMAP
62
F2
47
C5
25
65
25
C9
02
ENDCHAR
STARTCHAR uni52C1
ENCODING 21185
SWIDTH 1152 0
DWIDTH 12 0
BBX 9 9 0 -2
BITMAP
7C00
0A00
7780
4A80
FA80
2280
2280
D480
0100
ENDCHAR
STARTCHAR uni52C3
ENCODING 21187
SWIDTH 1152 0
DWIDTH 12 0
BBX 8 8 1 -1
BITMAP
22
FA
FF
FB
13
3D
65
28
ENDCHAR
STARTCHAR uni52C5
ENCODING 21189
SWIDTH 1152 0
DWIDTH 12 0
BBX 9 9 1 -2
BITMAP
2200
FA00
FF80
AA80
FA80
2280
7480
2880
0900
ENDCHAR
STARTCHAR uni52C7
ENCODING 21191
SWIDTH 1152 0
DWIDTH 12 0
BBX 8 10 1 -2
BITMAP
7C
1C
7E
4A
7E
4E
FF
11
22
40
ENDCHAR
STARTCHAR uni52C9
ENCODING 21193
SWIDTH 1152 0
DWIDTH 12 0
BBX 9 9 1 -1
BITMAP
0200
4200
FF00
FD00
AD00
F900
2900
6080
BF00
ENDCHAR
STARTCHAR uni52CD
ENCODING 21197
SWIDTH 1152 0
DWIDTH 12 0
BBX 8 9 1 -2
BITMAP
22
FA
FF
8B
FB
63
AD
25
01
ENDCHAR
STARTCHAR uni52D2
ENCODING 21202
SWIDTH 1152 0
DWIDTH 12 0
BBX 10 10 0 -2
BITMAP
0100
4900
FFC0
7940
7940
7940
1240
7E40
1480
1000
ENDCHAR
STARTCHAR uni52D5
ENCODING 21205
SWIDTH 1152 0
DWIDTH 12 0
BBX 8 9 1 -2
BITMAP
F2
FA
F7
F3
F3
25
FD
29
50
ENDCHAR
STARTCHAR uni52D6
ENCODING 21206
SWIDTH 1152 0
DWIDTH 12 0
BBX 8 9 1 -1
BITMAP
7E
42
7E
0E
F2
9F
F5
95
69
ENDCHAR
STARTCHAR uni52D8
ENCODING 21208
SWIDTH 1152 0
DWIDTH 12 0
BBX 9 9 0 -2
BITMAP
2900
7D00
3B80
3980
FD80
5980
6E80
7C80
4000
ENDCHAR
STARTCHAR uni52D9
ENCODING 21209
SWIDTH 1152 0
DWIDTH 12 0
BBX 8 9 1 -2
BITMAP
F8
2F
1A
FC
2B
FF
25
29
12
ENDCHAR
STARTCHAR uni52DB
ENCODING 21211
SWIDTH 1152 0
DWIDTH 12 0
BBX 8 10 1 -2
BITMAP
02
F2
F2
FF
93
F3
F3
F5
95
0A
ENDCHAR
STARTCHAR uni52DD
ENCODING 21213
SWIDTH 1152 0
DWIDTH 12 0
BBX 8 9 1 -2
BITMAP
EC
B5
EE
BF
F5
AE
AA
2A
40
ENDCHAR
STARTCHAR uni52DE
ENCODING 21214
SWIDTH 1152 0
DWIDTH 12 0
BBX 8 9 1 -2
BITMAP
8D
CC
6A
FF
81
FF
12
24
0C
ENDCHAR
STARTCHAR uni52DF
ENCODING 21215
SWIDTH 1152 0
DWIDTH 12 0
BBX 10 10 0 -2
BITMAP
0200
FFC0
3F00
3F00
3F00
FFC0
1100
3E80
D200
2400
ENDCHAR
STARTCHAR uni52E2
ENCODING 21218
SWIDTH 1152 0
DWIDTH 12 0
BBX 9 10 0 -2
BITMAP
1200
7F00
7D00
5D00
3F00
1880
7F00
1100
2100
C200
ENDCHAR
STARTCHAR uni52E3
ENCODING 21219
SWIDTH 1152 0
DWIDTH 12 0
BBX 9 9 1 -2
BITMAP
FA00
FA00
FF80
F280
F280
F480
F480
9080
0100
ENDCHAR
STARTCHAR uni52E4
ENCODING 21220
SWIDTH 1152 0
DWIDTH 12 0
BBX 9 9 1 -2
BITMAP
5200
FE00
7780
FA80
FA80
FC80
FC80
2880
D100
ENDCHAR
STARTCHAR uni52F3
ENCODING 21235
SWIDTH 1152 0
DWIDTH 12 0
BBX 8 8 1 -1
BITMAP
42
FA
FF
FD
FD
75
FD
C1
ENDCHAR
STARTCHAR uni52F5
ENCODING 21237
SWIDTH 1152 0
DWIDTH 12 0
BBX 10 8 0 -1
BITMAP
7D00
7D00
7FC0
7D40
7D40
7E40
6E40
A480
ENDCHAR
STARTCHAR uni52F8
ENCODING 21240
SWIDTH 1152 0
DWIDTH 12 0
BBX 10 9 0 -1
BITMAP
0800
FF00
0100
6FC0
6D40
3940
3940
3B40
3E80
ENDCHAR
STARTCHAR uni52FA
ENCODING 21242
SWIDTH 1152 0
DWIDTH 12 0
BBX 7 8 2 -1
BITMAP
40
7E
82
02
FA
02
04
0C
ENDCHAR
STARTCHAR uni52FB
ENCODING 21243
SWIDTH 1152 0
DWIDTH 12 0
BBX 8 8 1 -1
BITMAP
20
3F
41
BD
01
1D
21
06
ENDCHAR
STARTCHAR uni52FE
ENCODING 21246
SWIDTH 1152 0
DWIDTH 12 0
BBX 8 7 1 -1
BITMAP
7F
81
A1
21
45
7D
02
ENDCHAR
STARTCHAR uni52FF
ENCODING 21247
SWIDTH 1152 0
DWIDTH 12 0
BBX 8 8 1 -1
BITMAP
20
3F
55
95
29
49
11
26
ENDCHAR
STARTCHAR uni5305
ENCODING 21253
SWIDTH 1152 0
DWIDTH 12 0
BBX 8 7 1 -1
BITMAP
3F
41
F9
49
79
42
41
ENDCHAR
STARTCHAR uni5308
ENCODING 21256
SWIDTH 1152 0
DWIDTH 12 0
BBX 9 8 0 -1
BITMAP
2000
3F80
4480
A680
2E80
2280
3E80
2300
ENDCHAR
STARTCHAR uni530D
ENCODING 21261
SWIDTH 1152 0
DWIDTH 12 0
BBX 8 7 1 -1
BITMAP
7F
7F
91
7D
7D
7D
55
ENDCHAR
STARTCHAR uni530F
ENCODING 21263
SWIDTH 1152 0
DWIDTH 12 0
BBX 8 7 1 -1
BITMAP
FF
79
EF
FF
69
29
6F
ENDCHAR
STARTCHAR uni5310
ENCODING 21264
SWIDTH 1152 0
DWIDTH 12 0
BBX 8 8 1 -1
BITMAP
40
7F
FD
3D
3D
7D
7D
7E
ENDCHAR
STARTCHAR uni5315
ENCODING 21269
SWIDTH 1152 0
DWIDTH 12 0
BBX 6 8 2 -1
BITMAP
80
80
90
A0
C0
80
80
FC
ENDCHAR
STARTCHAR uni5316
ENCODING 21270
SWIDTH 1152 0
DWIDTH 12 0
BBX 9 8 1 -1
BITMAP
2800
4800
C900
4E00
4800
4800
4880
4900
ENDCHAR
STARTCHAR uni5317
ENCODING 21271
SWIDTH 1152 0
DWIDTH 12 0
BBX 9 8 0 -1
BITMAP
1400
1400
F500
1600
1400
3400
D480
1380
ENDCHAR
STARTCHAR uni5319
ENCODING 21273
SWIDTH 1152 0
DWIDTH 12 0
BBX 10 8 0 -1
BITMAP
7A00
7A00
7A80
0300
7E00
5A40
B380
0C80
ENDCHAR
STARTCHAR uni5320
ENCODING 21280
SWIDTH 1152 0
DWIDTH 12 0
BBX 8 8 1 -1
BITMAP
FF
9E
90
9F
A4
84
84
FF
ENDCHAR
STARTCHAR uni5321
ENCODING 21281
SWIDTH 1152 0
DWIDTH 12 0
BBX 8 8 1 -1
BITMAP
FF
80
BE
88
BE
FF
80
FF
ENDCHAR
STARTCHAR uni5323
ENCODING 21283
SWIDTH 1152 0
DWIDTH 12 0
BBX 9 8 1 -1
BITMAP
FF00
FE00
CA00
FE00
FE00
8800
8800
FF80
ENDCHAR
STARTCHAR uni532A
ENCODING 21290
SWIDTH 1152 0
DWIDTH 12 0
BBX 8 8 1 -1
BITMAP
FF
94
F7
F7
94
B7
E4
FF
ENDCHAR
STARTCHAR uni532F
ENCODING 21295
SWIDTH 1152 0
DWIDTH 12 0
BBX 9 8 1 -1
BITMAP
FF00
B000
9F00
9F00
9400
DF00
9F00
FF80
ENDCHAR
STARTCHAR uni5339
ENCODING 21305
SWIDTH 1152 0
DWIDTH 12 0
BBX 8 8 1 -1
BITMAP
FE
98
98
98
A8
8E
FF
80
ENDCHAR
STARTCHAR uni533F
ENCODING 21311
SWIDTH 1152 0
DWIDTH 12 0
BBX 8 8 1 -1
BITMAP
FF
BF
9C
FF
9E
B2
9E
FF
ENDCHAR
STARTCHAR uni5340
ENCODING 21312
SWIDTH 1152 0
DWIDTH 12 0
BBX 8 8 1 -1
BITMAP
FF
BE
A2
BE
B6
B6
B6
FF
ENDCHAR
STARTCHAR uni5341
ENCODING 21313
SWIDTH 1152 0
DWIDTH 12 0
BBX 9 8 1 -1
BITMAP
0800
0800
0800
FF80
0800
0800
0800
0800
ENDCHAR
STARTCHAR uni5343
ENCODING 21315
SWIDTH 1152 0
DWIDTH 12 0
BBX 9 8 0 -1
BITMAP
0700
7800
0800
FF80
0800
0800
0800
0800
ENDCHAR
STARTCHAR uni5344
ENCODING 21316
SWIDTH 1152 0
DWIDTH 12 0
BBX 10 5 0 0
BITMAP
1000
1200
FFC0
1200
1000
ENDCHAR
STARTCHAR uni5347
ENCODING 21319
SWIDTH 1152 0
DWIDTH 12 0
BBX 9 8 0 -1
BITMAP
7200
1200
1200
FF80
2200
2200
2200
4200
ENDCHAR
STARTCHAR uni5348
ENCODING 21320
SWIDTH 1152 0
DWIDTH 12 0
BBX 9 8 1 -1
BITMAP
4000
7F00
8800
8800
FF80
0800
0800
0800
ENDCHAR
STARTCHAR uni5349
ENCODING 21321
SWIDTH 1152 0
DWIDTH 12 0
BBX 9 8 0 -1
BITMAP
0800
FF80
0900
2900
7900
2180
2100
4100
ENDCHAR
STARTCHAR uni534A
ENCODING 21322
SWIDTH 1152 0
DWIDTH 12 0
BBX 9 8 0 -1
BITMAP
0800
2900
4800
7F00
0800
FF80
0800
0800
ENDCHAR
STARTCHAR uni534D
ENCODING 21325
SWIDTH 1152 0
DWIDTH 12 0
BBX 8 8 1 -1
BITMAP
F1
11
11
11
FF
90
90
9F
ENDCHAR
STARTCHAR uni5351
ENCODING 21329
SWIDTH 1152 0
DWIDTH 12 0
BBX 9 9 0 -2
BITMAP
3F00
2500
3F00
2900
3F00
1400
FF80
0400
0400
ENDCHAR
STARTCHAR uni5352
ENCODING 21330
SWIDTH 1152 0
DWIDTH 12 0
BBX 10 8 0 -1
BITMAP
0400
7FC0
0200
3100
0800
FF80
0800
0800
ENDCHAR
STARTCHAR uni5353
ENCODING 21331
SWIDTH 1152 0
DWIDTH 12 0
BBX 9 8 0 -1
BITMAP
0F00
0800
3F00
3F00
3F00
0800
FF80
0800
ENDCHAR
STARTCHAR uni5354
ENCODING 21332
SWIDTH 1152 0
DWIDTH 12 0
BBX 9 9 1 -2
BITMAP
4400
7F00
F900
5200
5000
7B80
6A80
6A80
0580
ENDCHAR
STARTCHAR uni5357
ENCODING 21335
SWIDTH 1152 0
DWIDTH 12 0
BBX 9 9 0 -2
BITMAP
0800
FF80
7F80
4080
5F80
4480
5F80
4580
0400
ENDCHAR
STARTCHAR uni535A
ENCODING 21338
SWIDTH 1152 0
DWIDTH 12 0
BBX 9 9 1 -2
BITMAP
4400
5F80
FF00
5F00
5F00
5700
7F80
4A00
4400
ENDCHAR
STARTCHAR uni535C
ENCODING 21340
SWIDTH 1152 0
DWIDTH 12 0
BBX 3 9 3 -2
BITMAP
80
80
80
C0
A0
80
80
80
80
ENDCHAR
STARTCHAR uni535E
ENCODING 21342
SWIDTH 1152 0
DWIDTH 12 0
BBX 9 8 0 -1
BITMAP
0800
FF80
0800
0800
0A00
0900
0800
0800
ENDCHAR
STARTCHAR uni5360
ENCODING 21344
SWIDTH 1152 0
DWIDTH 12 0
BBX 7 9 1 -2
BITMAP
10
1E
10
10
FE
82
82
FE
80
ENDCHAR
STARTCHAR uni5366
ENCODING 21350
SWIDTH 1152 0
DWIDTH 12 0
BBX 8 8 1 -1
BITMAP
24
FC
24
FC
27
FC
24
FC
ENDCHAR
STARTCHAR uni5368
ENCODING 21352
SWIDTH 1152 0
DWIDTH 12 0
BBX 8 8 1 -1
BITMAP
0F
08
7E
4E
FF
BD
BD
81
ENDCHAR
STARTCHAR uni536F
ENCODING 21359
SWIDTH 1152 0
DWIDTH 12 0
BBX 7 8 2 -1
BITMAP
EE
AA
AA
AA
EA
2A
4E
88
ENDCHAR
STARTCHAR uni5370
ENCODING 21360
SWIDTH 1152 0
DWIDTH 12 0
BBX 8 8 1 -1
BITMAP
3F
C9
89
F9
89
89
F9
88
ENDCHAR
STARTCHAR uni5371
ENCODING 21361
SWIDTH 1152 0
DWIDTH 12 0
BBX 9 8 1 -1
BITMAP
3C00
4800
7F00
4000
5E00
5200
9280
1F00
ENDCHAR
STARTCHAR uni5374
ENCODING 21364
SWIDTH 1152 0
DWIDTH 12 0
BBX 8 8 1 -1
BITMAP
27
FD
25
25
FD
45
45
FC
ENDCHAR
STARTCHAR uni5375
ENCODING 21365
SWIDTH 1152 0
DWIDTH 12 0
BBX 8 8 1 -1
BITMAP
37
D5
97
B7
95
F5
15
64
ENDCHAR
STARTCHAR uni5377
ENCODING 21367
SWIDTH 1152 0
DWIDTH 12 0
BBX 8 9 1 -2
BITMAP
40
91
7E
FF
3C
66
2D
20
1C
ENDCHAR
STARTCHAR uni537D
ENCODING 21373
SWIDTH 1152 0
DWIDTH 12 0
BBX 8 8 1 -1
BITMAP
07
F5
F5
95
F5
C5
86
F4
ENDCHAR
STARTCHAR uni537F
ENCODING 21375
SWIDTH 1152 0
DWIDTH 12 0
BBX 9 8 1 -1
BITMAP
4B80
DE80
DE80
D680
DE80
DE80
5380
9E00
ENDCHAR
STARTCHAR uni5384
ENCODING 21380
SWIDTH 1152 0
DWIDTH 12 0
BBX 10 9 0 -2
BITMAP
7F80
4000
4F00
4900
4900
4B00
8840
8880
0700
ENDCHAR
STARTCHAR uni5393
ENCODING 21395
SWIDTH 1152 0
DWIDTH 12 0
BBX 8 8 1 -1
BITMAP
7F
88
7F
7F
88
FF
88
7F
ENDCHAR
STARTCHAR uni5398
ENCODING 21400
SWIDTH 1152 0
DWIDTH 12 0
BBX 9 8 1 -1
BITMAP
7F80
4000
7F00
7F00
7F00
4800
BE00
FF00
ENDCHAR
STARTCHAR uni539A
ENCODING 21402
SWIDTH 1152 0
DWIDTH 12 0
BBX 8 9 1 -2
BITMAP
7F
BE
BE
BE
BE
84
FF
08
18
ENDCHAR
STARTCHAR uni539F
ENCODING 21407
SWIDTH 1152 0
DWIDTH 12 0
BBX 10 8 0 -1
BITMAP
7FC0
4400
5F80
5F80
5080
9F80
8200
3280
ENDCHAR
STARTCHAR uni53A0
ENCODING 21408
SWIDTH 1152 0
DWIDTH 12 0
BBX 9 8 1 -1
BITMAP
7F80
7900
6B00
7B00
7B00
6B00
B900
C900
ENDCHAR
STARTCHAR uni53A5
ENCODING 21413
SWIDTH 1152 0
DWIDTH 12 0
BBX 10 8 0 -1
BITMAP
7F80
5A00
7F80
7580
7500
7F00
7680
9440
ENDCHAR
STARTCHAR uni53A6
ENCODING 21414
SWIDTH 1152 0
DWIDTH 12 0
BBX 10 8 0 -1
BITMAP
7F80
5FC0
5F80
5F80
5F80
4F80
9500
9FC0
ENDCHAR
STARTCHAR uni53AD
ENCODING 21421
SWIDTH 1152 0
DWIDTH 12 0
BBX 8 9 1 -2
BITMAP
7F
AA
BB
87
BA
AA
BE
29
10
ENDCHAR
STARTCHAR uni53BB
ENCODING 21435
SWIDTH 1152 0
DWIDTH 12 0
BBX 9 8 1 -1
BITMAP
0800
0800
7F00
0800
FF80
1000
2100
1E00
ENDCHAR
STARTCHAR uni53C3
ENCODING 21443
SWIDTH 1152 0
DWIDTH 12 0
BBX 8 9 1 -2
BITMAP
04
7C
45
3A
24
D3
3A
0C
30
ENDCHAR
STARTCHAR uni53C8
ENCODING 21448
SWIDTH 1152 0
DWIDTH 12 0
BBX 8 8 1 -1
BITMAP
FE
04
44
28
28
10
28
C7
ENDCHAR
STARTCHAR uni53C9
ENCODING 21449
SWIDTH 1152 0
DWIDTH 12 0
BBX 8 8 1 -1
BITMAP
FC
04
34
68
28
10
2C
C3
ENDCHAR
STARTCHAR uni53CA
ENCODING 21450
SWIDTH 1152 0
DWIDTH 12 0
BBX 8 8 1 -1
BITMAP
7C
24
24
3E
32
54
8C
3B
ENDCHAR
STARTCHAR uni53CB
ENCODING 21451
SWIDTH 1152 0
DWIDTH 12 0
BBX 8 8 1 -1
BITMAP
10
FF
10
1C
34
54
8C
73
ENDCHAR
STARTCHAR uni53CD
ENCODING 21453
SWIDTH 1152 0
DWIDTH 12 0
BBX 9 8 1 -1
BITMAP
7F00
4000
7E00
5200
5200
8C00
8C00
3380
ENDCHAR
STARTCHAR uni53D4
ENCODING 21460
SWIDTH 1152 0
DWIDTH 12 0
BBX 8 8 1 -1
BITMAP
27
39
25
FD
26
2A
A6
68
ENDCHAR
STARTCHAR uni53D6
ENCODING 21462
SWIDTH 1152 0
DWIDTH 12 0
BBX 9 8 0 -1
BITMAP
FC00
4F80
7880
4900
7D00
4B00
7B00
0800
ENDCHAR
STARTCHAR uni53D7
ENCODING 21463
SWIDTH 1152 0
DWIDTH 12 0
BBX 8 8 1 -1
BITMAP
0E
F2
80
FF
FD
24
18
F7
ENDCHAR
STARTCHAR uni53DB
ENCODING 21467
SWIDTH 1152 0
DWIDTH 12 0
BBX 9 8 0 -1
BITMAP
2780
6C00
2780
7680
F680
2900
4900
4280
ENDCHAR
STARTCHAR uni53E1
ENCODING 21473
SWIDTH 1152 0
DWIDTH 12 0
BBX 9 8 0 -1
BITMAP
1F80
FC80
BE80
7680
3B00
3900
3B00
3C80
ENDCHAR
STARTCHAR uni53E2
ENCODING 21474
SWIDTH 1152 0
DWIDTH 12 0
BBX 9 10 1 -2
BITMAP
0800
FF00
1400
7F00
7F00
FF80
7600
7200
5400
3B00
ENDCHAR
STARTCHAR uni53E3
ENCODING 21475
SWIDTH 1152 0
DWIDTH 12 0
BBX 6 6 2 0
BITMAP
FC
84
84
84
FC
84
ENDCHAR
STARTCHAR uni53E4
ENCODING 21476
SWIDTH 1152 0
DWIDTH 12 0
BBX 9 9 0 -2
BITMAP
0800
0800
FF80
0800
3F00
2100
2100
3F00
2000
ENDCHAR
STARTCHAR uni53E5
ENCODING 21477
SWIDTH 1152 0
DWIDTH 12 0
BBX 8 7 1 -1
BITMAP
7F
81
3D
25
3D
25
03
ENDCHAR
STARTCHAR uni53E9
ENCODING 21481
SWIDTH 1152 0
DWIDTH 12 0
BBX 8 8 1 -1
BITMAP
EF
A9
A9
A9
E9
A9
09
08
ENDCHAR
STARTCHAR uni53EA
ENCODING 21482
SWIDTH 1152 0
DWIDTH 12 0
BBX 8 8 1 -1
BITMAP
7E
42
42
42
7E
24
44
83
ENDCHAR
STARTCHAR uni53EB
ENCODING 21483
SWIDTH 1152 0
DWIDTH 12 0
BBX 9 8 1 -1
BITMAP
E200
AA00
AA00
AA00
EB80
AE00
1200
0200
ENDCHAR
STARTCHAR uni53EC
ENCODING 21484
SWIDTH 1152 0
DWIDTH 12 0
BBX 8 9 1 -2
BITMAP
7F
11
11
26
FF
21
21
3F
20
ENDCHAR
STARTCHAR uni53ED
ENCODING 21485
SWIDTH 1152 0
DWIDTH 12 0
BBX 10 8 0 -1
BITMAP
EE00
A200
A200
A200
EA00
9100
1080
2040
ENDCHAR
STARTCHAR uni53EF
ENCODING 21487
SWIDTH 1152 0
DWIDTH 12 0
BBX 8 8 1 -1
BITMAP
FF
02
7A
4A
4A
7A
42
06
ENDCHAR
STARTCHAR uni53F0
ENCODING 21488
SWIDTH 1152 0
DWIDTH 12 0
BBX 8 9 1 -2
BITMAP
14
62
FE
01
7E
42
42
7E
40
ENDCHAR
STARTCHAR uni53F1
ENCODING 21489
SWIDTH 1152 0
DWIDTH 12 0
BBX 10 8 0 -1
BITMAP
0400
E400
A480
A500
E600
8C00
1440
0480
ENDCHAR
STARTCHAR uni53F2
ENCODING 21490
SWIDTH 1152 0
DWIDTH 12 0
BBX 8 8 1 -1
BITMAP
08
7F
49
7F
49
38
18
E7
ENDCHAR
STARTCHAR uni53F3
ENCODING 21491
SWIDTH 1152 0
DWIDTH 12 0
BBX 10 9 0 -2
BITMAP
0800
FFC0
1000
1000
3F80
5080
5080
1F80
1000
ENDCHAR
STARTCHAR uni53F8
ENCODING 21496
SWIDTH 1152 0
DWIDTH 12 0
BBX 8 9 1 -2
BITMAP
FF
01
FD
01
7D
45
7D
45
02
ENDCHAR
STARTCHAR uni5403
ENCODING 21507
SWIDTH 1152 0
DWIDTH 12 0
BBX 9 8 0 -1
BITMAP
E000
AF80
A000
AE00
E400
A800
1000
0980
ENDCHAR
STARTCHAR uni5404
ENCODING 21508
SWIDTH 1152 0
DWIDTH 12 0
BBX 7 9 2 -2
BITMAP
3C
C8
30
6E
80
7C
44
7C
40
ENDCHAR
STARTCHAR uni5408
ENCODING 21512
SWIDTH 1152 0
DWIDTH 12 0
BBX 8 8 1 -1
BITMAP
10
28
46
FD
00
7E
42
7E
ENDCHAR
STARTCHAR uni5409
ENCODING 21513
SWIDTH 1152 0
DWIDTH 12 0
BBX 9 9 0 -2
BITMAP
0800
FF80
0800
7F00
0000
3F00
2100
3F00
2100
ENDCHAR
STARTCHAR uni540A
ENCODING 21514
SWIDTH 1152 0
DWIDTH 12 0
BBX 8 8 1 -1
BITMAP
7E
42
7E
FF
91
91
91
12
ENDCHAR
STARTCHAR uni540C
ENCODING 21516
SWIDTH 1152 0
DWIDTH 12 0
BBX 8 8 1 -1
BITMAP
FF
81
BD
BD
A5
BD
A5
83
ENDCHAR
STARTCHAR uni540D
ENCODING 21517
SWIDTH 1152 0
DWIDTH 12 0
BBX 8 7 1 -1
BITMAP
1E
64
A8
1F
E1
21
3F
ENDCHAR
STARTCHAR uni540E
ENCODING 21518
SWIDTH 1152 0
DWIDTH 12 0
BBX 9 9 1 -2
BITMAP
0600
7800
7F80
4000
5F00
9100
9100
1F00
1000
ENDCHAR
STARTCHAR uni540F
ENCODING 21519
SWIDTH 1152 0
DWIDTH 12 0
BBX 9 8 1 -1
BITMAP
FF80
0800
7E00
4A00
7E00
3000
1000
EF00
ENDCHAR
STARTCHAR uni5410
ENCODING 21520
SWIDTH 1152 0
DWIDTH 12 0
BBX 9 8 1 -1
BITMAP
0400
C400
C400
DF00
C400
8400
0400
3F80
ENDCHAR
STARTCHAR uni5411
ENCODING 21521
SWIDTH 1152 0
DWIDTH 12 0
BBX 8 8 1 -1
BITMAP
10
FF
81
BD
A5
BD
A5
83
ENDCHAR
STARTCHAR uni541B
ENCODING 21531
SWIDTH 1152 0
DWIDTH 12 0
BBX 10 9 0 -2
BITMAP
3F00
0900
FFC0
7F00
1000
3F80
5080
1F80
0080
ENDCHAR
STARTCHAR uni541D
ENCODING 21533
SWIDTH 1152 0
DWIDTH 12 0
BBX 9 8 0 -1
BITMAP
0800
FF80
3200
1C00
1400
FF80
2100
3F00
ENDCHAR
STARTCHAR uni541F
ENCODING 21535
SWIDTH 1152 0
DWIDTH 12 0
BBX 8 7 1 0
BITMAP
C8
D4
D2
ED
C0
DE
04
ENDCHAR
STARTCHAR uni5420
ENCODING 21536
SWIDTH 1152 0
DWIDTH 12 0
BBX 10 8 0 -1
BITMAP
0200
E280
AFC0
A200
A600
E500
8880
1040
ENDCHAR
STARTCHAR uni5426
ENCODING 21542
SWIDTH 1152 0
DWIDTH 12 0
BBX 9 9 0 -2
BITMAP
FF80
0800
1A00
2980
C800
3F00
2100
3F00
2100
ENDCHAR
STARTCHAR uni5429
ENCODING 21545
SWIDTH 1152 0
DWIDTH 12 0
BBX 8 9 1 -2
BITMAP
0C
CC
D2
C1
DE
D2
12
22
04
ENDCHAR
STARTCHAR uni542B
ENCODING 21547
SWIDTH 1152 0
DWIDTH 12 0
BBX 7 8 1 -1
BITMAP
10
28
FE
7E
08
7E
42
7E
ENDCHAR
STARTCHAR uni5433
ENCODING 21555
SWIDTH 1152 0
DWIDTH 12 0
BBX 9 9 0 -1
BITMAP
0F00
2900
2F00
2000
3F00
2900
FF80
1800
6780
ENDCHAR
STARTCHAR uni5438
ENCODING 21560
SWIDTH 1152 0
DWIDTH 12 0
BBX 8 8 1 -1
BITMAP
1E
CA
CA
CF
CA
DA
24
DB
ENDCHAR
STARTCHAR uni5439
ENCODING 21561
SWIDTH 1152 0
DWIDTH 12 0
BBX 8 8 1 -1
BITMAP
E8
AF
B2
AA
E8
B4
24
C3
ENDCHAR
STARTCHAR uni543B
ENCODING 21563
SWIDTH 1152 0
DWIDTH 12 0
BBX 8 8 1 -1
BITMAP
10
DF
ED
F5
D5
C9
09
16
ENDCHAR
STARTCHAR uni543C
ENCODING 21564
SWIDTH 1152 0
DWIDTH 12 0
BBX 10 8 0 -1
BITMAP
1D00
E900
A900
A900
AD00
E500
A540
09C0
ENDCHAR
STARTCHAR uni543E
ENCODING 21566
SWIDTH 1152 0
DWIDTH 12 0
BBX 9 9 1 -2
BITMAP
7F80
0800
3E00
1200
FF80
7E00
4200
7E00
4200
ENDCHAR
STARTCHAR uni5442
ENCODING 21570
SWIDTH 1152 0
DWIDTH 12 0
BBX 8 9 1 -2
BITMAP
7E
42
7E
10
FF
81
81
FF
80
ENDCHAR
STARTCHAR uni5448
ENCODING 21576
SWIDTH 1152 0
DWIDTH 12 0
BBX 9 8 1 -1
BITMAP
7E00
4200
7E00
0000
7E00
7F00
0800
FF80
ENDCHAR
STARTCHAR uni544A
ENCODING 21578
SWIDTH 1152 0
DWIDTH 12 0
BBX 9 9 1 -2
BITMAP
0800
7F00
0800
FF80
0800
7E00
4200
7E00
4200
ENDCHAR
STARTCHAR uni5451
ENCODING 21585
SWIDTH 1152 0
DWIDTH 12 0
BBX 8 9 1 -2
BITMAP
3E
50
FF
28
24
FF
22
3E
20
ENDCHAR
STARTCHAR uni5468
ENCODING 21608
SWIDTH 1152 0
DWIDTH 12 0
BBX 8 8 1 -1
BITMAP
7F
49
7F
7F
49
5D
9D
03
ENDCHAR
STARTCHAR uni546A
ENCODING 21610
SWIDTH 1152 0
DWIDTH 12 0
BBX 9 9 0 -2
BITMAP
0F80
E880
A880
AF80
EE80
A600
0A00
0A00
3100
ENDCHAR
STARTCHAR uni5471
ENCODING 21617
SWIDTH 1152 0
DWIDTH 12 0
BBX 10 8 0 -1
BITMAP
0100
EF00
AD00
AD00
AD00
EF00
9E80
2040
ENDCHAR
STARTCHAR uni5473
ENCODING 21619
SWIDTH 1152 0
DWIDTH 12 0
BBX 9 8 0 -1
BITMAP
0400
FF00
A400
BF80
E400
9E00
2580
0400
ENDCHAR
STARTCHAR uni5475
ENCODING 21621
SWIDTH 1152 0
DWIDTH 12 0
BBX 8 8 1 -1
BITMAP
FF
C2
DE
D6
DE
D6
02
06
ENDCHAR
STARTCHAR uni547B
ENCODING 21627
SWIDTH 1152 0
DWIDTH 12 0
BBX 8 8 1 -1
BITMAP
04
DF
D5
DF
D5
DF
15
04
ENDCHAR
STARTCHAR uni547C
ENCODING 21628
SWIDTH 1152 0
DWIDTH 12 0
BBX 9 8 1 -1
BITMAP
C700
CC00
D600
C400
DF80
C400
0400
0C00
ENDCHAR
STARTCHAR uni547D
ENCODING 21629
SWIDTH 1152 0
DWIDTH 12 0
BBX 7 8 1 -1
BITMAP
10
28
46
3C
FE
9A
FA
0C
ENDCHAR
STARTCHAR uni5480
ENCODING 21632
SWIDTH 1152 0
DWIDTH 12 0
BBX 8 8 1 -1
BITMAP
1E
F2
BE
B2
F2
BE
12
7F
ENDCHAR
STARTCHAR uni5486
ENCODING 21638
SWIDTH 1152 0
DWIDTH 12 0
BBX 8 7 1 -1
BITMAP
DF
D1
FD
DD
D1
10
11
ENDCHAR
STARTCHAR uni548C
ENCODING 21644
SWIDTH 1152 0
DWIDTH 12 0
BBX 9 8 1 -1
BITMAP
7000
2780
FC80
2480
F480
AC80
2780
2480
ENDCHAR
STARTCHAR uni548E
ENCODING 21646
SWIDTH 1152 0
DWIDTH 12 0
BBX 8 9 1 -2
BITMAP
74
D4
63
5F
00
7E
42
7E
40
ENDCHAR
STARTCHAR uni5490
ENCODING 21648
SWIDTH 1152 0
DWIDTH 12 0
BBX 9 8 1 -1
BITMAP
0900
D100
D780
D100
D500
D100
1100
1100
ENDCHAR
STARTCHAR uni54A4
ENCODING 21668
SWIDTH 1152 0
DWIDTH 12 0
BBX 10 8 0 -1
BITMAP
0200
FF80
B280
B680
A380
EE00
A240
0380
ENDCHAR
STARTCHAR uni54A8
ENCODING 21672
SWIDTH 1152 0
DWIDTH 12 0
BBX 8 8 1 -2
BITMAP
1F
08
08
34
FF
22
3E
20
ENDCHAR
STARTCHAR uni54AB
ENCODING 21675
SWIDTH 1152 0
DWIDTH 12 0
BBX 8 9 1 -2
BITMAP
77
55
55
77
64
65
68
90
0F
ENDCHAR
STARTCHAR uni54AC
ENCODING 21676
SWIDTH 1152 0
DWIDTH 12 0
BBX 9 8 1 -1
BITMAP
0400
DF80
C000
D100
D000
CC00
0C00
7300
ENDCHAR
STARTCHAR uni54B3
ENCODING 21683
SWIDTH 1152 0
DWIDTH 12 0
BBX 8 8 1 -1
BITMAP
0E
C0
DF
C8
D2
CE
0C
73
ENDCHAR
STARTCHAR uni54B8
ENCODING 21688
SWIDTH 1152 0
DWIDTH 12 0
BBX 9 8 0 -1
BITMAP
0500
7F80
4400
5C00
7D00
7A00
AA00
8D80
ENDCHAR
STARTCHAR uni54BD
ENCODING 21693
SWIDTH 1152 0
DWIDTH 12 0
BBX 8 9 1 -2
BITMAP
FF
E5
EF
E5
EB
E1
21
3F
20
ENDCHAR
STARTCHAR uni54C0
ENCODING 21696
SWIDTH 1152 0
DWIDTH 12 0
BBX 10 9 0 -2
BITMAP
0400
7FC0
3F00
2100
3F00
0C00
3300
D100
3880
ENDCHAR
STARTCHAR uni54C1
ENCODING 21697
SWIDTH 1152 0
DWIDTH 12 0
BBX 8 9 1 -2
BITMAP
7C
44
7C
00
FF
99
99
FF
89
ENDCHAR
STARTCHAR uni54C4
ENCODING 21700
SWIDTH 1152 0
DWIDTH 12 0
BBX 9 8 1 -1
BITMAP
0A00
CA00
DF00
CA00
CA00
BF80
0A00
3100
ENDCHAR
STARTCHAR uni54C8
ENCODING 21704
SWIDTH 1152 0
DWIDTH 12 0
BBX 8 8 0 -2
BITMAP
E6
A9
B7
E0
AF
09
0F
08
ENDCHAR
STARTCHAR uni54C9
ENCODING 21705
SWIDTH 1152 0
DWIDTH 12 0
BBX 10 8 0 -1
BITMAP
1200
7E00
1200
FFC0
7A00
4A80
7900
4EC0
ENDCHAR
STARTCHAR uni54E1
ENCODING 21729
SWIDTH 1152 0
DWIDTH 12 0
BBX 7 9 1 -2
BITMAP
7E
7E
7E
42
7E
7E
7E
02
C0
ENDCHAR
STARTCHAR uni54E5
ENCODING 21733
SWIDTH 1152 0
DWIDTH 12 0
BBX 9 9 1 -2
BITMAP
FF80
7A00
4A00
7A00
FF80
7A00
4A00
7A00
0400
ENDCHAR
STARTCHAR uni54E8
ENCODING 21736
SWIDTH 1152 0
DWIDTH 12 0
BBX 8 9 1 -2
BITMAP
04
D5
DE
D2
DE
92
1E
12
14
ENDCHAR
STARTCHAR uni54ED
ENCODING 21741
SWIDTH 1152 0
DWIDTH 12 0
BBX 9 8 0 -1
BITMAP
7F80
4C80
7F80
0800
FF80
1800
1400
6380
ENDCHAR
STARTCHAR uni54EE
ENCODING 21742
SWIDTH 1152 0
DWIDTH 12 0
BBX 9 8 1 -1
BITMAP
0900
FE00
FF80
FE00
D400
FF80
0400
0C00
ENDCHAR
STARTCHAR uni54F2
ENCODING 21746
SWIDTH 1152 0
DWIDTH 12 0
BBX 8 9 1 -2
BITMAP
2F
F8
2F
F2
32
3E
42
7E
02
ENDCHAR
STARTCHAR uni54FA
ENCODING 21754
SWIDTH 1152 0
DWIDTH 12 0
BBX 9 8 1 -1
BITMAP
0600
DF80
DF00
D500
DF00
DF00
1500
1500
ENDCHAR
STARTCHAR uni5504
ENCODING 21764
SWIDTH 1152 0
DWIDTH 12 0
BBX 8 8 1 -1
BITMAP
1F
F1
BF
BF
F1
BF
08
11
ENDCHAR
STARTCHAR uni5506
ENCODING 21766
SWIDTH 1152 0
DWIDTH 12 0
BBX 8 9 0 -2
BITMAP
E5
AF
A2
AB
E7
A9
16
05
08
ENDCHAR
STARTCHAR uni5507
ENCODING 21767
SWIDTH 1152 0
DWIDTH 12 0
BBX 9 8 0 -1
BITMAP
7F80
4F00
7F80
9480
9300
2980
3F80
3F80
ENDCHAR
STARTCHAR uni550E
ENCODING 21774
SWIDTH 1152 0
DWIDTH 12 0
BBX 8 9 1 -2
BITMAP
33
D3
FB
D3
FB
D3
51
11
02
ENDCHAR
STARTCHAR uni5510
ENCODING 21776
SWIDTH 1152 0
DWIDTH 12 0
BBX 8 8 1 -1
BITMAP
08
FF
BE
BF
BE
88
BE
BE
ENDCHAR
STARTCHAR uni551C
ENCODING 21788
SWIDTH 1152 0
DWIDTH 12 0
BBX 9 8 0 -1
BITMAP
FF80
7F00
1C00
6B80
7800
4D80
4E00
7F80
ENDCHAR
STARTCHAR uni552F
ENCODING 21807
SWIDTH 1152 0
DWIDTH 12 0
BBX 8 8 1 -1
BITMAP
D0
DF
F4
DF
D4
DF
D4
1F
ENDCHAR
STARTCHAR uni5531
ENCODING 21809
SWIDTH 1152 0
DWIDTH 12 0
BBX 8 8 1 -1
BITMAP
1F
FF
B1
BF
FF
BF
11
1F
ENDCHAR
STARTCHAR uni5535
ENCODING 21813
SWIDTH 1152 0
DWIDTH 12 0
BBX 10 8 0 -1
BITMAP
0200
FFC0
AB00
AF80
EA80
AF80
0F80
0240
ENDCHAR
STARTCHAR uni553E
ENCODING 21822
SWIDTH 1152 0
DWIDTH 12 0
BBX 9 8 1 -1
BITMAP
DF00
C400
FF00
D600
FF00
FF00
0400
3F80
ENDCHAR
STARTCHAR uni5544
ENCODING 21828
SWIDTH 1152 0
DWIDTH 12 0
BBX 9 8 0 -1
BITMAP
1F80
E800
B480
AF00
FA00
AF00
1280
0400
ENDCHAR
STARTCHAR uni5546
ENCODING 21830
SWIDTH 1152 0
DWIDTH 12 0
BBX 8 8 1 -2
BITMAP
FF
24
FF
AF
BD
A5
BD
82
ENDCHAR
STARTCHAR uni554F
ENCODING 21839
SWIDTH 1152 0
DWIDTH 12 0
BBX 8 8 1 -1
BITMAP
FF
FF
FF
81
BD
A5
BD
A7
ENDCHAR
STARTCHAR uni5553
ENCODING 21843
SWIDTH 1152 0
DWIDTH 12 0
BBX 10 9 0 -1
BITMAP
0800
7000
7BC0
4880
7900
8300
BF80
2100
3F00
ENDCHAR
STARTCHAR uni5556
ENCODING 21846
SWIDTH 1152 0
DWIDTH 12 0
BBX 9 8 1 -1
BITMAP
0400
D600
CA00
C180
C400
D600
0A00
3180
ENDCHAR
STARTCHAR uni555E
ENCODING 21854
SWIDTH 1152 0
DWIDTH 12 0
BBX 8 8 1 -1
BITMAP
FF
CC
FF
E1
E1
FF
2D
3F
ENDCHAR
STARTCHAR uni5563
ENCODING 21859
SWIDTH 1152 0
DWIDTH 12 0
BBX 8 9 1 -2
BITMAP
D0
CF
CB
FF
CB
EF
2B
2E
10
ENDCHAR
STARTCHAR uni557C
ENCODING 21884
SWIDTH 1152 0
DWIDTH 12 0
BBX 8 9 1 -2
BITMAP
0C
DF
C0
FF
E5
DE
16
16
04
ENDCHAR
STARTCHAR uni5580
ENCODING 21888
SWIDTH 1152 0
DWIDTH 12 0
BBX 8 9 1 -2
BITMAP
08
FF
DE
F4
DE
BF
12
1E
10
ENDCHAR
STARTCHAR uni5584
ENCODING 21892
SWIDTH 1152 0
DWIDTH 12 0
BBX 9 8 0 -1
BITMAP
1000
7F80
7F00
FF80
2A00
FF80
3F00
3F00
ENDCHAR
STARTCHAR uni5586
ENCODING 21894
SWIDTH 1152 0
DWIDTH 12 0
BBX 10 9 0 -1
BITMAP
0100
2100
FFC0
2100
F7C0
0000
7F80
4C80
7F80
ENDCHAR
STARTCHAR uni5587
ENCODING 21895
SWIDTH 1152 0
DWIDTH 12 0
BBX 8 8 1 -1
BITMAP
D1
FB
FF
F7
FF
DB
75
13
ENDCHAR
STARTCHAR uni5589
ENCODING 21897
SWIDTH 1152 0
DWIDTH 12 0
BBX 8 10 1 -2
BITMAP
10
1E
E2
FF
EF
E4
FF
2C
2A
10
ENDCHAR
STARTCHAR uni558A
ENCODING 21898
SWIDTH 1152 0
DWIDTH 12 0
BBX 9 8 0 -1
BITMAP
0200
FF80
B200
BE80
FF00
9F00
2900
0680
ENDCHAR
STARTCHAR uni5598
ENCODING 21912
SWIDTH 1152 0
DWIDTH 12 0
BBX 8 9 1 -1
BITMAP
11
15
DF
C0
DF
DF
9B
1B
1B
ENDCHAR
STARTCHAR uni5599
ENCODING 21913
SWIDTH 1152 0
DWIDTH 12 0
BBX 8 8 1 -1
BITMAP
0E
CC
DF
CC
DD
F6
1E
2D
ENDCHAR
STARTCHAR uni559A
ENCODING 21914
SWIDTH 1152 0
DWIDTH 12 0
BBX 9 8 1 -1
BITMAP
CE00
F400
DF00
D500
DF00
BF80
0C00
3380
ENDCHAR
STARTCHAR uni559C
ENCODING 21916
SWIDTH 1152 0
DWIDTH 12 0
BBX 9 8 0 -1
BITMAP
FF80
7F00
3F00
2100
3F00
7F80
3F00
3F00
ENDCHAR
STARTCHAR uni559D
ENCODING 21917
SWIDTH 1152 0
DWIDTH 12 0
BBX 8 8 1 -1
BITMAP
FF
B1
BF
A8
FF
B5
11
18
ENDCHAR
STARTCHAR uni55A7
ENCODING 21927
SWIDTH 1152 0
DWIDTH 12 0
BBX 8 8 1 -1
BITMAP
C4
FF
EF
E1
DE
DE
1E
3F
ENDCHAR
STARTCHAR uni55A9
ENCODING 21929
SWIDTH 1152 0
DWIDTH 12 0
BBX 9 8 0 -1
BITMAP
EE00
A600
AF80
BC80
F700
B700
1680
1C80
ENDCHAR
STARTCHAR uni55AA
ENCODING 21930
SWIDTH 1152 0
DWIDTH 12 0
BBX 9 9 0 -2
BITMAP
0800
FF80
7B00
7B00
7F80
1800
1600
3E00
0180
ENDCHAR
STARTCHAR uni55AB
ENCODING 21931
SWIDTH 1152 0
DWIDTH 12 0
BBX 8 8 1 -1
BITMAP
38
D7
FB
D3
DD
FF
0C
13
ENDCHAR
STARTCHAR uni55AC
ENCODING 21932
SWIDTH 1152 0
DWIDTH 12 0
BBX 9 9 0 -2
BITMAP
7E00
FF80
1E00
3300
5E80
3F80
3E80
3E80
2000
ENDCHAR
STARTCHAR uni55AE
ENCODING 21934
SWIDTH 1152 0
DWIDTH 12 0
BBX 9 9 0 -2
BITMAP
7F80
7F80
3F00
2900
3F00
3F00
FF80
0800
0800
ENDCHAR
STARTCHAR uni55C5
ENCODING 21957
SWIDTH 1152 0
DWIDTH 12 0
BBX 8 8 1 -1
BITMAP
1E
DE
D2
DE
DE
FF
0C
33
ENDCHAR
STARTCHAR uni55C7
ENCODING 21959
SWIDTH 1152 0
DWIDTH 12 0
BBX 9 8 1 -1
BITMAP
FF80
0A00
6E00
FF80
FE00
BE00
BE00
FE00
ENDCHAR
STARTCHAR uni55D4
ENCODING 21972
SWIDTH 1152 0
DWIDTH 12 0
BBX 9 8 1 -1
BITMAP
1600
DF00
CF00
DF00
DF00
DF00
1F80
1100
ENDCHAR
STARTCHAR uni55DA
ENCODING 21978
SWIDTH 1152 0
DWIDTH 12 0
BBX 8 8 1 -1
BITMAP
1E
F2
BE
BF
F0
BF
31
30
ENDCHAR
STARTCHAR uni55DC
ENCODING 21980
SWIDTH 1152 0
DWIDTH 12 0
BBX 9 8 1 -1
BITMAP
C800
FE00
FF00
CE80
DF00
DF00
1F00
1F00
ENDCHAR
STARTCHAR uni55DF
ENCODING 21983
SWIDTH 1152 0
DWIDTH 12 0
BBX 9 7 1 -1
BITMAP
DF00
C400
DF00
DF80
8E00
1400
3F00
ENDCHAR
STARTCHAR uni55E3
ENCODING 21987
SWIDTH 1152 0
DWIDTH 12 0
BBX 8 9 1 -2
BITMAP
FF
F7
01
FF
FF
EF
ED
99
02
ENDCHAR
STARTCHAR uni55E4
ENCODING 21988
SWIDTH 1152 0
DWIDTH 12 0
BBX 8 9 1 -1
BITMAP
11
15
DF
C0
DF
D5
DF
05
1B
ENDCHAR
STARTCHAR uni55FD
ENCODING 22013
SWIDTH 1152 0
DWIDTH 12 0
BBX 9 8 0 -1
BITMAP
FD00
AA00
BD80
BF00
FD00
AB00
3A80
0880
ENDCHAR
STARTCHAR uni55FE
ENCODING 22014
SWIDTH 1152 0
DWIDTH 12 0
BBX 9 8 1 -1
BITMAP
1000
FF00
D000
DF00
EA00
EF80
5600
3500
ENDCHAR
STARTCHAR uni5606
ENCODING 22022
SWIDTH 1152 0
DWIDTH 12 0
BBX 9 10 1 -2
BITMAP
0400
3F00
CC00
CC00
DF00
DF00
9F00
3F80
0A00
3100
ENDCHAR
STARTCHAR uni5609
ENCODING 22025
SWIDTH 1152 0
DWIDTH 12 0
BBX 9 9 0 -2
BITMAP
FF80
7F00
3F00
3F00
1200
FF80
7F80
0F80
1000
ENDCHAR
STARTCHAR uni5614
ENCODING 22036
SWIDTH 1152 0
DWIDTH 12 0
BBX 8 8 1 -1
BITMAP
3F
EE
EA
EE
FF
FF
20
3F
ENDCHAR
STARTCHAR uni5617
ENCODING 22039
SWIDTH 1152 0
DWIDTH 12 0
BBX 8 9 1 -2
BITMAP
28
FF
BD
7C
7E
7E
7E
7E
02
ENDCHAR
STARTCHAR uni562F
ENCODING 22063
SWIDTH 1152 0
DWIDTH 12 0
BBX 10 10 0 -2
BITMAP
0400
1F80
FFC0
BF80
BE80
FF80
9F80
1F80
2E80
0400
ENDCHAR
STARTCHAR uni5632
ENCODING 22066
SWIDTH 1152 0
DWIDTH 12 0
BBX 8 8 1 -1
BITMAP
17
FD
FD
FD
FD
D5
FD
13
ENDCHAR
STARTCHAR uni5634
ENCODING 22068
SWIDTH 1152 0
DWIDTH 12 0
BBX 8 8 1 -1
BITMAP
14
FC
F7
DC
FF
DF
1F
21
ENDCHAR
STARTCHAR uni5636
ENCODING 22070
SWIDTH 1152 0
DWIDTH 12 0
BBX 9 8 1 -1
BITMAP
2900
FE00
FC00
EF80
FD00
FD00
0500
0500
ENDCHAR
STARTCHAR uni5653
ENCODING 22099
SWIDTH 1152 0
DWIDTH 12 0
BBX 9 9 0 -2
BITMAP
0700
FF80
B480
BF00
F700
BE80
2F80
0600
1F80
ENDCHAR
STARTCHAR uni5668
ENCODING 22120
SWIDTH 1152 0
DWIDTH 12 0
BBX 10 8 0 -1
BITMAP
7780
5780
7800
FFC0
1200
7FC0
4C80
7F80
ENDCHAR
STARTCHAR uni566B
ENCODING 22123
SWIDTH 1152 0
DWIDTH 12 0
BBX 9 8 0 -1
BITMAP
0E00
FF00
BF80
BF00
FF00
BF00
1880
2800
ENDCHAR
STARTCHAR uni5674
ENCODING 22132
SWIDTH 1152 0
DWIDTH 12 0
BBX 8 8 1 -1
BITMAP
1F
D6
FB
DF
DF
DF
1F
22
ENDCHAR
STARTCHAR uni5686
ENCODING 22150
SWIDTH 1152 0
DWIDTH 12 0
BBX 9 10 1 -2
BITMAP
0200
3F80
CE00
FF00
DE00
DE00
3F00
2F00
2F00
2300
ENDCHAR
STARTCHAR uni56A5
ENCODING 22181
SWIDTH 1152 0
DWIDTH 12 0
BBX 9 8 1 -1
BITMAP
1400
FF00
DE00
FF00
DE80
BF00
0000
2D00
ENDCHAR
STARTCHAR uni56AC
ENCODING 22188
SWIDTH 1152 0
DWIDTH 12 0
BBX 8 8 1 -1
BITMAP
2F
EF
FD
D7
D7
DD
17
25
ENDCHAR
STARTCHAR uni56AE
ENCODING 22190
SWIDTH 1152 0
DWIDTH 12 0
BBX 9 9 1 -2
BITMAP
1F80
9F00
9F00
5280
1F00
FF00
BD00
BD00
0300
ENDCHAR
STARTCHAR uni56B4
ENCODING 22196
SWIDTH 1152 0
DWIDTH 12 0
BBX 9 9 0 -2
BITMAP
7F80
0000
7F00
5200
5F80
5B00
5900
A900
8680
ENDCHAR
STARTCHAR uni56BC
ENCODING 22204
SWIDTH 1152 0
DWIDTH 12 0
BBX 8 9 1 -2
BITMAP
2F
FF
ED
FF
FF
FA
3A
3A
06
ENDCHAR
STARTCHAR uni56CA
ENCODING 22218
SWIDTH 1152 0
DWIDTH 12 0
BBX 10 9 0 -2
BITMAP
7FC0
3F80
0400
7F80
7F80
7F80
FF80
3300
3900
ENDCHAR
STARTCHAR uni56CD
ENCODING 22221
SWIDTH 1152 0
DWIDTH 12 0
BBX 10 9 0 -1
BITMAP
0100
FFC0
F3C0
7F80
7F80
2100
FFC0
7F80
7F80
ENDCHAR
STARTCHAR uni56D1
ENCODING 22225
SWIDTH 1152 0
DWIDTH 12 0
BBX 10 10 0 -2
BITMAP
1F80
F080
BF80
BB00
FF80
BF80
17C0
1F40
2F40
40C0
ENDCHAR
STARTCHAR uni56DA
ENCODING 22234
SWIDTH 1152 0
DWIDTH 12 0
BBX 8 9 1 -2
BITMAP
FF
81
91
99
99
A5
C3
FF
81
ENDCHAR
STARTCHAR uni56DB
ENCODING 22235
SWIDTH 1152 0
DWIDTH 12 0
BBX 8 7 1 -1
BITMAP
FF
99
99
9B
AF
FF
81
ENDCHAR
STARTCHAR uni56DE
ENCODING 22238
SWIDTH 1152 0
DWIDTH 12 0
BBX 8 9 1 -2
BITMAP
FF
81
BD
A5
A5
BD
A5
FF
80
ENDCHAR
STARTCHAR uni56E0
ENCODING 22240
SWIDTH 1152 0
DWIDTH 12 0
BBX 8 9 1 -2
BITMAP
FF
91
FD
91
99
A5
81
FF
81
ENDCHAR
STARTCHAR uni56F0
ENCODING 22256
SWIDTH 1152 0
DWIDTH 12 0
BBX 8 9 1 -2
BITMAP
FF
89
BF
89
9D
AB
89
FF
81
ENDCHAR
STARTCHAR uni56F9
ENCODING 22265
SWIDTH 1152 0
DWIDTH 12 0
BBX 8 9 1 -2
BITMAP
FF
91
AD
DB
FD
95
9D
FF
80
ENDCHAR
STARTCHAR uni56FA
ENCODING 22266
SWIDTH 1152 0
DWIDTH 12 0
BBX 8 9 1 -2
BITMAP
FF
91
FD
91
BD
A5
BD
FF
81
ENDCHAR
STARTCHAR uni5703
ENCODING 22275
SWIDTH 1152 0
DWIDTH 12 0
BBX 8 9 1 -2
BITMAP
FF
FD
91
BF
BF
BF
B3
FF
80
ENDCHAR
STARTCHAR uni5704
ENCODING 22276
SWIDTH 1152 0
DWIDTH 12 0
BBX 8 8 1 -1
BITMAP
FF
BF
BD
95
BF
BD
BD
FF
ENDCHAR
STARTCHAR uni5708
ENCODING 22280
SWIDTH 1152 0
DWIDTH 12 0
BBX 8 8 1 -1
BITMAP
FF
A5
BD
FF
BD
EB
BD
FF
ENDCHAR
STARTCHAR uni570B
ENCODING 22283
SWIDTH 1152 0
DWIDTH 12 0
BBX 8 8 1 -1
BITMAP
FF
89
FF
F9
F9
95
AF
FF
ENDCHAR
STARTCHAR uni570D
ENCODING 22285
SWIDTH 1152 0
DWIDTH 12 0
BBX 8 8 1 -1
BITMAP
FF
BD
FF
FD
FD
FD
FD
FF
ENDCHAR
STARTCHAR uni5712
ENCODING 22290
SWIDTH 1152 0
DWIDTH 12 0
BBX 8 9 1 -2
BITMAP
FF
FD
FD
FD
FD
B9
D5
FF
81
ENDCHAR
STARTCHAR uni5713
ENCODING 22291
SWIDTH 1152 0
DWIDTH 12 0
BBX 8 8 1 -1
BITMAP
FF
BD
BD
BD
BD
BD
A5
FF
ENDCHAR
STARTCHAR uni5716
ENCODING 22294
SWIDTH 1152 0
DWIDTH 12 0
BBX 8 9 1 -2
BITMAP
FF
BD
BD
FF
FF
DB
FF
FF
80
ENDCHAR
STARTCHAR uni5718
ENCODING 22296
SWIDTH 1152 0
DWIDTH 12 0
BBX 8 10 1 -3
BITMAP
FF
FF
BD
BD
BD
85
FF
95
FF
01
ENDCHAR
STARTCHAR uni571F
ENCODING 22303
SWIDTH 1152 0
DWIDTH 12 0
BBX 9 8 0 -1
BITMAP
0800
0800
0800
7F00
0800
0800
0800
FF80
ENDCHAR
STARTCHAR uni5728
ENCODING 22312
SWIDTH 1152 0
DWIDTH 12 0
BBX 10 8 0 -1
BITMAP
0800
FF80
1200
2200
6F80
A200
2200
2FC0
ENDCHAR
STARTCHAR uni572D
ENCODING 22317
SWIDTH 1152 0
DWIDTH 12 0
BBX 9 8 1 -1
BITMAP
0800
7F00
0800
FF80
0800
7F00
0800
FF80
ENDCHAR
STARTCHAR uni5730
ENCODING 22320
SWIDTH 1152 0
DWIDTH 12 0
BBX 8 8 1 -1
BITMAP
44
54
F7
5D
75
57
74
11
ENDCHAR
STARTCHAR uni573B
ENCODING 22331
SWIDTH 1152 0
DWIDTH 12 0
BBX 9 8 1 -1
BITMAP
4700
5800
EF80
5200
5200
7200
1200
0200
ENDCHAR
STARTCHAR uni5740
ENCODING 22336
SWIDTH 1152 0
DWIDTH 12 0
BBX 9 8 0 -1
BITMAP
2200
2200
F600
2780
2600
2600
3600
4F80
ENDCHAR
STARTCHAR uni5742
ENCODING 22338
SWIDTH 1152 0
DWIDTH 12 0
BBX 8 8 1 -1
BITMAP
5F
50
FE
52
5A
64
A6
59
ENDCHAR
STARTCHAR uni5747
ENCODING 22343
SWIDTH 1152 0
DWIDTH 12 0
BBX 8 8 1 -1
BITMAP
40
5F
E1
6F
41
4F
81
06
ENDCHAR
STARTCHAR uni574A
ENCODING 22346
SWIDTH 1152 0
DWIDTH 12 0
BBX 9 8 1 -1
BITMAP
4400
5F80
E400
4700
4900
6900
9100
2300
ENDCHAR
STARTCHAR uni574D
ENCODING 22349
SWIDTH 1152 0
DWIDTH 12 0
BBX 9 8 1 -1
BITMAP
4F00
4900
ED00
5F80
4900
6900
1100
0300
ENDCHAR
STARTCHAR uni574E
ENCODING 22350
SWIDTH 1152 0
DWIDTH 12 0
BBX 10 9 0 -1
BITMAP
0400
2400
2780
FA80
2200
2200
2500
4880
0040
ENDCHAR
STARTCHAR uni5750
ENCODING 22352
SWIDTH 1152 0
DWIDTH 12 0
BBX 9 8 0 -1
BITMAP
0800
0900
2A00
5B80
0800
7F00
0800
FF80
ENDCHAR
STARTCHAR uni5751
ENCODING 22353
SWIDTH 1152 0
DWIDTH 12 0
BBX 9 8 1 -1
BITMAP
4400
5F00
E000
4E00
4A00
4A00
CA00
3380
ENDCHAR
STARTCHAR uni5761
ENCODING 22369
SWIDTH 1152 0
DWIDTH 12 0
BBX 8 8 1 -1
BITMAP
44
5F
F5
54
5F
5A
A6
29
ENDCHAR
STARTCHAR uni5764
ENCODING 22372
SWIDTH 1152 0
DWIDTH 12 0
BBX 10 9 0 -2
BITMAP
2100
27C0
F540
27C0
2540
27C0
4540
0100
0100
ENDCHAR
STARTCHAR uni5766
ENCODING 22374
SWIDTH 1152 0
DWIDTH 12 0
BBX 9 8 0 -1
BITMAP
2780
2480
7480
2780
2480
2780
E480
1F80
ENDCHAR
STARTCHAR uni576A
ENCODING 22378
SWIDTH 1152 0
DWIDTH 12 0
BBX 10 8 0 -1
BITMAP
2F80
2200
7A80
2200
2FC0
2200
E200
0200
ENDCHAR
STARTCHAR uni576E
ENCODING 22382
SWIDTH 1152 0
DWIDTH 12 0
BBX 8 8 1 -1
BITMAP
44
4A
F2
5F
5F
51
91
1F
ENDCHAR
STARTCHAR uni5770
ENCODING 22384
SWIDTH 1152 0
DWIDTH 12 0
BBX 8 8 1 -1
BITMAP
5F
51
FF
5B
5B
5F
1B
13
ENDCHAR
STARTCHAR uni5775
ENCODING 22389
SWIDTH 1152 0
DWIDTH 12 0
BBX 9 8 0 -1
BITMAP
2780
2400
F400
2780
2500
2500
E500
0F80
ENDCHAR
STARTCHAR uni577C
ENCODING 22396
SWIDTH 1152 0
DWIDTH 12 0
BBX 9 8 1 -1
BITMAP
5E00
5000
FF80
5200
5600
7200
2380
2200
ENDCHAR
STARTCHAR uni5782
ENCODING 22402
SWIDTH 1152 0
DWIDTH 12 0
BBX 10 8 0 -1
BITMAP
0700
3800
7F80
2900
FFC0
7F80
0800
FF80
ENDCHAR
STARTCHAR uni5788
ENCODING 22408
SWIDTH 1152 0
DWIDTH 12 0
BBX 9 8 0 -1
BITMAP
1500
2380
6E00
2200
2980
7F00
0800
FF80
ENDCHAR
STARTCHAR uni578B
ENCODING 22411
SWIDTH 1152 0
DWIDTH 12 0
BBX 10 8 0 -1
BITMAP
7E80
2A80
FE80
2A80
4C80
3F80
0400
7FC0
ENDCHAR
STARTCHAR uni5793
ENCODING 22419
SWIDTH 1152 0
DWIDTH 12 0
BBX 8 8 1 -1
BITMAP
4E
5F
E8
4A
44
6A
06
19
ENDCHAR
STARTCHAR uni57A0
ENCODING 22432
SWIDTH 1152 0
DWIDTH 12 0
BBX 10 8 0 -1
BITMAP
2F80
2880
FF80
2F80
2A00
3A80
0900
1CC0
ENDCHAR
STARTCHAR uni57A2
ENCODING 22434
SWIDTH 1152 0
DWIDTH 12 0
BBX 8 9 1 -2
BITMAP
42
5C
FF
50
5F
59
A9
4F
09
ENDCHAR
STARTCHAR uni57A3
ENCODING 22435
SWIDTH 1152 0
DWIDTH 12 0
BBX 8 8 1 -1
BITMAP
5F
40
FF
51
5F
5F
11
3F
ENDCHAR
STARTCHAR uni57C3
ENCODING 22467
SWIDTH 1152 0
DWIDTH 12 0
BBX 9 8 1 -1
BITMAP
4000
4800
FF00
5F00
6400
FF80
4C00
5300
ENDCHAR
STARTCHAR uni57C7
ENCODING 22471
SWIDTH 1152 0
DWIDTH 12 0
BBX 9 8 0 -1
BITMAP
2F80
2200
7F80
2A80
2F80
2F80
CA80
0B00
ENDCHAR
STARTCHAR uni57C8
ENCODING 22472
SWIDTH 1152 0
DWIDTH 12 0
BBX 10 8 0 -1
BITMAP
2000
2780
7500
21C0
2200
2700
EE00
0D80
ENDCHAR
STARTCHAR uni57CB
ENCODING 22475
SWIDTH 1152 0
DWIDTH 12 0
BBX 10 8 0 -1
BITMAP
2F80
2A80
FF80
2A80
2F80
2F80
4200
1FC0
ENDCHAR
STARTCHAR uni57CE
ENCODING 22478
SWIDTH 1152 0
DWIDTH 12 0
BBX 10 9 0 -2
BITMAP
4200
4200
FF80
5E00
5680
7680
AD00
4340
0080
ENDCHAR
STARTCHAR uni57DF
ENCODING 22495
SWIDTH 1152 0
DWIDTH 12 0
BBX 8 8 1 -1
BITMAP
04
44
FF
5C
5D
5E
9E
09
ENDCHAR
STARTCHAR uni57E0
ENCODING 22496
SWIDTH 1152 0
DWIDTH 12 0
BBX 9 8 1 -1
BITMAP
4000
5F00
FF00
5F00
5F00
6400
3F80
0400
ENDCHAR
STARTCHAR uni57F0
ENCODING 22512
SWIDTH 1152 0
DWIDTH 12 0
BBX 8 8 1 -1
BITMAP
43
5D
F0
44
5F
4E
95
04
ENDCHAR
STARTCHAR uni57F4
ENCODING 22516
SWIDTH 1152 0
DWIDTH 12 0
BBX 9 8 1 -1
BITMAP
5F00
4400
EF00
5F00
5F00
5900
DF00
1F80
ENDCHAR
STARTCHAR uni57F7
ENCODING 22519
SWIDTH 1152 0
DWIDTH 12 0
BBX 9 9 0 -2
BITMAP
2200
F200
FF00
5300
FB00
2300
FD00
2480
0800
ENDCHAR
STARTCHAR uni57F9
ENCODING 22521
SWIDTH 1152 0
DWIDTH 12 0
BBX 8 8 1 -1
BITMAP
4E
40
FF
52
7F
5F
91
1F
ENDCHAR
STARTCHAR uni57FA
ENCODING 22522
SWIDTH 1152 0
DWIDTH 12 0
BBX 9 9 1 -1
BITMAP
0400
FF00
2400
3C00
3C00
FF80
4A00
BF00
7F00
ENDCHAR
STARTCHAR uni57FC
ENCODING 22524
SWIDTH 1152 0
DWIDTH 12 0
BBX 9 9 1 -2
BITMAP
4400
5F00
EA00
7F80
5D00
5500
9D00
0100
0200
ENDCHAR
STARTCHAR uni5800
ENCODING 22528
SWIDTH 1152 0
DWIDTH 12 0
BBX 8 9 1 -2
BITMAP
5F
5F
FB
5B
5F
6B
4B
0F
08
ENDCHAR
STARTCHAR uni5802
ENCODING 22530
SWIDTH 1152 0
DWIDTH 12 0
BBX 9 8 0 -1
BITMAP
2900
0A00
7F80
5E80
5E80
0800
7F00
FF80
ENDCHAR
STARTCHAR uni5805
ENCODING 22533
SWIDTH 1152 0
DWIDTH 12 0
BBX 9 8 1 -1
BITMAP
FE00
F200
9600
F600
F800
0800
7F00
FF80
ENDCHAR
STARTCHAR uni5806
ENCODING 22534
SWIDTH 1152 0
DWIDTH 12 0
BBX 8 8 1 -1
BITMAP
4A
4C
FF
4F
4C
8F
0C
0F
ENDCHAR
STARTCHAR uni5808
ENCODING 22536
SWIDTH 1152 0
DWIDTH 12 0
BBX 8 8 1 -1
BITMAP
1F
53
FF
5F
5F
5F
91
13
ENDCHAR
STARTCHAR uni5809
ENCODING 22537
SWIDTH 1152 0
DWIDTH 12 0
BBX 10 9 0 -2
BITMAP
5FC0
4800
FF80
4F80
4880
4F80
8F80
0880
0080
ENDCHAR
STARTCHAR uni580A
ENCODING 22538
SWIDTH 1152 0
DWIDTH 12 0
BBX 9 8 0 -1
BITMAP
7F80
7F80
4080
7F80
7F80
0800
7F00
FF80
ENDCHAR
STARTCHAR uni581E
ENCODING 22558
SWIDTH 1152 0
DWIDTH 12 0
BBX 9 8 1 -1
BITMAP
5500
7F80
F700
5F00
4400
5F80
0E00
3500
ENDCHAR
STARTCHAR uni5821
ENCODING 22561
SWIDTH 1152 0
DWIDTH 12 0
BBX 9 8 1 -1
BITMAP
3F00
5F00
C400
7F80
4E00
5D80
7F00
FF80
ENDCHAR
STARTCHAR uni5824
ENCODING 22564
SWIDTH 1152 0
DWIDTH 12 0
BBX 9 8 1 -1
BITMAP
5F00
5F00
F100
5F00
7F80
6700
1400
2F80
ENDCHAR
STARTCHAR uni5827
ENCODING 22567
SWIDTH 1152 0
DWIDTH 12 0
BBX 8 8 1 -1
BITMAP
43
4F
EF
4F
40
4F
84
0B
ENDCHAR
STARTCHAR uni582A
ENCODING 22570
SWIDTH 1152 0
DWIDTH 12 0
BBX 9 9 0 -2
BITMAP
4500
4F80
E700
4700
5F80
6B00
0D80
0F80
0800
ENDCHAR
STARTCHAR uni582F
ENCODING 22575
SWIDTH 1152 0
DWIDTH 12 0
BBX 9 9 0 -2
BITMAP
7F00
0800
FF80
3F00
7F80
7F00
1400
6400
0300
ENDCHAR
STARTCHAR uni5830
ENCODING 22576
SWIDTH 1152 0
DWIDTH 12 0
BBX 9 8 1 -1
BITMAP
5F80
5F00
DF00
5F00
5F00
5A00
9D00
1F80
ENDCHAR
STARTCHAR uni5831
ENCODING 22577
SWIDTH 1152 0
DWIDTH 12 0
BBX 9 8 0 -1
BITMAP
1780
7C80
7D80
5780
FE80
2700
FD00
2680
ENDCHAR
STARTCHAR uni5834
ENCODING 22580
SWIDTH 1152 0
DWIDTH 12 0
BBX 8 8 1 -1
BITMAP
5E
5E
FE
7F
48
6F
9D
02
ENDCHAR
STARTCHAR uni5835
ENCODING 22581
SWIDTH 1152 0
DWIDTH 12 0
BBX 9 10 1 -2
BITMAP
0800
4800
FD00
4A00
7F80
6F00
1900
6F00
0F00
0800
ENDCHAR
STARTCHAR uni583A
ENCODING 22586
SWIDTH 1152 0
DWIDTH 12 0
BBX 8 8 1 -1
BITMAP
5F
FF
55
5F
6C
1B
6A
12
ENDCHAR
STARTCHAR uni584A
ENCODING 22602
SWIDTH 1152 0
DWIDTH 12 0
BBX 9 9 1 -2
BITMAP
4400
5F00
FF00
5500
5F00
4600
9700
2480
0300
ENDCHAR
STARTCHAR uni584B
ENCODING 22603
SWIDTH 1152 0
DWIDTH 12 0
BBX 10 8 0 -1
BITMAP
6900
6180
5280
8C40
7F80
7F00
0800
FF80
ENDCHAR
STARTCHAR uni584F
ENCODING 22607
SWIDTH 1152 0
DWIDTH 12 0
BBX 9 8 1 -1
BITMAP
5500
5F00
E000
5F00
5F00
5F00
8A00
3F80
ENDCHAR
STARTCHAR uni5851
ENCODING 22609
SWIDTH 1152 0
DWIDTH 12 0
BBX 9 9 1 -1
BITMAP
4000
1700
FF00
AD00
FD00
4500
C900
3E00
FF80
ENDCHAR
STARTCHAR uni5854
ENCODING 22612
SWIDTH 1152 0
DWIDTH 12 0
BBX 10 8 0 -1
BITMAP
2500
3FC0
7700
2500
3F80
2F80
C880
0F80
ENDCHAR
STARTCHAR uni5857
ENCODING 22615
SWIDTH 1152 0
DWIDTH 12 0
BBX 10 8 0 -1
BITMAP
2000
0E00
1700
3FC0
4200
0A80
7F00
FF80
ENDCHAR
STARTCHAR uni5858
ENCODING 22616
SWIDTH 1152 0
DWIDTH 12 0
BBX 8 8 1 -1
BITMAP
44
5F
FF
5F
5F
5F
29
0F
ENDCHAR
STARTCHAR uni585A
ENCODING 22618
SWIDTH 1152 0
DWIDTH 12 0
BBX 9 8 0 -1
BITMAP
5F80
4000
FF80
4C00
5F00
4600
6B80
1400
ENDCHAR
STARTCHAR uni585E
ENCODING 22622
SWIDTH 1152 0
DWIDTH 12 0
BBX 10 7 0 -1
BITMAP
7F80
7F80
3F00
FFC0
2A00
7F80
7F80
ENDCHAR
STARTCHAR uni5861
ENCODING 22625
SWIDTH 1152 0
DWIDTH 12 0
BBX 9 8 0 -1
BITMAP
4980
4E00
FF80
5780
5780
7780
1F80
0900
ENDCHAR
STARTCHAR uni5862
ENCODING 22626
SWIDTH 1152 0
DWIDTH 12 0
BBX 8 9 1 -1
BITMAP
04
5F
51
FF
5F
50
5F
97
08
ENDCHAR
STARTCHAR uni5864
ENCODING 22628
SWIDTH 1152 0
DWIDTH 12 0
BBX 8 8 1 -1
BITMAP
5F
5F
FF
5F
51
5F
9F
11
ENDCHAR
STARTCHAR uni5875
ENCODING 22645
SWIDTH 1152 0
DWIDTH 12 0
BBX 9 8 0 -1
BITMAP
7F80
5F80
4A80
5F80
5A00
5780
9F00
BF80
ENDCHAR
STARTCHAR uni5879
ENCODING 22649
SWIDTH 1152 0
DWIDTH 12 0
BBX 9 8 0 -1
BITMAP
7D80
7E00
7F80
7D00
7D00
1900
7F00
FF80
ENDCHAR
STARTCHAR uni587C
ENCODING 22652
SWIDTH 1152 0
DWIDTH 12 0
BBX 9 8 1 -1
BITMAP
7F00
5F00
F500
5F00
5F00
5F00
1F80
0900
ENDCHAR
STARTCHAR uni587E
ENCODING 22654
SWIDTH 1152 0
DWIDTH 12 0
BBX 9 9 0 -1
BITMAP
0200
7A00
7F00
7D00
7D00
1500
3D00
7F00
FF80
ENDCHAR
STARTCHAR uni5883
ENCODING 22659
SWIDTH 1152 0
DWIDTH 12 0
BBX 9 9 0 -2
BITMAP
4700
4F80
EF80
4000
4F80
4F80
0F80
0A00
1380
ENDCHAR
STARTCHAR uni5885
ENCODING 22661
SWIDTH 1152 0
DWIDTH 12 0
BBX 9 8 0 -1
BITMAP
7F00
7A00
7F80
7200
2200
4800
3E00
FF80
ENDCHAR
STARTCHAR uni5889
ENCODING 22665
SWIDTH 1152 0
DWIDTH 12 0
BBX 9 9 1 -1
BITMAP
0200
5F80
5700
FF80
5700
5F00
7F00
1F00
0B00
ENDCHAR
STARTCHAR uni5893
ENCODING 22675
SWIDTH 1152 0
DWIDTH 12 0
BBX 10 9 0 -1
BITMAP
0200
FFC0
3F00
3F00
3F00
FFC0
2600
5F80
3F80
ENDCHAR
STARTCHAR uni589C
ENCODING 22684
SWIDTH 1152 0
DWIDTH 12 0
BBX 9 9 0 -1
BITMAP
7600
6900
7F00
5C80
5300
4F00
1E00
3F00
FF80
ENDCHAR
STARTCHAR uni589E
ENCODING 22686
SWIDTH 1152 0
DWIDTH 12 0
BBX 8 8 1 -1
BITMAP
4C
62
FF
5D
5F
7F
1F
1F
ENDCHAR
STARTCHAR uni589F
ENCODING 22687
SWIDTH 1152 0
DWIDTH 12 0
BBX 9 8 1 -1
BITMAP
4700
5F00
F500
5E00
5700
7700
5F00
1F80
ENDCHAR
STARTCHAR uni58A8
ENCODING 22696
SWIDTH 1152 0
DWIDTH 12 0
BBX 9 8 0 -1
BITMAP
3F00
2900
3F00
7F00
FF80
4A00
3E00
FF80
ENDCHAR
STARTCHAR uni58A9
ENCODING 22697
SWIDTH 1152 0
DWIDTH 12 0
BBX 9 8 0 -1
BITMAP
5C00
4180
FE80
5E80
5F00
6500
0D00
0A80
ENDCHAR
STARTCHAR uni58AE
ENCODING 22702
SWIDTH 1152 0
DWIDTH 12 0
BBX 9 9 0 -1
BITMAP
7000
6F80
6B80
5780
5780
4780
4C80
3F00
FF80
ENDCHAR
STARTCHAR uni58B3
ENCODING 22707
SWIDTH 1152 0
DWIDTH 12 0
BBX 8 9 1 -2
BITMAP
5F
56
FB
5F
5F
DF
1F
02
30
ENDCHAR
STARTCHAR uni58BA
ENCODING 22714
SWIDTH 1152 0
DWIDTH 12 0
BBX 8 8 1 -1
BITMAP
5F
51
FF
5F
5F
60
3F
12
ENDCHAR
STARTCHAR uni58BB
ENCODING 22715
SWIDTH 1152 0
DWIDTH 12 0
BBX 8 9 1 -1
BITMAP
04
5F
4C
FF
7F
5F
5F
DF
1F
ENDCHAR
STARTCHAR uni58BE
ENCODING 22718
SWIDTH 1152 0
DWIDTH 12 0
BBX 8 8 2 -1
BITMAP
3E
FE
BE
58
7C
B3
FC
FE
ENDCHAR
STARTCHAR uni58C1
ENCODING 22721
SWIDTH 1152 0
DWIDTH 12 0
BBX 10 8 0 -1
BITMAP
7F80
7900
4F80
BA00
BF80
0600
3F80
7FC0
ENDCHAR
STARTCHAR uni58C5
ENCODING 22725
SWIDTH 1152 0
DWIDTH 12 0
BBX 9 8 0 -1
BITMAP
7F80
2400
3F80
3780
2780
4F80
7F00
FF80
ENDCHAR
STARTCHAR uni58C7
ENCODING 22727
SWIDTH 1152 0
DWIDTH 12 0
BBX 9 8 1 -1
BITMAP
4400
7F00
FF00
5F00
5F00
7E00
1E00
3F80
ENDCHAR
STARTCHAR uni58CE
ENCODING 22734
SWIDTH 1152 0
DWIDTH 12 0
BBX 8 8 1 -1
BITMAP
4C
5F
FF
5F
5F
44
FF
09
ENDCHAR
STARTCHAR uni58D1
ENCODING 22737
SWIDTH 1152 0
DWIDTH 12 0
BBX 9 8 0 -1
BITMAP
1F80
7880
7900
6B00
F900
7280
7F00
7F80
ENDCHAR
STARTCHAR uni58D3
ENCODING 22739
SWIDTH 1152 0
DWIDTH 12 0
BBX 9 8 1 -1
BITMAP
FF00
F200
F780
FA00
FE00
FD00
FE00
7F00
ENDCHAR
STARTCHAR uni58D5
ENCODING 22741
SWIDTH 1152 0
DWIDTH 12 0
BBX 8 9 1 -2
BITMAP
5F
5E
FE
40
7F
4C
36
1D
04
ENDCHAR
STARTCHAR uni58D8
ENCODING 22744
SWIDTH 1152 0
DWIDTH 12 0
BBX 9 8 1 -1
BITMAP
7E00
7E00
7E00
FF00
FF00
FF00
7F00
FF80
ENDCHAR
STARTCHAR uni58D9
ENCODING 22745
SWIDTH 1152 0
DWIDTH 12 0
BBX 9 8 1 -1
BITMAP
5F80
5800
FF00
5F00
5F00
5F00
AF00
2900
ENDCHAR
STARTCHAR uni58DE
ENCODING 22750
SWIDTH 1152 0
DWIDTH 12 0
BBX 8 8 1 -1
BITMAP
5F
5F
FD
5F
5F
7C
52
31
ENDCHAR
STARTCHAR uni58DF
ENCODING 22751
SWIDTH 1152 0
DWIDTH 12 0
BBX 9 8 0 -1
BITMAP
F780
F080
7F80
7F80
7F80
4F80
7F00
FF80
ENDCHAR
STARTCHAR uni58E4
ENCODING 22756
SWIDTH 1152 0
DWIDTH 12 0
BBX 9 9 1 -2
BITMAP
7F00
5E00
FE00
5F00
5F00
7F00
9D00
7200
3980
ENDCHAR
STARTCHAR uni58EB
ENCODING 22763
SWIDTH 1152 0
DWIDTH 12 0
BBX 9 8 0 -1
BITMAP
0800
0800
0800
FF80
0800
0800
0800
7F00
ENDCHAR
STARTCHAR uni58EC
ENCODING 22764
SWIDTH 1152 0
DWIDTH 12 0
BBX 9 8 0 -1
BITMAP
0300
7C00
0800
0800
FF80
0800
0800
7F00
ENDCHAR
STARTCHAR uni58EF
ENCODING 22767
SWIDTH 1152 0
DWIDTH 12 0
BBX 9 8 0 -1
BITMAP
5200
5200
7200
1F80
F200
5200
5200
1F80
ENDCHAR
STARTCHAR uni58F9
ENCODING 22777
SWIDTH 1152 0
DWIDTH 12 0
BBX 10 8 0 -1
BITMAP
FF80
7F00
0000
7F80
7F80
3F00
3F00
FFC0
ENDCHAR
STARTCHAR uni58FA
ENCODING 22778
SWIDTH 1152 0
DWIDTH 12 0
BBX 9 8 0 -1
BITMAP
FF80
0800
7F00
7F80
7F80
6180
3F00
7F80
ENDCHAR
STARTCHAR uni58FB
ENCODING 22779
SWIDTH 1152 0
DWIDTH 12 0
BBX 8 9 1 -2
BITMAP
5F
47
F4
4F
5F
5F
9F
11
02
ENDCHAR
STARTCHAR uni58FD
ENCODING 22781
SWIDTH 1152 0
DWIDTH 12 0
BBX 10 8 0 -1
BITMAP
7FC0
3F80
7FC0
3F40
FFC0
7100
5FC0
7100
ENDCHAR
STARTCHAR uni590F
ENCODING 22799
SWIDTH 1152 0
DWIDTH 12 0
BBX 9 8 1 -1
BITMAP
FF80
7E00
7E00
7E00
7E00
3E00
D400
6B00
ENDCHAR
STARTCHAR uni5914
ENCODING 22804
SWIDTH 1152 0
DWIDTH 12 0
BBX 9 10 1 -2
BITMAP
0400
FF00
3C00
FF00
FF00
FF80
5600
3C00
5800
E700
ENDCHAR
STARTCHAR uni5915
ENCODING 22805
SWIDTH 1152 0
DWIDTH 12 0
BBX 8 7 1 -1
BITMAP
1F
22
52
0C
08
10
E0
ENDCHAR
STARTCHAR uni5916
ENCODING 22806
SWIDTH 1152 0
DWIDTH 12 0
BBX 8 9 1 -1
BITMAP
04
04
74
9C
94
27
24
44
84
ENDCHAR
STARTCHAR uni5919
ENCODING 22809
SWIDTH 1152 0
DWIDTH 12 0
BBX 8 8 1 -1
BITMAP
7E
42
7E
5E
6A
5A
92
A1
ENDCHAR
STARTCHAR uni591A
ENCODING 22810
SWIDTH 1152 0
DWIDTH 12 0
BBX 8 9 1 -2
BITMAP
10
1C
24
DC
2F
D2
2C
10
60
ENDCHAR
STARTCHAR uni591C
ENCODING 22812
SWIDTH 1152 0
DWIDTH 12 0
BBX 9 8 1 -1
BITMAP
0800
FF80
2800
4E00
D600
5200
4C00
5300
ENDCHAR
STARTCHAR uni5922
ENCODING 22818
SWIDTH 1152 0
DWIDTH 12 0
BBX 10 10 0 -2
BITMAP
0200
FFC0
0000
3F80
0000
7F80
4080
1E00
2800
1000
ENDCHAR
STARTCHAR uni5927
ENCODING 22823
SWIDTH 1152 0
DWIDTH 12 0
BBX 9 8 0 -1
BITMAP
0800
0800
FF80
0800
1800
1400
2200
C180
ENDCHAR
STARTCHAR uni5929
ENCODING 22825
SWIDTH 1152 0
DWIDTH 12 0
BBX 9 8 0 -1
BITMAP
FF80
0800
0800
7F00
0800
1400
2200
C100
ENDCHAR
STARTCHAR uni592A
ENCODING 22826
SWIDTH 1152 0
DWIDTH 12 0
BBX 9 8 0 -1
BITMAP
0800
0800
FF80
0800
1400
1200
2A00
C580
ENDCHAR
STARTCHAR uni592B
ENCODING 22827
SWIDTH 1152 0
DWIDTH 12 0
BBX 9 8 1 -1
BITMAP
0800
7F00
0800
FF80
1800
1400
2200
C180
ENDCHAR
STARTCHAR uni592D
ENCODING 22829
SWIDTH 1152 0
DWIDTH 12 0
BBX 9 8 1 -1
BITMAP
0600
3800
0800
FF80
0800
1400
2200
C180
ENDCHAR
STARTCHAR uni592E
ENCODING 22830
SWIDTH 1152 0
DWIDTH 12 0
BBX 9 8 1 -1
BITMAP
1000
7E00
5200
5200
FF80
1800
2400
C300
ENDCHAR
STARTCHAR uni5931
ENCODING 22833
SWIDTH 1152 0
DWIDTH 12 0
BBX 9 8 1 -1
BITMAP
2800
3F00
4800
0800
FF80
1400
2200
C100
ENDCHAR
STARTCHAR uni5937
ENCODING 22839
SWIDTH 1152 0
DWIDTH 12 0
BBX 9 8 0 -1
BITMAP
FF80
0800
7F00
7F00
7F80
1880
2500
C380
ENDCHAR
STARTCHAR uni593E
ENCODING 22846
SWIDTH 1152 0
DWIDTH 12 0
BBX 8 7 1 -1
BITMAP
FF
10
4A
AD
18
24
C3
ENDCHAR
STARTCHAR uni5944
ENCODING 22852
SWIDTH 1152 0
DWIDTH 12 0
BBX 10 9 0 -2
BITMAP
0400
FFC0
1500
3F80
E540
3F00
3F00
0480
0780
ENDCHAR
STARTCHAR uni5947
ENCODING 22855
SWIDTH 1152 0
DWIDTH 12 0
BBX 10 9 0 -2
BITMAP
0800
7F00
1400
2200
FFC0
3D00
3D00
2500
0100
ENDCHAR
STARTCHAR uni5948
ENCODING 22856
SWIDTH 1152 0
DWIDTH 12 0
BBX 9 9 1 -2
BITMAP
0800
7F80
1400
3E00
4180
FF80
2C00
CB00
1800
ENDCHAR
STARTCHAR uni5949
ENCODING 22857
SWIDTH 1152 0
DWIDTH 12 0
BBX 8 9 1 -2
BITMAP
FF
10
7E
FF
2C
5F
3E
08
08
ENDCHAR
STARTCHAR uni594E
ENCODING 22862
SWIDTH 1152 0
DWIDTH 12 0
BBX 9 7 1 -1
BITMAP
FF00
2C00
7E00
FF00
0800
7F00
FF80
ENDCHAR
STARTCHAR uni594F
ENCODING 22863
SWIDTH 1152 0
DWIDTH 12 0
BBX 8 9 1 -2
BITMAP
FF
10
7E
FF
3C
D2
FD
28
C6
ENDCHAR
STARTCHAR uni5950
ENCODING 22864
SWIDTH 1152 0
DWIDTH 12 0
BBX 8 8 1 -1
BITMAP
38
48
FE
AA
8E
FF
18
E7
ENDCHAR
STARTCHAR uni5951
ENCODING 22865
SWIDTH 1152 0
DWIDTH 12 0
BBX 9 9 0 -2
BITMAP
FF80
2280
F480
2480
F800
7F80
0C00
1300
2000
ENDCHAR
STARTCHAR uni5954
ENCODING 22868
SWIDTH 1152 0
DWIDTH 12 0
BBX 8 8 1 -1
BITMAP
FF
28
4E
BF
2C
FF
24
44
ENDCHAR
STARTCHAR uni5955
ENCODING 22869
SWIDTH 1152 0
DWIDTH 12 0
BBX 9 8 1 -1
BITMAP
FF80
1400
5600
A500
0000
FF00
1800
E700
ENDCHAR
STARTCHAR uni5957
ENCODING 22871
SWIDTH 1152 0
DWIDTH 12 0
BBX 9 7 1 -1
BITMAP
FF80
1E00
7D00
2080
3C00
FF80
7F00
ENDCHAR
STARTCHAR uni595A
ENCODING 22874
SWIDTH 1152 0
DWIDTH 12 0
BBX 8 8 1 -1
BITMAP
0E
72
A9
10
7E
D0
3E
E6
ENDCHAR
STARTCHAR uni5960
ENCODING 22880
SWIDTH 1152 0
DWIDTH 12 0
BBX 8 8 1 -1
BITMAP
2C
FF
7E
4E
7E
7E
FF
24
ENDCHAR
ENDFONT
